<svg width="179" height="26" viewBox="0 0 179 26" fill="none" xmlns="http://www.w3.org/2000/svg">
<path d="M45.8173 17.8418C45.4114 18.4194 44.8728 18.8487 44.2015 19.1297C43.5302 19.3951 42.7808 19.5278 41.9534 19.5278C41.2977 19.5278 40.6966 19.4498 40.1502 19.2937C39.6194 19.1375 39.1511 18.9034 38.7452 18.5911C38.3393 18.2633 38.0192 17.8652 37.785 17.3968C37.5509 16.9129 37.4338 16.3664 37.4338 15.7576C37.4338 15.0863 37.5665 14.5164 37.8319 14.0481C38.0973 13.5641 38.4563 13.1738 38.9091 12.8772C39.3774 12.5806 39.9239 12.362 40.5483 12.2215C41.1728 12.0654 41.8285 11.9873 42.5154 11.9873H45.6768C45.6768 11.0818 45.4739 10.3793 45.068 9.87971C44.6621 9.38013 43.9517 9.12254 42.9369 9.10693C42.3437 9.10693 41.8285 9.2084 41.3914 9.41136C40.9698 9.61431 40.6888 9.94997 40.5483 10.4183H37.8084C37.9021 9.76262 38.1129 9.2084 38.4407 8.75566C38.7842 8.30292 39.1901 7.92823 39.6585 7.6316C40.1424 7.33498 40.6732 7.12422 41.2509 6.99933C41.8441 6.87443 42.4374 6.81198 43.0306 6.81198C43.7956 6.81198 44.5059 6.91346 45.1616 7.11641C45.8173 7.31937 46.3872 7.66283 46.8711 8.1468C47.4175 8.70882 47.7844 9.38013 47.9718 10.1607C48.1591 10.9413 48.2528 11.7922 48.2528 12.7133V19.3639H45.9344L45.8173 17.8418ZM45.6768 13.8842H43.1009C42.6481 13.8842 42.1954 13.9232 41.7426 14.0012C41.2899 14.0637 40.8996 14.2276 40.5717 14.493C40.2595 14.7428 40.1034 15.1097 40.1034 15.5937C40.1034 16.1869 40.3142 16.6396 40.7357 16.9519C41.1728 17.2485 41.7036 17.3968 42.3281 17.3968C42.812 17.3968 43.257 17.3344 43.6629 17.2095C44.0844 17.0846 44.4435 16.8816 44.7401 16.6006C45.0367 16.304 45.2631 15.9371 45.4192 15.5C45.591 15.0472 45.6768 14.5086 45.6768 13.8842Z" fill="#0B101B"/>
<path d="M52.6414 1.89425C53.1254 1.89425 53.5235 2.04256 53.8357 2.33919C54.1636 2.63581 54.3275 3.04172 54.3275 3.55691C54.3275 4.05649 54.1636 4.45459 53.8357 4.75122C53.5235 5.04784 53.1254 5.19616 52.6414 5.19616C52.1262 5.19616 51.7125 5.04784 51.4003 4.75122C51.088 4.45459 50.9319 4.05649 50.9319 3.55691C50.9319 3.04172 51.088 2.63581 51.4003 2.33919C51.7125 2.04256 52.1262 1.89425 52.6414 1.89425ZM51.2832 19.3639V7.02274H53.9528V19.3639H51.2832Z" fill="#0B101B"/>
<path d="M75.1702 6.81198C76.1538 6.81198 77.0202 6.9681 77.7696 7.28034C78.519 7.59258 79.1512 8.02971 79.6664 8.59173C80.1972 9.13815 80.5953 9.80165 80.8607 10.5822C81.1261 11.3628 81.2588 12.2293 81.2588 13.1816C81.2588 14.1496 81.1261 15.0238 80.8607 15.8044C80.6109 16.5694 80.2285 17.2329 79.7133 17.7949C79.1981 18.3569 78.558 18.7863 77.793 19.0829C77.0436 19.3795 76.1694 19.5278 75.1702 19.5278C74.1867 19.5278 73.3202 19.3795 72.5708 19.0829C71.8215 18.7707 71.1892 18.3413 70.674 17.7949C70.1744 17.2329 69.7919 16.5616 69.5265 15.781C69.2768 15.0004 69.1519 14.1339 69.1519 13.1816C69.1519 12.2293 69.2768 11.3628 69.5265 10.5822C69.7919 9.80165 70.1822 9.13815 70.6974 8.59173C71.2126 8.02971 71.8449 7.59258 72.5943 7.28034C73.3436 6.9681 74.2023 6.81198 75.1702 6.81198ZM75.1702 17.2095C75.7791 17.2095 76.2943 17.108 76.7158 16.905C77.1529 16.6865 77.5042 16.3977 77.7696 16.0386C78.0506 15.6795 78.2536 15.258 78.3785 14.774C78.519 14.2901 78.5892 13.7671 78.5892 13.205C78.5892 12.643 78.519 12.12 78.3785 11.636C78.2536 11.1365 78.0506 10.7071 77.7696 10.3481C77.5042 9.989 77.1529 9.70798 76.7158 9.50503C76.2943 9.30207 75.7791 9.2006 75.1702 9.2006C74.577 9.2006 74.0696 9.30207 73.6481 9.50503C73.2265 9.70798 72.8753 9.989 72.5943 10.3481C72.3133 10.7071 72.1025 11.1365 71.962 11.636C71.8371 12.12 71.7746 12.643 71.7746 13.205C71.7746 13.7671 71.8371 14.2901 71.962 14.774C72.1025 15.258 72.3054 15.6795 72.5708 16.0386C72.8519 16.3977 73.2031 16.6865 73.6247 16.905C74.0618 17.108 74.577 17.2095 75.1702 17.2095Z" fill="#0B101B"/>
<path d="M61.6087 12.0576H59.6885V3.2972H57.0423V19.3639H59.6885V14.3759H61.7727L65.0277 19.3639H68.1189L63.9037 12.9006L67.791 7.02274H64.7936L61.6087 12.0576Z" fill="#0B101B"/>
<path d="M35.6286 6.98768H32.4676V3.2972H31.6507L27.8092 8.51656V9.19148H29.7819V15.2997C29.7819 16.7416 30.1067 17.7794 30.7563 18.4132C31.4218 19.047 32.523 19.3639 34.06 19.3639H35.5335V17.0347H34.2976C33.5846 17.0347 33.1014 16.8604 32.8478 16.5118C32.5943 16.1632 32.4676 15.6324 32.4676 14.9194V9.19148H35.6286V6.98768Z" fill="#0B101B"/>
<path d="M24.3092 18.1983L20.0542 12.4174C19.592 11.7892 18.9075 11.4129 18.1786 11.3299C18.0127 11.3107 17.8645 11.2144 17.7816 11.0692C17.6971 10.924 17.6882 10.7477 17.7549 10.5936C18.0468 9.92098 18.0645 9.14022 17.7504 8.42612L14.8718 1.85109C14.4452 0.874767 13.4807 0.245117 12.4155 0.245117C11.3502 0.245117 10.3858 0.876248 9.95909 1.85109L7.08048 8.42612C6.76787 9.14022 6.78417 9.92098 7.07603 10.5936C7.1427 10.7477 7.13233 10.924 7.04937 11.0692C6.96492 11.2144 6.81824 11.3107 6.65231 11.3299C5.9234 11.4129 5.23894 11.7892 4.7767 12.4174L0.521748 18.1983C-0.109383 19.0561 -0.17309 20.2058 0.358779 21.1288C0.89213 22.0503 1.92031 22.5703 2.97812 22.4532L10.1117 21.6591C10.8865 21.5732 11.5547 21.1688 11.9903 20.5791C12.0895 20.4443 12.2481 20.3643 12.4155 20.3643C12.5829 20.3643 12.7399 20.4443 12.8407 20.5791C13.2762 21.1688 13.9444 21.5732 14.7192 21.6591L21.8528 22.4532C22.9106 22.5718 23.9388 22.0518 24.4722 21.1288C25.004 20.2058 24.9403 19.0561 24.3092 18.1983ZM8.94128 9.25133L11.8243 2.6689C11.928 2.43334 12.1606 2.28074 12.4169 2.28074C12.6732 2.28074 12.9058 2.43334 13.0096 2.6689L15.8926 9.25133C15.983 9.45875 15.9637 9.69875 15.8393 9.88839C15.7148 10.078 15.5045 10.1921 15.2763 10.1921H9.55611C9.32944 10.1921 9.11758 10.078 8.99313 9.88839C8.86868 9.69875 8.84942 9.45875 8.93979 9.25133H8.94128ZM10.4213 19.2724C10.3191 19.4754 10.1206 19.6117 9.89538 19.6369L2.75441 20.431C2.49959 20.4591 2.25069 20.3347 2.1218 20.1124C1.9929 19.8902 2.0092 19.6132 2.1618 19.4057L6.42119 13.6189C6.55601 13.4367 6.77232 13.3329 6.99899 13.3463C7.22567 13.3581 7.43012 13.4841 7.54419 13.6811L7.54864 13.6885L10.4006 18.6279L10.405 18.6353C10.5191 18.8324 10.525 19.0724 10.4228 19.2739L10.4213 19.2724ZM13.0021 17.0383C12.8807 17.2471 12.6584 17.3775 12.4155 17.3775C12.174 17.3775 11.9503 17.2486 11.8288 17.0397L9.6376 13.2455C9.51611 13.0366 9.51611 12.7774 9.6376 12.5685C9.75908 12.3596 9.98131 12.2292 10.2243 12.2292H14.6052C14.8467 12.2292 15.0704 12.3566 15.1919 12.567C15.3133 12.7774 15.3133 13.0352 15.1919 13.2441L13.0021 17.0383ZM22.7106 20.1124C22.5817 20.3347 22.3343 20.4606 22.078 20.4324L14.937 19.6383C14.7118 19.6132 14.5133 19.4768 14.4111 19.2739C14.3089 19.0709 14.3148 18.8309 14.4289 18.6353L14.4333 18.6279L17.2853 13.6885L17.2897 13.6811C17.4038 13.4841 17.6082 13.3581 17.8349 13.3463C18.0616 13.3344 18.2779 13.4367 18.4127 13.6189L22.6721 19.4057C22.8247 19.6132 22.8395 19.8902 22.7121 20.1124H22.7106Z" fill="#E81899"/>
<path d="M167.679 19.3636V2.81876H169.223V9.09035C169.441 8.71593 169.699 8.39611 169.995 8.13089C170.307 7.86567 170.658 7.63166 171.048 7.42885C171.438 7.24163 171.86 7.10903 172.312 7.03102C172.78 6.93741 173.248 6.89061 173.716 6.89061C174.371 6.89061 174.956 6.98422 175.471 7.17143C175.986 7.35864 176.423 7.60826 176.782 7.92028C177.375 8.41951 177.788 9.06695 178.022 9.8626C178.256 10.6582 178.373 11.5475 178.373 12.5304V19.3636H176.829V13.092C176.829 12.3588 176.766 11.6567 176.641 10.9859C176.532 10.2994 176.283 9.71439 175.892 9.23076C175.627 8.91874 175.3 8.66912 174.91 8.48191C174.52 8.2947 174.028 8.20109 173.435 8.20109C172.796 8.20109 172.203 8.3337 171.657 8.59892C171.126 8.84853 170.682 9.19176 170.323 9.62858C169.933 10.0966 169.652 10.6348 169.48 11.2433C169.309 11.8517 169.223 12.4914 169.223 13.1622V19.3636H167.679Z" fill="#0B101B"/>
<path d="M161.755 7.03093H165.195V8.34141H161.755V15.2682C161.755 15.6895 161.794 16.1341 161.872 16.6021C161.966 17.0702 162.208 17.429 162.598 17.6786C162.801 17.8034 163.042 17.897 163.323 17.9594C163.604 18.0062 163.877 18.0296 164.142 18.0296H165.078V19.3635H164.002C163.471 19.3635 162.941 19.3011 162.411 19.1763C161.896 19.0515 161.443 18.7941 161.053 18.404C160.757 18.092 160.538 17.6786 160.398 17.1638C160.273 16.6333 160.211 16.0327 160.211 15.3619V8.34141H158.128V7.03093H160.211V3.49731H161.755V7.03093Z" fill="#0B101B"/>
<path d="M146.564 13.7004C146.595 14.3556 146.705 14.9563 146.892 15.5023C147.095 16.0483 147.376 16.5242 147.734 16.9298C148.093 17.3198 148.53 17.6318 149.045 17.8658C149.575 18.0843 150.191 18.1935 150.894 18.1935C151.221 18.1935 151.549 18.1623 151.876 18.0999C152.22 18.0374 152.539 17.9438 152.836 17.819C153.148 17.6786 153.429 17.4992 153.678 17.2808C153.928 17.0624 154.123 16.7894 154.263 16.4618H155.878C155.706 17.0078 155.441 17.4758 155.082 17.8658C154.739 18.2559 154.341 18.5757 153.889 18.8253C153.437 19.0593 152.945 19.2309 152.415 19.3401C151.884 19.4493 151.354 19.5039 150.823 19.5039C149.856 19.5039 149.006 19.3479 148.273 19.0359C147.555 18.7239 146.954 18.2949 146.471 17.7488C145.987 17.1872 145.628 16.5242 145.394 15.7597C145.16 14.9797 145.043 14.1294 145.043 13.2089C145.043 12.2729 145.168 11.4148 145.418 10.6348C145.667 9.85474 146.034 9.1917 146.517 8.64566C147.017 8.08403 147.625 7.655 148.343 7.35858C149.076 7.04656 149.911 6.89055 150.847 6.89055C151.83 6.89055 152.656 7.08556 153.327 7.47559C154.014 7.86561 154.568 8.38045 154.989 9.02009C155.41 9.64412 155.706 10.3696 155.878 11.1964C156.065 12.0077 156.143 12.8423 156.112 13.7004H146.564ZM154.544 12.4133C154.529 11.8517 154.435 11.3134 154.263 10.7986C154.107 10.2838 153.866 9.83914 153.538 9.46471C153.226 9.07469 152.828 8.77047 152.344 8.55206C151.861 8.31804 151.299 8.20103 150.66 8.20103C150.02 8.20103 149.45 8.31804 148.951 8.55206C148.468 8.78607 148.054 9.09809 147.711 9.48812C147.368 9.87814 147.103 10.3306 146.915 10.8454C146.728 11.3446 146.619 11.8673 146.588 12.4133H154.544Z" fill="#0B101B"/>
<path d="M131.525 19.3635V7.03096H133.023L133.07 9.13709C133.288 8.76267 133.561 8.43505 133.889 8.15423C134.216 7.85781 134.56 7.6238 134.918 7.45219C135.324 7.24938 135.737 7.10897 136.159 7.03096C136.595 6.93736 137.063 6.89055 137.563 6.89055C138.234 6.89055 138.819 6.98416 139.318 7.17137C139.833 7.35858 140.269 7.6082 140.628 7.92022C141.221 8.41945 141.635 9.06689 141.869 9.86254C142.103 10.6582 142.22 11.5474 142.22 12.5303V19.3635H140.675V13.0919C140.675 12.3587 140.613 11.6566 140.488 10.9858C140.379 10.2994 140.129 9.71433 139.739 9.2307C139.474 8.91868 139.146 8.66906 138.756 8.48185C138.366 8.29464 137.875 8.20103 137.282 8.20103C136.642 8.20103 136.057 8.33364 135.527 8.59886C134.996 8.86408 134.552 9.2073 134.193 9.62852C133.787 10.0966 133.499 10.6348 133.327 11.2432C133.155 11.8517 133.07 12.4913 133.07 13.1621V19.3635H131.525Z" fill="#0B101B"/>
<path d="M128.167 7.03093V19.3635C128.167 20.3308 128.065 21.1498 127.862 21.8207C127.66 22.5071 127.316 23.1155 126.833 23.646C126.302 24.2232 125.663 24.6132 124.914 24.816C124.165 25.0189 123.416 25.1203 122.667 25.1203C121.825 25.1203 120.967 24.9954 120.093 24.7458C119.22 24.4962 118.455 24.0984 117.8 23.5524L118.478 22.2887C119.103 22.7567 119.766 23.1155 120.468 23.3651C121.185 23.6304 121.918 23.763 122.667 23.763C123.385 23.763 123.993 23.6616 124.493 23.4588C124.992 23.2559 125.405 22.9673 125.733 22.5929C126.061 22.2185 126.287 21.7504 126.412 21.1888C126.552 20.6272 126.622 20.0109 126.622 19.3401V17.4914C126.388 17.8658 126.1 18.1856 125.756 18.4508C125.429 18.7161 125.07 18.9345 124.68 19.1061C124.29 19.2621 123.876 19.3713 123.44 19.4337C123.018 19.5117 122.597 19.5507 122.176 19.5507C121.333 19.5507 120.608 19.4181 120 19.1529C119.407 18.8877 118.931 18.5444 118.572 18.1232C118.12 17.624 117.808 16.9843 117.636 16.2043C117.48 15.4243 117.402 14.5896 117.402 13.7003V7.03093H118.947V13.1153C118.947 13.8174 118.978 14.5038 119.04 15.1746C119.118 15.8455 119.313 16.4149 119.625 16.8829C119.89 17.2886 120.257 17.6162 120.725 17.8658C121.209 18.0998 121.809 18.209 122.527 18.1934C123.416 18.1778 124.142 17.9828 124.703 17.6084C125.28 17.2184 125.725 16.7035 126.037 16.0639C126.256 15.6115 126.404 15.12 126.482 14.5896C126.575 14.0592 126.622 13.5131 126.622 12.9515V7.03093H128.167Z" fill="#0B101B"/>
<path d="M110.491 18.0764L113.556 7.03093H115.311L111.567 19.3635H109.391L106.161 8.27121L102.932 19.3635H100.732L96.9413 7.03093H98.6964L101.832 18.0764L104.968 7.03093H107.355L110.491 18.0764Z" fill="#0B101B"/>
<path d="M93.4011 7.03096H94.852V18.9657C94.852 19.9954 94.7506 20.869 94.5478 21.5867C94.3449 22.3199 94.0173 22.944 93.5649 23.4588C93.1281 23.9892 92.5508 24.3948 91.8332 24.6757C91.1311 24.9565 90.2809 25.0969 89.2824 25.0969C88.674 25.0969 88.0968 25.0345 87.5507 24.9097C87.0047 24.8005 86.5055 24.6133 86.053 24.348C85.6162 24.0828 85.234 23.7396 84.9064 23.3184C84.5943 22.9128 84.3603 22.4135 84.2043 21.8207H85.7956C85.9204 22.1951 86.1076 22.5071 86.3572 22.7567C86.6225 23.0064 86.9189 23.2014 87.2465 23.3418C87.5741 23.4978 87.9173 23.607 88.2762 23.6694C88.6506 23.7474 89.0172 23.7864 89.376 23.7864C90.1717 23.7864 90.8191 23.6616 91.3184 23.412C91.8332 23.178 92.231 22.8425 92.5118 22.4057C92.8082 21.9689 93.0111 21.4541 93.1203 20.8612C93.2451 20.284 93.3075 19.6443 93.3075 18.9423V17.3978C92.7926 18.1467 92.153 18.6849 91.3886 19.0125C90.6397 19.3401 89.7973 19.5039 88.8612 19.5039C87.8783 19.5039 87.0281 19.3245 86.3104 18.9657C85.6084 18.6069 85.039 18.1233 84.6021 17.5148C84.1809 16.9064 83.8689 16.2043 83.6661 15.4087C83.4789 14.5974 83.4009 13.755 83.4321 12.8813C83.4477 12.0233 83.5803 11.2354 83.8299 10.5178C84.0951 9.78453 84.4617 9.15269 84.9298 8.62226C85.3978 8.07623 85.9828 7.655 86.6849 7.35858C87.3869 7.04656 88.1904 6.89055 89.0952 6.89055C89.9533 6.89055 90.7489 7.03876 91.4822 7.33518C92.2154 7.6316 92.8238 8.11523 93.3075 8.78607L93.4011 7.03096ZM89.0718 8.20103C88.3386 8.20103 87.7145 8.34144 87.1997 8.62226C86.6849 8.88748 86.2636 9.2541 85.936 9.72213C85.6084 10.1746 85.3666 10.6972 85.2106 11.29C85.0546 11.8829 84.9766 12.5069 84.9766 13.1621C84.9766 13.8486 85.0468 14.496 85.1872 15.1045C85.3432 15.7129 85.585 16.2433 85.9126 16.6958C86.2402 17.1482 86.6615 17.5148 87.1763 17.7956C87.7067 18.0609 88.3542 18.1935 89.1186 18.1935C89.8051 18.1935 90.4213 18.0452 90.9673 17.7488C91.529 17.4368 91.9892 17.0468 92.348 16.5788C92.7068 16.1107 92.9643 15.5881 93.1203 15.0109C93.2763 14.418 93.3543 13.8018 93.3543 13.1621C93.3543 12.3977 93.2295 11.641 92.9799 10.8922C92.7458 10.1278 92.309 9.50372 91.6694 9.02009C90.9361 8.47405 90.0703 8.20103 89.0718 8.20103Z" fill="#0B101B"/>
</svg>
