<svg width="278" height="67" viewBox="0 0 278 67" fill="none" xmlns="http://www.w3.org/2000/svg">
<path d="M276 33.5C276 36.9456 273.042 40.839 266.087 44.802C259.287 48.6764 249.315 52.2322 236.819 55.2437C211.859 61.2593 177.274 65 139 65C100.726 65 66.1409 61.2593 41.1808 55.2437C28.685 52.2322 18.713 48.6764 11.9135 44.802C4.95837 40.839 2 36.9456 2 33.5C2 30.0544 4.95837 26.161 11.9135 22.198C18.713 18.3236 28.685 14.7678 41.1808 11.7563C66.1409 5.74068 100.726 2 139 2C177.274 2 211.859 5.74068 236.819 11.7563C249.315 14.7678 259.287 18.3236 266.087 22.198C273.042 26.161 276 30.0544 276 33.5Z" stroke="#E81899" stroke-width="4"/>
</svg>
