<svg width="126" height="120" viewBox="0 0 126 120" fill="none" xmlns="http://www.w3.org/2000/svg">
<path d="M62.1872 7.91113L61.296 8.39563L57.703 10.3584L56.7623 10.8711V11.9462L56.7305 70.6196V71.6629L57.6323 72.1863L97.4386 95.2334L98.344 95.7568L99.2493 95.2334L102.871 93.1433L103.776 92.6235V91.5767L103.808 47.622V47.1375L103.564 46.7167L90.8891 24.7624L90.6486 24.3451L90.2278 24.0975L63.0678 8.41685L62.1872 7.91113ZM62.1554 10.5069L88.4171 25.6677L85.6976 27.2343L59.4924 11.9604L62.1554 10.5069ZM59.0256 12.7384L85.2485 28.0194V42.3951C85.2484 42.4747 85.2693 42.5529 85.309 42.6218C85.3487 42.6907 85.4059 42.7479 85.4748 42.7877L97.9231 49.9702L97.8913 92.8816L58.9938 70.3579L59.0256 12.7384ZM89.1563 26.2866L101.378 47.4558L98.542 49.0932L86.32 27.924L89.1563 26.2866ZM86.1538 29.4482L97.138 48.4743L86.1538 42.1334V29.4482ZM65.7484 38.8056C65.6346 38.8146 65.5284 38.8662 65.451 38.9501C65.3736 39.0341 65.3308 39.1441 65.3311 39.2583V43.4384C65.331 43.5179 65.3519 43.5961 65.3917 43.665C65.4314 43.7339 65.4886 43.7912 65.5575 43.8309L90.9068 58.4648C90.9754 58.5044 91.0532 58.5253 91.1324 58.5254C91.2116 58.5256 91.2894 58.5049 91.3581 58.4655C91.4269 58.4262 91.4841 58.3694 91.524 58.3011C91.564 58.2327 91.5853 58.155 91.5858 58.0758V53.8922C91.5853 53.8132 91.5641 53.7358 91.5244 53.6675C91.4847 53.5993 91.4278 53.5426 91.3595 53.5032L66.0101 38.8658C65.931 38.8197 65.8397 38.7987 65.7484 38.8056ZM66.2365 40.0434L90.6805 54.1539V57.2907L66.2365 43.1767V40.0434ZM101.544 48.4071L101.513 91.315L98.7966 92.8816L98.8285 49.9738L101.544 48.4071ZM65.7484 49.2594C65.6346 49.2683 65.5284 49.3199 65.451 49.4039C65.3736 49.4878 65.3308 49.5979 65.3311 49.7121V53.8922C65.331 53.9717 65.3519 54.0499 65.3917 54.1188C65.4314 54.1877 65.4886 54.2449 65.5575 54.2847L85.4748 65.7853C85.5437 65.825 85.6218 65.8459 85.7013 65.8459C85.7808 65.8459 85.8588 65.8249 85.9277 65.7851C85.9965 65.7453 86.0536 65.6881 86.0933 65.6192C86.133 65.5503 86.1539 65.4722 86.1538 65.3927V61.2091C86.1533 61.1301 86.1321 61.0527 86.0924 60.9845C86.0527 60.9162 85.9958 60.8596 85.9275 60.8201L66.0101 49.3195C65.931 49.2735 65.8397 49.2525 65.7484 49.2594ZM66.2365 50.4936L85.2485 61.4708V64.6076L66.2365 53.6305V50.4936ZM65.7484 59.7132C65.6346 59.7221 65.5284 59.7737 65.451 59.8577C65.3736 59.9416 65.3308 60.0517 65.3311 60.1658V64.3459C65.331 64.4255 65.3519 64.5037 65.3917 64.5726C65.4314 64.6415 65.4886 64.6987 65.5575 64.7385L90.9068 79.3723C90.9754 79.4119 91.0532 79.4328 91.1324 79.433C91.2116 79.4331 91.2894 79.4124 91.3581 79.3731C91.4269 79.3337 91.4841 79.277 91.524 79.2086C91.564 79.1402 91.5853 79.0625 91.5858 78.9833V74.7997C91.5853 74.7208 91.5641 74.6433 91.5244 74.5751C91.4847 74.5068 91.4278 74.4502 91.3595 74.4107L66.0101 59.7733C65.931 59.7272 65.8397 59.7063 65.7484 59.7132ZM66.2365 60.9509L90.6805 75.0614V78.1982L66.2365 64.0842V60.9509Z" fill="#BBBBBB"/>
<path d="M46.1989 14L41.5322 16.8V75.6L82.5989 98.9333L86.7989 96.6V52.2667L73.7322 29.8667L46.1989 14Z" fill="white"/>
<path d="M46.3181 12.5771L45.4269 13.0616L41.8339 15.0244L40.8932 15.5372V16.6122L40.8613 75.2856V76.3289L41.7631 76.8523L81.5695 99.8994L82.4748 100.423L83.3802 99.8994L87.0015 97.8093L87.9068 97.2895V96.2427L87.9387 52.288V51.8035L87.6946 51.3827L75.02 29.4284L74.7795 29.0111L74.3587 28.7635L47.1987 13.0829L46.3181 12.5771ZM46.2863 15.1729L72.548 30.3337L69.8285 31.9004L43.6233 16.6264L46.2863 15.1729ZM43.1565 17.4044L69.3793 32.6855V47.0612C69.3792 47.1407 69.4001 47.2189 69.4398 47.2878C69.4796 47.3567 69.5368 47.4139 69.6057 47.4537L82.054 54.6362L82.0222 97.5476L43.1247 75.0239L43.1565 17.4044ZM73.2871 30.9526L85.5091 52.1218L82.6729 53.7592L70.4509 32.59L73.2871 30.9526ZM70.2847 34.1142L81.2689 53.1403L70.2847 46.7995V34.1142ZM49.8793 43.4716C49.7655 43.4806 49.6592 43.5322 49.5819 43.6161C49.5045 43.7001 49.4617 43.8101 49.462 43.9243V48.1044C49.4619 48.184 49.4828 48.2621 49.5225 48.331C49.5622 48.3999 49.6194 48.4572 49.6883 48.497L75.0377 63.1308C75.1063 63.1704 75.184 63.1913 75.2632 63.1914C75.3424 63.1916 75.4203 63.1709 75.489 63.1315C75.5577 63.0922 75.6149 63.0355 75.6549 62.9671C75.6948 62.8987 75.7161 62.821 75.7167 62.7418V58.5582C75.7161 58.4792 75.695 58.4018 75.6553 58.3336C75.6156 58.2653 75.5587 58.2086 75.4903 58.1692L50.141 43.5318C50.0618 43.4857 49.9706 43.4648 49.8793 43.4716ZM50.3673 44.7094L74.8113 58.8199V61.9567L50.3673 47.8427V44.7094ZM85.6753 53.0731L85.6435 95.981L82.9275 97.5476L82.9593 54.6398L85.6753 53.0731ZM49.8793 53.9254C49.7655 53.9343 49.6592 53.986 49.5819 54.0699C49.5045 54.1538 49.4617 54.2639 49.462 54.3781V58.5582C49.4619 58.6377 49.4828 58.7159 49.5225 58.7848C49.5622 58.8537 49.6194 58.9109 49.6883 58.9507L69.6057 70.4513C69.6745 70.491 69.7526 70.5119 69.8321 70.5119C69.9116 70.5119 69.9897 70.4909 70.0585 70.4511C70.1274 70.4113 70.1845 70.3541 70.2242 70.2852C70.2639 70.2164 70.2847 70.1382 70.2847 70.0587V65.8751C70.2841 65.7962 70.263 65.7187 70.2233 65.6505C70.1836 65.5822 70.1267 65.5256 70.0583 65.4861L50.141 53.9855C50.0618 53.9395 49.9706 53.9185 49.8793 53.9254ZM50.3673 55.1596L69.3793 66.1368V69.2736L50.3673 58.2965V55.1596ZM49.8793 64.3792C49.7655 64.3881 49.6592 64.4397 49.5819 64.5237C49.5045 64.6076 49.4617 64.7177 49.462 64.8319V69.012C49.4619 69.0915 49.4828 69.1697 49.5225 69.2386C49.5622 69.3075 49.6194 69.3647 49.6883 69.4045L75.0377 84.0384C75.1063 84.0779 75.184 84.0989 75.2632 84.099C75.3424 84.0991 75.4203 84.0785 75.489 84.0391C75.5577 83.9997 75.6149 83.943 75.6549 83.8746C75.6948 83.8062 75.7161 83.7286 75.7167 83.6494V79.4657C75.7161 79.3868 75.695 79.3093 75.6553 79.2411C75.6156 79.1729 75.5587 79.1162 75.4903 79.0767L50.141 64.4393C50.0618 64.3933 49.9706 64.3723 49.8793 64.3792ZM50.3673 65.617L74.8113 79.7274V82.8643L50.3673 68.7503V65.617Z" fill="#22282B"/>
<path d="M30.3307 21.4668L25.6641 24.2668V83.0668L66.7307 106.4L70.9307 104.067V59.7335L57.8641 37.3335L30.3307 21.4668Z" fill="white"/>
<path d="M30.4494 20.042L29.5582 20.5265L25.9652 22.4892L25.0245 23.002V24.0771L24.9927 82.7505V83.7937L25.8945 84.3171L65.7008 107.364L66.6062 107.888L67.5115 107.364L71.1328 105.274L72.0382 104.754V103.708L72.07 59.7529V59.2684L71.826 58.8476L59.1513 36.8932L58.9108 36.4759L58.49 36.2284L31.33 20.5477L30.4494 20.042ZM30.4176 22.6378L56.6793 37.7985L53.9598 39.3652L27.7546 24.0912L30.4176 22.6378ZM27.2878 24.8693L53.5107 40.1503V54.526C53.5106 54.6055 53.5315 54.6837 53.5712 54.7526C53.6109 54.8215 53.6681 54.8788 53.737 54.9185L66.1853 62.1011L66.1535 105.012L27.256 82.4888L27.2878 24.8693ZM57.4185 38.4174L69.6405 59.5867L66.8042 61.2241L54.5822 40.0548L57.4185 38.4174ZM54.416 41.579L65.4002 60.6052L54.416 54.2643V41.579ZM34.0106 50.9365C33.8968 50.9454 33.7906 50.997 33.7132 51.081C33.6358 51.1649 33.593 51.275 33.5933 51.3892V55.5693C33.5933 55.6488 33.6141 55.727 33.6539 55.7959C33.6936 55.8648 33.7508 55.922 33.8197 55.9618L59.169 70.5957C59.2376 70.6353 59.3154 70.6562 59.3946 70.6563C59.4738 70.6564 59.5516 70.6358 59.6204 70.5964C59.6891 70.557 59.7463 70.5003 59.7862 70.4319C59.8262 70.3635 59.8475 70.2859 59.848 70.2067V66.023C59.8475 65.9441 59.8263 65.8666 59.7866 65.7984C59.7469 65.7302 59.69 65.6735 59.6217 65.634L34.2723 50.9966C34.1932 50.9506 34.1019 50.9296 34.0106 50.9365ZM34.4987 52.1743L58.9427 66.2847V69.4216L34.4987 55.3076V52.1743ZM69.8067 60.538L69.7748 103.446L67.0588 105.012L67.0907 62.1046L69.8067 60.538ZM34.0106 61.3903C33.8968 61.3992 33.7906 61.4508 33.7132 61.5347C33.6358 61.6187 33.593 61.7288 33.5933 61.8429V66.023C33.5933 66.1026 33.6141 66.1807 33.6539 66.2496C33.6936 66.3186 33.7508 66.3758 33.8197 66.4156L53.737 77.9161C53.8059 77.9559 53.884 77.9768 53.9635 77.9767C54.043 77.9767 54.1211 77.9557 54.1899 77.916C54.2587 77.8762 54.3158 77.819 54.3555 77.7501C54.3952 77.6812 54.4161 77.6031 54.416 77.5236V73.34C54.4155 73.261 54.3943 73.1836 54.3546 73.1153C54.3149 73.0471 54.258 72.9904 54.1897 72.951L34.2723 61.4504C34.1932 61.4043 34.1019 61.3834 34.0106 61.3903ZM34.4987 62.6245L53.5107 73.6017V76.7385L34.4987 65.7613V62.6245ZM34.0106 71.844C33.8968 71.853 33.7906 71.9046 33.7132 71.9885C33.6358 72.0725 33.593 72.1825 33.5933 72.2967V76.4768C33.5933 76.5563 33.6141 76.6345 33.6539 76.7034C33.6936 76.7723 33.7508 76.8296 33.8197 76.8693L59.169 91.5032C59.2376 91.5428 59.3154 91.5637 59.3946 91.5638C59.4738 91.5639 59.5516 91.5433 59.6204 91.5039C59.6891 91.4646 59.7463 91.4078 59.7862 91.3395C59.8262 91.2711 59.8475 91.1934 59.848 91.1142V86.9306C59.8475 86.8516 59.8263 86.7742 59.7866 86.7059C59.7469 86.6377 59.69 86.581 59.6217 86.5416L34.2723 71.9042C34.1932 71.8581 34.1019 71.8372 34.0106 71.844ZM34.4987 73.0818L58.9427 87.1923V90.3291L34.4987 76.2151V73.0818Z" fill="#6321B6"/>
<g clip-path="url(#clip0_289_10120)">
<path d="M22.9483 26.3463L22.9483 26.3463C22.3348 25.3542 21.4512 24.4195 20.2826 23.5464L20.2804 23.5447C19.2697 22.7808 18.2751 22.2721 17.2966 22.003L22.9483 26.3463ZM22.9483 26.3463L22.9499 26.3489M22.9483 26.3463L22.9499 26.3489M22.9499 26.3489C23.4805 27.1956 23.8281 27.9767 24.007 28.6936M22.9499 26.3489L32.7011 22.0008M17.2792 19.9521L17.2792 19.9521C18.2526 19.6742 19.1958 19.2216 20.1093 18.5892C21.1581 17.8589 22.0312 16.9851 22.732 15.9672C23.3568 15.0531 23.7759 14.1633 24.0016 13.2973C24.0016 13.2973 24.0016 13.2973 24.0016 13.2973L24.4854 13.4234L17.2792 19.9521ZM17.2792 19.9521C16.8347 20.079 16.4985 20.4835 16.4985 20.9736C16.4985 21.4747 16.8483 21.8798 17.2965 22.003L17.2792 19.9521ZM32.7011 22.0008L32.7011 22.0008C32.1192 22.1604 31.5105 22.4203 30.8748 22.7865C30.1028 23.2392 29.3833 23.7787 28.7159 24.406L28.7121 24.4097L28.712 24.4096C28.0463 25.0222 27.5067 25.6621 27.0887 26.3282C26.5576 27.1758 26.2098 27.9627 26.0311 28.6904L26.0311 28.6904C25.9212 29.1377 25.5235 29.5 25.0189 29.5C24.515 29.5 24.1182 29.1389 24.007 28.6936M32.7011 22.0008C33.1458 21.8789 33.4985 21.4773 33.4985 20.975C33.4985 20.4814 33.1564 20.0789 32.7119 19.9554C31.7813 19.6967 30.8557 19.2456 29.9346 18.5928C29.228 18.0861 28.589 17.5204 28.017 16.8958C27.4599 16.2584 27.0057 15.5988 26.6515 14.9172L32.7011 22.0008ZM24.007 28.6936L24.4921 28.5725M24.007 28.6936C24.007 28.6936 24.007 28.6936 24.007 28.6936L24.4921 28.5725M24.4921 28.5725C24.5532 28.8173 24.7665 29 25.0189 29C25.2716 29 25.4852 28.8166 25.5455 28.5711L24.4921 28.5725Z" fill="#6321B6" stroke="white"/>
</g>
<g opacity="0.2">
<g opacity="0.4" filter="url(#filter0_f_289_10120)">
<ellipse cx="16.9131" cy="14.5366" rx="16.9131" ry="14.5366" transform="matrix(0.0718336 0.997417 -0.975421 -0.22035 64.4951 44.3418)" fill="#77FFEF"/>
</g>
<g opacity="0.3" filter="url(#filter1_f_289_10120)">
<ellipse cx="16.9131" cy="14.5366" rx="16.9131" ry="14.5366" transform="matrix(0.0718336 0.997417 -0.975421 -0.22035 58.7271 31.6523)" fill="#77FFEF"/>
</g>
<g opacity="0.4" filter="url(#filter2_f_289_10120)">
<ellipse cx="16.9131" cy="14.5366" rx="16.9131" ry="14.5366" transform="matrix(0.0718336 0.997417 -0.975421 -0.22035 47.522 46.8652)" fill="#FFD977"/>
</g>
<g opacity="0.4" filter="url(#filter3_f_289_10120)">
<ellipse cx="16.9131" cy="14.5366" rx="16.9131" ry="14.5366" transform="matrix(0.0718336 0.997417 -0.975421 -0.22035 60.1968 68.7109)" fill="#D7A5FF"/>
</g>
</g>
<defs>
<filter id="filter0_f_289_10120" x="16.9691" y="20.5043" width="69.1233" height="75.0071" filterUnits="userSpaceOnUse" color-interpolation-filters="sRGB">
<feFlood flood-opacity="0" result="BackgroundImageFix"/>
<feBlend mode="normal" in="SourceGraphic" in2="BackgroundImageFix" result="shape"/>
<feGaussianBlur stdDeviation="10.1649" result="effect1_foregroundBlur_289_10120"/>
</filter>
<filter id="filter1_f_289_10120" x="11.201" y="7.81482" width="69.1233" height="75.0071" filterUnits="userSpaceOnUse" color-interpolation-filters="sRGB">
<feFlood flood-opacity="0" result="BackgroundImageFix"/>
<feBlend mode="normal" in="SourceGraphic" in2="BackgroundImageFix" result="shape"/>
<feGaussianBlur stdDeviation="10.1649" result="effect1_foregroundBlur_289_10120"/>
</filter>
<filter id="filter2_f_289_10120" x="-0.00403023" y="23.0277" width="69.1233" height="75.0071" filterUnits="userSpaceOnUse" color-interpolation-filters="sRGB">
<feFlood flood-opacity="0" result="BackgroundImageFix"/>
<feBlend mode="normal" in="SourceGraphic" in2="BackgroundImageFix" result="shape"/>
<feGaussianBlur stdDeviation="10.1649" result="effect1_foregroundBlur_289_10120"/>
</filter>
<filter id="filter3_f_289_10120" x="12.6708" y="44.8734" width="69.1233" height="75.0071" filterUnits="userSpaceOnUse" color-interpolation-filters="sRGB">
<feFlood flood-opacity="0" result="BackgroundImageFix"/>
<feBlend mode="normal" in="SourceGraphic" in2="BackgroundImageFix" result="shape"/>
<feGaussianBlur stdDeviation="10.1649" result="effect1_foregroundBlur_289_10120"/>
</filter>
<clipPath id="clip0_289_10120">
<rect width="18" height="20" fill="white" transform="translate(15.9961 11)"/>
</clipPath>
</defs>
</svg>
