<svg width="1476" height="659" viewBox="0 0 1476 659" fill="none" xmlns="http://www.w3.org/2000/svg" preserveAspectRatio="none">
<g opacity="0.12">
<line y1="-0.5" x2="1277" y2="-0.5" transform="matrix(1 -9.26334e-08 -8.25052e-08 -1 100 56)" stroke="black"/>
<line y1="-0.5" x2="1277" y2="-0.5" transform="matrix(1 -9.26334e-08 -8.25052e-08 -1 100 120)" stroke="black"/>
<line y1="-0.5" x2="1277" y2="-0.5" transform="matrix(1 -9.26334e-08 -8.25052e-08 -1 100 504)" stroke="black"/>
<line y1="-0.5" x2="1514" y2="-0.5" transform="matrix(1 8.74228e-08 8.74228e-08 -1 -18 600)" stroke="black"/>
<line y1="-0.5" x2="931" y2="-0.5" transform="matrix(6.48393e-08 1 1 -2.9468e-08 101 -162)" stroke="black"/>
<line y1="-0.5" x2="931" y2="-0.5" transform="matrix(6.48393e-08 1 1 -2.9468e-08 1377 -162)" stroke="black"/>
<line y1="-0.5" x2="128" y2="-0.5" transform="matrix(7.62592e-08 1 1 -2.50552e-08 333 -72)" stroke="black"/>
<line y1="-0.5" x2="763" y2="-0.5" transform="matrix(6.48393e-08 1 1 -2.9468e-08 1261 -162)" stroke="black"/>
<line y1="-0.5" x2="763" y2="-0.5" transform="matrix(6.48393e-08 1 1 -2.9468e-08 217 -162)" stroke="black"/>
<line y1="-0.5" x2="128" y2="-0.5" transform="matrix(7.62592e-08 1 1 -2.50552e-08 1145 -72)" stroke="black"/>
<g clip-path="url(#clip0_289_8934)">
<mask id="path-11-inside-1_289_8934" fill="white">
<path d="M1376 505H1495V120H1376V505Z"/>
</mask>
<line y1="-0.5" x2="215.688" y2="-0.5" transform="matrix(0.906308 0.422618 0.422618 -0.906308 1315.86 459.423)" stroke="black"/>
<line y1="-0.5" x2="215.688" y2="-0.5" transform="matrix(0.906308 0.422618 0.422618 -0.906308 1315.86 228.034)" stroke="black"/>
<line y1="-0.5" x2="215.688" y2="-0.5" transform="matrix(0.906308 0.422618 0.422618 -0.906308 1315.86 343.729)" stroke="black"/>
<line y1="-0.5" x2="215.688" y2="-0.5" transform="matrix(0.906308 0.422618 0.422618 -0.906308 1315.86 112.34)" stroke="black"/>
<line y1="-0.5" x2="215.688" y2="-0.5" transform="matrix(0.906308 0.422618 0.422618 -0.906308 1315.86 442.896)" stroke="black"/>
<line y1="-0.5" x2="215.688" y2="-0.5" transform="matrix(0.906308 0.422618 0.422618 -0.906308 1315.86 211.507)" stroke="black"/>
<line y1="-0.5" x2="215.688" y2="-0.5" transform="matrix(0.906308 0.422618 0.422618 -0.906308 1315.86 327.201)" stroke="black"/>
<line y1="-0.5" x2="215.688" y2="-0.5" transform="matrix(0.906308 0.422618 0.422618 -0.906308 1315.86 95.812)" stroke="black"/>
<line y1="-0.5" x2="215.688" y2="-0.5" transform="matrix(0.906308 0.422618 0.422618 -0.906308 1315.86 426.368)" stroke="black"/>
<line y1="-0.5" x2="215.688" y2="-0.5" transform="matrix(0.906308 0.422618 0.422618 -0.906308 1315.86 194.979)" stroke="black"/>
<line y1="-0.5" x2="215.688" y2="-0.5" transform="matrix(0.906308 0.422618 0.422618 -0.906308 1315.86 310.673)" stroke="black"/>
<line y1="-0.5" x2="215.688" y2="-0.5" transform="matrix(0.906308 0.422618 0.422618 -0.906308 1315.86 79.2842)" stroke="black"/>
<line y1="-0.5" x2="215.688" y2="-0.5" transform="matrix(0.906308 0.422618 0.422618 -0.906308 1315.86 409.84)" stroke="black"/>
<line y1="-0.5" x2="215.688" y2="-0.5" transform="matrix(0.906308 0.422618 0.422618 -0.906308 1315.86 178.451)" stroke="black"/>
<line y1="-0.5" x2="215.688" y2="-0.5" transform="matrix(0.906308 0.422618 0.422618 -0.906308 1315.86 294.146)" stroke="black"/>
<line y1="-0.5" x2="215.688" y2="-0.5" transform="matrix(0.906308 0.422618 0.422618 -0.906308 1315.86 62.7568)" stroke="black"/>
<line y1="-0.5" x2="215.688" y2="-0.5" transform="matrix(0.906308 0.422618 0.422618 -0.906308 1315.86 393.312)" stroke="black"/>
<line y1="-0.5" x2="215.688" y2="-0.5" transform="matrix(0.906308 0.422618 0.422618 -0.906308 1315.86 161.923)" stroke="black"/>
<line y1="-0.5" x2="215.688" y2="-0.5" transform="matrix(0.906308 0.422618 0.422618 -0.906308 1315.86 277.618)" stroke="black"/>
<line y1="-0.5" x2="215.688" y2="-0.5" transform="matrix(0.906308 0.422618 0.422618 -0.906308 1315.86 46.229)" stroke="black"/>
<line y1="-0.5" x2="215.688" y2="-0.5" transform="matrix(0.906308 0.422618 0.422618 -0.906308 1315.86 376.784)" stroke="black"/>
<line y1="-0.5" x2="215.688" y2="-0.5" transform="matrix(0.906308 0.422618 0.422618 -0.906308 1315.86 145.396)" stroke="black"/>
<line y1="-0.5" x2="215.688" y2="-0.5" transform="matrix(0.906308 0.422618 0.422618 -0.906308 1315.86 261.09)" stroke="black"/>
<line y1="-0.5" x2="215.688" y2="-0.5" transform="matrix(0.906308 0.422618 0.422618 -0.906308 1315.86 29.7012)" stroke="black"/>
<line y1="-0.5" x2="215.688" y2="-0.5" transform="matrix(0.906308 0.422618 0.422618 -0.906308 1315.86 360.256)" stroke="black"/>
<line y1="-0.5" x2="215.688" y2="-0.5" transform="matrix(0.906308 0.422618 0.422618 -0.906308 1315.86 128.868)" stroke="black"/>
<line y1="-0.5" x2="215.688" y2="-0.5" transform="matrix(0.906308 0.422618 0.422618 -0.906308 1315.86 244.562)" stroke="black"/>
</g>
<path d="M1376 504H1495V506H1376V504ZM1495 121H1376V119H1495V121Z" fill="black" mask="url(#path-11-inside-1_289_8934)"/>
<g clip-path="url(#clip1_289_8934)">
<mask id="path-40-inside-2_289_8934" fill="white">
<path d="M-18 505H101V120H-18V505Z"/>
</mask>
<line y1="-0.5" x2="215.688" y2="-0.5" transform="matrix(0.906308 0.422618 0.422618 -0.906308 -78.1387 459.423)" stroke="black"/>
<line y1="-0.5" x2="215.688" y2="-0.5" transform="matrix(0.906308 0.422618 0.422618 -0.906308 -78.1387 228.034)" stroke="black"/>
<line y1="-0.5" x2="215.688" y2="-0.5" transform="matrix(0.906308 0.422618 0.422618 -0.906308 -78.1387 343.729)" stroke="black"/>
<line y1="-0.5" x2="215.688" y2="-0.5" transform="matrix(0.906308 0.422618 0.422618 -0.906308 -78.1387 112.34)" stroke="black"/>
<line y1="-0.5" x2="215.688" y2="-0.5" transform="matrix(0.906308 0.422618 0.422618 -0.906308 -78.1387 442.896)" stroke="black"/>
<line y1="-0.5" x2="215.688" y2="-0.5" transform="matrix(0.906308 0.422618 0.422618 -0.906308 -78.1387 211.507)" stroke="black"/>
<line y1="-0.5" x2="215.688" y2="-0.5" transform="matrix(0.906308 0.422618 0.422618 -0.906308 -78.1387 327.201)" stroke="black"/>
<line y1="-0.5" x2="215.688" y2="-0.5" transform="matrix(0.906308 0.422618 0.422618 -0.906308 -78.1387 95.812)" stroke="black"/>
<line y1="-0.5" x2="215.688" y2="-0.5" transform="matrix(0.906308 0.422618 0.422618 -0.906308 -78.1387 426.368)" stroke="black"/>
<line y1="-0.5" x2="215.688" y2="-0.5" transform="matrix(0.906308 0.422618 0.422618 -0.906308 -78.1387 194.979)" stroke="black"/>
<line y1="-0.5" x2="215.688" y2="-0.5" transform="matrix(0.906308 0.422618 0.422618 -0.906308 -78.1387 310.673)" stroke="black"/>
<line y1="-0.5" x2="215.688" y2="-0.5" transform="matrix(0.906308 0.422618 0.422618 -0.906308 -78.1387 79.2842)" stroke="black"/>
<line y1="-0.5" x2="215.688" y2="-0.5" transform="matrix(0.906308 0.422618 0.422618 -0.906308 -78.1387 409.84)" stroke="black"/>
<line y1="-0.5" x2="215.688" y2="-0.5" transform="matrix(0.906308 0.422618 0.422618 -0.906308 -78.1387 178.451)" stroke="black"/>
<line y1="-0.5" x2="215.688" y2="-0.5" transform="matrix(0.906308 0.422618 0.422618 -0.906308 -78.1387 294.146)" stroke="black"/>
<line y1="-0.5" x2="215.688" y2="-0.5" transform="matrix(0.906308 0.422618 0.422618 -0.906308 -78.1387 62.7568)" stroke="black"/>
<line y1="-0.5" x2="215.688" y2="-0.5" transform="matrix(0.906308 0.422618 0.422618 -0.906308 -78.1387 393.312)" stroke="black"/>
<line y1="-0.5" x2="215.688" y2="-0.5" transform="matrix(0.906308 0.422618 0.422618 -0.906308 -78.1387 161.923)" stroke="black"/>
<line y1="-0.5" x2="215.688" y2="-0.5" transform="matrix(0.906308 0.422618 0.422618 -0.906308 -78.1387 277.618)" stroke="black"/>
<line y1="-0.5" x2="215.688" y2="-0.5" transform="matrix(0.906308 0.422618 0.422618 -0.906308 -78.1387 46.229)" stroke="black"/>
<line y1="-0.5" x2="215.688" y2="-0.5" transform="matrix(0.906308 0.422618 0.422618 -0.906308 -78.1387 376.784)" stroke="black"/>
<line y1="-0.5" x2="215.688" y2="-0.5" transform="matrix(0.906308 0.422618 0.422618 -0.906308 -78.1387 145.396)" stroke="black"/>
<line y1="-0.5" x2="215.688" y2="-0.5" transform="matrix(0.906308 0.422618 0.422618 -0.906308 -78.1387 261.09)" stroke="black"/>
<line y1="-0.5" x2="215.688" y2="-0.5" transform="matrix(0.906308 0.422618 0.422618 -0.906308 -78.1387 29.7012)" stroke="black"/>
<line y1="-0.5" x2="215.688" y2="-0.5" transform="matrix(0.906308 0.422618 0.422618 -0.906308 -78.1387 360.256)" stroke="black"/>
<line y1="-0.5" x2="215.688" y2="-0.5" transform="matrix(0.906308 0.422618 0.422618 -0.906308 -78.1387 128.868)" stroke="black"/>
<line y1="-0.5" x2="215.688" y2="-0.5" transform="matrix(0.906308 0.422618 0.422618 -0.906308 -78.1387 244.562)" stroke="black"/>
</g>
<path d="M-18 504H101V506H-18V504ZM101 121H-18V119H101V121Z" fill="black" mask="url(#path-40-inside-2_289_8934)"/>
</g>
<defs>
<clipPath id="clip0_289_8934">
<path d="M1376 505H1495V120H1376V505Z" fill="white"/>
</clipPath>
<clipPath id="clip1_289_8934">
<path d="M-18 505H101V120H-18V505Z" fill="white"/>
</clipPath>
</defs>
</svg>
