<svg width="234" height="385" viewBox="0 0 234 385" fill="none" xmlns="http://www.w3.org/2000/svg" preserveAspectRatio="none">
<line x1="117.5" y1="384" x2="117.5" y2="1" stroke="black" stroke-opacity="0.12"/>
<line x1="233.5" y1="384" x2="233.5" y2="1" stroke="black" stroke-opacity="0.12"/>
<g clip-path="url(#clip0_2001_2150)">
<line y1="-0.5" x2="215.688" y2="-0.5" transform="matrix(-0.906308 -0.422618 -0.422618 0.906308 179.139 45.5767)" stroke="black" stroke-opacity="0.12"/>
<line y1="-0.5" x2="215.688" y2="-0.5" transform="matrix(-0.906308 -0.422618 -0.422618 0.906308 179.139 276.966)" stroke="black" stroke-opacity="0.12"/>
<line y1="-0.5" x2="215.688" y2="-0.5" transform="matrix(-0.906308 -0.422618 -0.422618 0.906308 179.139 161.271)" stroke="black" stroke-opacity="0.12"/>
<line y1="-0.5" x2="215.688" y2="-0.5" transform="matrix(-0.906308 -0.422618 -0.422618 0.906308 179.139 392.66)" stroke="black" stroke-opacity="0.12"/>
<line y1="-0.5" x2="215.688" y2="-0.5" transform="matrix(-0.906308 -0.422618 -0.422618 0.906308 179.139 62.1045)" stroke="black" stroke-opacity="0.12"/>
<line y1="-0.5" x2="215.688" y2="-0.5" transform="matrix(-0.906308 -0.422618 -0.422618 0.906308 179.139 293.493)" stroke="black" stroke-opacity="0.12"/>
<line y1="-0.5" x2="215.688" y2="-0.5" transform="matrix(-0.906308 -0.422618 -0.422618 0.906308 179.139 177.799)" stroke="black" stroke-opacity="0.12"/>
<line y1="-0.5" x2="215.688" y2="-0.5" transform="matrix(-0.906308 -0.422618 -0.422618 0.906308 179.139 409.188)" stroke="black" stroke-opacity="0.12"/>
<line y1="-0.5" x2="215.688" y2="-0.5" transform="matrix(-0.906308 -0.422618 -0.422618 0.906308 179.139 78.6323)" stroke="black" stroke-opacity="0.12"/>
<line y1="-0.5" x2="215.688" y2="-0.5" transform="matrix(-0.906308 -0.422618 -0.422618 0.906308 179.139 310.021)" stroke="black" stroke-opacity="0.12"/>
<line y1="-0.5" x2="215.688" y2="-0.5" transform="matrix(-0.906308 -0.422618 -0.422618 0.906308 179.139 194.327)" stroke="black" stroke-opacity="0.12"/>
<line y1="-0.5" x2="215.688" y2="-0.5" transform="matrix(-0.906308 -0.422618 -0.422618 0.906308 179.139 425.716)" stroke="black" stroke-opacity="0.12"/>
<line y1="-0.5" x2="215.688" y2="-0.5" transform="matrix(-0.906308 -0.422618 -0.422618 0.906308 179.139 95.1602)" stroke="black" stroke-opacity="0.12"/>
<line y1="-0.5" x2="215.688" y2="-0.5" transform="matrix(-0.906308 -0.422618 -0.422618 0.906308 179.139 326.549)" stroke="black" stroke-opacity="0.12"/>
<line y1="-0.5" x2="215.688" y2="-0.5" transform="matrix(-0.906308 -0.422618 -0.422618 0.906308 179.139 210.854)" stroke="black" stroke-opacity="0.12"/>
<line y1="-0.5" x2="215.688" y2="-0.5" transform="matrix(-0.906308 -0.422618 -0.422618 0.906308 179.139 442.243)" stroke="black" stroke-opacity="0.12"/>
<line y1="-0.5" x2="215.688" y2="-0.5" transform="matrix(-0.906308 -0.422618 -0.422618 0.906308 179.139 111.688)" stroke="black" stroke-opacity="0.12"/>
<line y1="-0.5" x2="215.688" y2="-0.5" transform="matrix(-0.906308 -0.422618 -0.422618 0.906308 179.139 343.077)" stroke="black" stroke-opacity="0.12"/>
<line y1="-0.5" x2="215.688" y2="-0.5" transform="matrix(-0.906308 -0.422618 -0.422618 0.906308 179.139 227.382)" stroke="black" stroke-opacity="0.12"/>
<line y1="-0.5" x2="215.688" y2="-0.5" transform="matrix(-0.906308 -0.422618 -0.422618 0.906308 179.139 458.771)" stroke="black" stroke-opacity="0.12"/>
<line y1="-0.5" x2="215.688" y2="-0.5" transform="matrix(-0.906308 -0.422618 -0.422618 0.906308 179.139 128.216)" stroke="black" stroke-opacity="0.12"/>
<line y1="-0.5" x2="215.688" y2="-0.5" transform="matrix(-0.906308 -0.422618 -0.422618 0.906308 179.139 359.604)" stroke="black" stroke-opacity="0.12"/>
<line y1="-0.5" x2="215.688" y2="-0.5" transform="matrix(-0.906308 -0.422618 -0.422618 0.906308 179.139 243.91)" stroke="black" stroke-opacity="0.12"/>
<line y1="-0.5" x2="215.688" y2="-0.5" transform="matrix(-0.906308 -0.422618 -0.422618 0.906308 179.139 475.299)" stroke="black" stroke-opacity="0.12"/>
<line y1="-0.5" x2="215.688" y2="-0.5" transform="matrix(-0.906308 -0.422618 -0.422618 0.906308 179.139 144.744)" stroke="black" stroke-opacity="0.12"/>
<line y1="-0.5" x2="215.688" y2="-0.5" transform="matrix(-0.906308 -0.422618 -0.422618 0.906308 179.139 376.132)" stroke="black" stroke-opacity="0.12"/>
<line y1="-0.5" x2="215.688" y2="-0.5" transform="matrix(-0.906308 -0.422618 -0.422618 0.906308 179.139 260.438)" stroke="black" stroke-opacity="0.12"/>
</g>
<defs>
<clipPath id="clip0_2001_2150">
<path d="M119 0L0 1.04033e-05L3.36578e-05 385L119 385L119 0Z" fill="white"/>
</clipPath>
</defs>
</svg>
