<svg width="378" height="61" viewBox="0 0 378 61" fill="none" xmlns="http://www.w3.org/2000/svg">
<g opacity="0.12">
<g clip-path="url(#clip0_2049_2600)">
<line x1="22.7568" y1="90.4469" x2="-23.2123" y2="-8.13414" stroke="black" stroke-width="0.504304"/>
<line x1="139.446" y1="90.4469" x2="93.4772" y2="-8.13414" stroke="black" stroke-width="0.504304"/>
<line x1="81.1016" y1="90.4469" x2="35.1325" y2="-8.13414" stroke="black" stroke-width="0.504304"/>
<line x1="197.792" y1="90.4469" x2="151.823" y2="-8.13414" stroke="black" stroke-width="0.504304"/>
<line x1="31.0918" y1="90.4469" x2="-14.8773" y2="-8.13414" stroke="black" stroke-width="0.504304"/>
<line x1="147.782" y1="90.4469" x2="101.813" y2="-8.13414" stroke="black" stroke-width="0.504304"/>
<line x1="89.4365" y1="90.4469" x2="43.4674" y2="-8.13414" stroke="black" stroke-width="0.504304"/>
<line x1="206.127" y1="90.4469" x2="160.158" y2="-8.13414" stroke="black" stroke-width="0.504304"/>
<line x1="39.4267" y1="90.4469" x2="-6.54234" y2="-8.13414" stroke="black" stroke-width="0.504304"/>
<line x1="156.117" y1="90.4469" x2="110.148" y2="-8.13414" stroke="black" stroke-width="0.504304"/>
<line x1="97.7715" y1="90.4469" x2="51.8024" y2="-8.13414" stroke="black" stroke-width="0.504304"/>
<line x1="214.461" y1="90.4469" x2="168.492" y2="-8.13414" stroke="black" stroke-width="0.504304"/>
<line x1="47.7617" y1="90.4469" x2="1.79262" y2="-8.13414" stroke="black" stroke-width="0.504304"/>
<line x1="164.452" y1="90.4469" x2="118.483" y2="-8.13414" stroke="black" stroke-width="0.504304"/>
<line x1="106.107" y1="90.4469" x2="60.1383" y2="-8.13414" stroke="black" stroke-width="0.504304"/>
<line x1="222.796" y1="90.4469" x2="176.827" y2="-8.13414" stroke="black" stroke-width="0.504304"/>
<line x1="56.0976" y1="90.4469" x2="10.1286" y2="-8.13414" stroke="black" stroke-width="0.504304"/>
<line x1="172.787" y1="90.4469" x2="126.818" y2="-8.13414" stroke="black" stroke-width="0.504304"/>
<line x1="114.442" y1="90.4469" x2="68.4733" y2="-8.13414" stroke="black" stroke-width="0.504304"/>
<line x1="231.132" y1="90.4469" x2="185.163" y2="-8.13414" stroke="black" stroke-width="0.504304"/>
<line x1="64.4316" y1="90.4469" x2="18.4625" y2="-8.13414" stroke="black" stroke-width="0.504304"/>
<line x1="181.122" y1="90.4469" x2="135.153" y2="-8.13414" stroke="black" stroke-width="0.504304"/>
<line x1="122.777" y1="90.4469" x2="76.8082" y2="-8.13414" stroke="black" stroke-width="0.504304"/>
<line x1="239.467" y1="90.4469" x2="193.498" y2="-8.13414" stroke="black" stroke-width="0.504304"/>
<line x1="72.7666" y1="90.4469" x2="26.7975" y2="-8.13414" stroke="black" stroke-width="0.504304"/>
<line x1="189.458" y1="90.4469" x2="143.489" y2="-8.13414" stroke="black" stroke-width="0.504304"/>
<line x1="131.112" y1="90.4469" x2="85.1432" y2="-8.13414" stroke="black" stroke-width="0.504304"/>
</g>
<g clip-path="url(#clip1_2049_2600)">
<line x1="206.157" y1="90.4469" x2="160.188" y2="-8.13414" stroke="black" stroke-width="0.504304"/>
<line x1="322.847" y1="90.4469" x2="276.878" y2="-8.13414" stroke="black" stroke-width="0.504304"/>
<line x1="264.502" y1="90.4469" x2="218.533" y2="-8.13414" stroke="black" stroke-width="0.504304"/>
<line x1="381.192" y1="90.4469" x2="335.223" y2="-8.13414" stroke="black" stroke-width="0.504304"/>
<line x1="214.492" y1="90.4469" x2="168.523" y2="-8.13414" stroke="black" stroke-width="0.504304"/>
<line x1="331.183" y1="90.4469" x2="285.214" y2="-8.13414" stroke="black" stroke-width="0.504304"/>
<line x1="272.837" y1="90.4469" x2="226.868" y2="-8.13414" stroke="black" stroke-width="0.504304"/>
<line x1="389.527" y1="90.4469" x2="343.558" y2="-8.13414" stroke="black" stroke-width="0.504304"/>
<line x1="222.827" y1="90.4469" x2="176.858" y2="-8.13414" stroke="black" stroke-width="0.504304"/>
<line x1="339.518" y1="90.4469" x2="293.548" y2="-8.13414" stroke="black" stroke-width="0.504304"/>
<line x1="281.172" y1="90.4469" x2="235.203" y2="-8.13414" stroke="black" stroke-width="0.504304"/>
<line x1="397.861" y1="90.4469" x2="351.892" y2="-8.13414" stroke="black" stroke-width="0.504304"/>
<line x1="231.162" y1="90.4469" x2="185.193" y2="-8.13414" stroke="black" stroke-width="0.504304"/>
<line x1="347.853" y1="90.4469" x2="301.883" y2="-8.13414" stroke="black" stroke-width="0.504304"/>
<line x1="289.508" y1="90.4469" x2="243.539" y2="-8.13414" stroke="black" stroke-width="0.504304"/>
<line x1="406.196" y1="90.4469" x2="360.227" y2="-8.13414" stroke="black" stroke-width="0.504304"/>
<line x1="239.498" y1="90.4469" x2="193.529" y2="-8.13414" stroke="black" stroke-width="0.504304"/>
<line x1="356.187" y1="90.4469" x2="310.218" y2="-8.13414" stroke="black" stroke-width="0.504304"/>
<line x1="297.843" y1="90.4469" x2="251.874" y2="-8.13414" stroke="black" stroke-width="0.504304"/>
<line x1="414.532" y1="90.4469" x2="368.563" y2="-8.13414" stroke="black" stroke-width="0.504304"/>
<line x1="247.832" y1="90.4469" x2="201.863" y2="-8.13414" stroke="black" stroke-width="0.504304"/>
<line x1="364.522" y1="90.4469" x2="318.553" y2="-8.13414" stroke="black" stroke-width="0.504304"/>
<line x1="306.178" y1="90.4469" x2="260.209" y2="-8.13414" stroke="black" stroke-width="0.504304"/>
<line x1="422.867" y1="90.4469" x2="376.898" y2="-8.13414" stroke="black" stroke-width="0.504304"/>
<line x1="256.167" y1="90.4469" x2="210.198" y2="-8.13414" stroke="black" stroke-width="0.504304"/>
<line x1="372.858" y1="90.4469" x2="326.889" y2="-8.13414" stroke="black" stroke-width="0.504304"/>
<line x1="314.513" y1="90.4469" x2="268.544" y2="-8.13414" stroke="black" stroke-width="0.504304"/>
</g>
</g>
<defs>
<clipPath id="clip0_2049_2600">
<path d="M0 60.0122L7.15638e-07 -1.14441e-05L194.157 -9.12879e-06L194.157 60.0122L0 60.0122Z" fill="white"/>
</clipPath>
<clipPath id="clip1_2049_2600">
<path d="M183.4 60.0122L183.4 -1.14441e-05L377.558 -9.12879e-06L377.558 60.0122L183.4 60.0122Z" fill="white"/>
</clipPath>
</defs>
</svg>
