<svg width="234" height="385" viewBox="0 0 234 385" fill="none" xmlns="http://www.w3.org/2000/svg" preserveAspectRatio="none">
<line x1="116.5" y1="1" x2="116.5" y2="384" stroke="black" stroke-opacity="0.12"/>
<line x1="0.5" y1="1" x2="0.500017" y2="384" stroke="black" stroke-opacity="0.12"/>
<g clip-path="url(#clip0_2001_2150)">
<line y1="-0.5" x2="215.688" y2="-0.5" transform="matrix(0.906308 0.422618 0.422618 -0.906308 54.8613 339.423)" stroke="black" stroke-opacity="0.12"/>
<line y1="-0.5" x2="215.688" y2="-0.5" transform="matrix(0.906308 0.422618 0.422618 -0.906308 54.8613 108.034)" stroke="black" stroke-opacity="0.12"/>
<line y1="-0.5" x2="215.688" y2="-0.5" transform="matrix(0.906308 0.422618 0.422618 -0.906308 54.8613 223.729)" stroke="black" stroke-opacity="0.12"/>
<line y1="-0.5" x2="215.688" y2="-0.5" transform="matrix(0.906308 0.422618 0.422618 -0.906308 54.8613 -7.66016)" stroke="black" stroke-opacity="0.12"/>
<line y1="-0.5" x2="215.688" y2="-0.5" transform="matrix(0.906308 0.422618 0.422618 -0.906308 54.8613 322.896)" stroke="black" stroke-opacity="0.12"/>
<line y1="-0.5" x2="215.688" y2="-0.5" transform="matrix(0.906308 0.422618 0.422618 -0.906308 54.8613 91.5068)" stroke="black" stroke-opacity="0.12"/>
<line y1="-0.5" x2="215.688" y2="-0.5" transform="matrix(0.906308 0.422618 0.422618 -0.906308 54.8613 207.201)" stroke="black" stroke-opacity="0.12"/>
<line y1="-0.5" x2="215.688" y2="-0.5" transform="matrix(0.906308 0.422618 0.422618 -0.906308 54.8613 -24.188)" stroke="black" stroke-opacity="0.12"/>
<line y1="-0.5" x2="215.688" y2="-0.5" transform="matrix(0.906308 0.422618 0.422618 -0.906308 54.8613 306.368)" stroke="black" stroke-opacity="0.12"/>
<line y1="-0.5" x2="215.688" y2="-0.5" transform="matrix(0.906308 0.422618 0.422618 -0.906308 54.8613 74.979)" stroke="black" stroke-opacity="0.12"/>
<line y1="-0.5" x2="215.688" y2="-0.5" transform="matrix(0.906308 0.422618 0.422618 -0.906308 54.8613 190.673)" stroke="black" stroke-opacity="0.12"/>
<line y1="-0.5" x2="215.688" y2="-0.5" transform="matrix(0.906308 0.422618 0.422618 -0.906308 54.8613 -40.7158)" stroke="black" stroke-opacity="0.12"/>
<line y1="-0.5" x2="215.688" y2="-0.5" transform="matrix(0.906308 0.422618 0.422618 -0.906308 54.8613 289.84)" stroke="black" stroke-opacity="0.12"/>
<line y1="-0.5" x2="215.688" y2="-0.5" transform="matrix(0.906308 0.422618 0.422618 -0.906308 54.8613 58.4512)" stroke="black" stroke-opacity="0.12"/>
<line y1="-0.5" x2="215.688" y2="-0.5" transform="matrix(0.906308 0.422618 0.422618 -0.906308 54.8613 174.146)" stroke="black" stroke-opacity="0.12"/>
<line y1="-0.5" x2="215.688" y2="-0.5" transform="matrix(0.906308 0.422618 0.422618 -0.906308 54.8613 -57.2432)" stroke="black" stroke-opacity="0.12"/>
<line y1="-0.5" x2="215.688" y2="-0.5" transform="matrix(0.906308 0.422618 0.422618 -0.906308 54.8613 273.312)" stroke="black" stroke-opacity="0.12"/>
<line y1="-0.5" x2="215.688" y2="-0.5" transform="matrix(0.906308 0.422618 0.422618 -0.906308 54.8613 41.9233)" stroke="black" stroke-opacity="0.12"/>
<line y1="-0.5" x2="215.688" y2="-0.5" transform="matrix(0.906308 0.422618 0.422618 -0.906308 54.8613 157.618)" stroke="black" stroke-opacity="0.12"/>
<line y1="-0.5" x2="215.688" y2="-0.5" transform="matrix(0.906308 0.422618 0.422618 -0.906308 54.8613 -73.771)" stroke="black" stroke-opacity="0.12"/>
<line y1="-0.5" x2="215.688" y2="-0.5" transform="matrix(0.906308 0.422618 0.422618 -0.906308 54.8613 256.784)" stroke="black" stroke-opacity="0.12"/>
<line y1="-0.5" x2="215.688" y2="-0.5" transform="matrix(0.906308 0.422618 0.422618 -0.906308 54.8613 25.3955)" stroke="black" stroke-opacity="0.12"/>
<line y1="-0.5" x2="215.688" y2="-0.5" transform="matrix(0.906308 0.422618 0.422618 -0.906308 54.8613 141.09)" stroke="black" stroke-opacity="0.12"/>
<line y1="-0.5" x2="215.688" y2="-0.5" transform="matrix(0.906308 0.422618 0.422618 -0.906308 54.8613 -90.2988)" stroke="black" stroke-opacity="0.12"/>
<line y1="-0.5" x2="215.688" y2="-0.5" transform="matrix(0.906308 0.422618 0.422618 -0.906308 54.8613 240.256)" stroke="black" stroke-opacity="0.12"/>
<line y1="-0.5" x2="215.688" y2="-0.5" transform="matrix(0.906308 0.422618 0.422618 -0.906308 54.8613 8.86768)" stroke="black" stroke-opacity="0.12"/>
<line y1="-0.5" x2="215.688" y2="-0.5" transform="matrix(0.906308 0.422618 0.422618 -0.906308 54.8613 124.562)" stroke="black" stroke-opacity="0.12"/>
</g>
<defs>
<clipPath id="clip0_2001_2150">
<path d="M115 385H234V0H115V385Z" fill="white"/>
</clipPath>
</defs>
</svg>
