<svg width="119" height="765" viewBox="0 0 119 765" fill="none" xmlns="http://www.w3.org/2000/svg">
<g opacity="0.12">
<g clip-path="url(#clip0_2048_2539)">
<line y1="-0.5" x2="215.688" y2="-0.5" transform="matrix(0.906308 0.422618 0.422618 -0.906308 -60.1387 339.423)" stroke="black"/>
<line y1="-0.5" x2="215.688" y2="-0.5" transform="matrix(0.906308 0.422618 0.422618 -0.906308 -60.1387 108.034)" stroke="black"/>
<line y1="-0.5" x2="215.688" y2="-0.5" transform="matrix(0.906308 0.422618 0.422618 -0.906308 -60.1387 223.729)" stroke="black"/>
<line y1="-0.5" x2="215.688" y2="-0.5" transform="matrix(0.906308 0.422618 0.422618 -0.906308 -60.1387 -7.66016)" stroke="black"/>
<line y1="-0.5" x2="215.688" y2="-0.5" transform="matrix(0.906308 0.422618 0.422618 -0.906308 -60.1387 322.896)" stroke="black"/>
<line y1="-0.5" x2="215.688" y2="-0.5" transform="matrix(0.906308 0.422618 0.422618 -0.906308 -60.1387 91.5068)" stroke="black"/>
<line y1="-0.5" x2="215.688" y2="-0.5" transform="matrix(0.906308 0.422618 0.422618 -0.906308 -60.1387 207.201)" stroke="black"/>
<line y1="-0.5" x2="215.688" y2="-0.5" transform="matrix(0.906308 0.422618 0.422618 -0.906308 -60.1387 -24.188)" stroke="black"/>
<line y1="-0.5" x2="215.688" y2="-0.5" transform="matrix(0.906308 0.422618 0.422618 -0.906308 -60.1387 306.368)" stroke="black"/>
<line y1="-0.5" x2="215.688" y2="-0.5" transform="matrix(0.906308 0.422618 0.422618 -0.906308 -60.1387 74.979)" stroke="black"/>
<line y1="-0.5" x2="215.688" y2="-0.5" transform="matrix(0.906308 0.422618 0.422618 -0.906308 -60.1387 190.673)" stroke="black"/>
<line y1="-0.5" x2="215.688" y2="-0.5" transform="matrix(0.906308 0.422618 0.422618 -0.906308 -60.1387 -40.7158)" stroke="black"/>
<line y1="-0.5" x2="215.688" y2="-0.5" transform="matrix(0.906308 0.422618 0.422618 -0.906308 -60.1387 289.84)" stroke="black"/>
<line y1="-0.5" x2="215.688" y2="-0.5" transform="matrix(0.906308 0.422618 0.422618 -0.906308 -60.1387 58.4512)" stroke="black"/>
<line y1="-0.5" x2="215.688" y2="-0.5" transform="matrix(0.906308 0.422618 0.422618 -0.906308 -60.1387 174.146)" stroke="black"/>
<line y1="-0.5" x2="215.688" y2="-0.5" transform="matrix(0.906308 0.422618 0.422618 -0.906308 -60.1387 -57.2432)" stroke="black"/>
<line y1="-0.5" x2="215.688" y2="-0.5" transform="matrix(0.906308 0.422618 0.422618 -0.906308 -60.1387 273.312)" stroke="black"/>
<line y1="-0.5" x2="215.688" y2="-0.5" transform="matrix(0.906308 0.422618 0.422618 -0.906308 -60.1387 41.9233)" stroke="black"/>
<line y1="-0.5" x2="215.688" y2="-0.5" transform="matrix(0.906308 0.422618 0.422618 -0.906308 -60.1387 157.618)" stroke="black"/>
<line y1="-0.5" x2="215.688" y2="-0.5" transform="matrix(0.906308 0.422618 0.422618 -0.906308 -60.1387 -73.771)" stroke="black"/>
<line y1="-0.5" x2="215.688" y2="-0.5" transform="matrix(0.906308 0.422618 0.422618 -0.906308 -60.1387 256.784)" stroke="black"/>
<line y1="-0.5" x2="215.688" y2="-0.5" transform="matrix(0.906308 0.422618 0.422618 -0.906308 -60.1387 25.3955)" stroke="black"/>
<line y1="-0.5" x2="215.688" y2="-0.5" transform="matrix(0.906308 0.422618 0.422618 -0.906308 -60.1387 141.09)" stroke="black"/>
<line y1="-0.5" x2="215.688" y2="-0.5" transform="matrix(0.906308 0.422618 0.422618 -0.906308 -60.1387 -90.2988)" stroke="black"/>
<line y1="-0.5" x2="215.688" y2="-0.5" transform="matrix(0.906308 0.422618 0.422618 -0.906308 -60.1387 240.256)" stroke="black"/>
<line y1="-0.5" x2="215.688" y2="-0.5" transform="matrix(0.906308 0.422618 0.422618 -0.906308 -60.1387 8.86768)" stroke="black"/>
<line y1="-0.5" x2="215.688" y2="-0.5" transform="matrix(0.906308 0.422618 0.422618 -0.906308 -60.1387 124.562)" stroke="black"/>
</g>
<g clip-path="url(#clip1_2048_2539)">
<line y1="-0.5" x2="215.688" y2="-0.5" transform="matrix(0.906308 0.422618 0.422618 -0.906308 -60.1387 719.423)" stroke="black"/>
<line y1="-0.5" x2="215.688" y2="-0.5" transform="matrix(0.906308 0.422618 0.422618 -0.906308 -60.1387 488.034)" stroke="black"/>
<line y1="-0.5" x2="215.688" y2="-0.5" transform="matrix(0.906308 0.422618 0.422618 -0.906308 -60.1387 603.729)" stroke="black"/>
<line y1="-0.5" x2="215.688" y2="-0.5" transform="matrix(0.906308 0.422618 0.422618 -0.906308 -60.1387 372.34)" stroke="black"/>
<line y1="-0.5" x2="215.688" y2="-0.5" transform="matrix(0.906308 0.422618 0.422618 -0.906308 -60.1387 702.896)" stroke="black"/>
<line y1="-0.5" x2="215.688" y2="-0.5" transform="matrix(0.906308 0.422618 0.422618 -0.906308 -60.1387 471.507)" stroke="black"/>
<line y1="-0.5" x2="215.688" y2="-0.5" transform="matrix(0.906308 0.422618 0.422618 -0.906308 -60.1387 587.201)" stroke="black"/>
<line y1="-0.5" x2="215.688" y2="-0.5" transform="matrix(0.906308 0.422618 0.422618 -0.906308 -60.1387 355.812)" stroke="black"/>
<line y1="-0.5" x2="215.688" y2="-0.5" transform="matrix(0.906308 0.422618 0.422618 -0.906308 -60.1387 686.368)" stroke="black"/>
<line y1="-0.5" x2="215.688" y2="-0.5" transform="matrix(0.906308 0.422618 0.422618 -0.906308 -60.1387 454.979)" stroke="black"/>
<line y1="-0.5" x2="215.688" y2="-0.5" transform="matrix(0.906308 0.422618 0.422618 -0.906308 -60.1387 570.673)" stroke="black"/>
<line y1="-0.5" x2="215.688" y2="-0.5" transform="matrix(0.906308 0.422618 0.422618 -0.906308 -60.1387 339.284)" stroke="black"/>
<line y1="-0.5" x2="215.688" y2="-0.5" transform="matrix(0.906308 0.422618 0.422618 -0.906308 -60.1387 669.84)" stroke="black"/>
<line y1="-0.5" x2="215.688" y2="-0.5" transform="matrix(0.906308 0.422618 0.422618 -0.906308 -60.1387 438.451)" stroke="black"/>
<line y1="-0.5" x2="215.688" y2="-0.5" transform="matrix(0.906308 0.422618 0.422618 -0.906308 -60.1387 554.146)" stroke="black"/>
<line y1="-0.5" x2="215.688" y2="-0.5" transform="matrix(0.906308 0.422618 0.422618 -0.906308 -60.1387 322.757)" stroke="black"/>
<line y1="-0.5" x2="215.688" y2="-0.5" transform="matrix(0.906308 0.422618 0.422618 -0.906308 -60.1387 653.312)" stroke="black"/>
<line y1="-0.5" x2="215.688" y2="-0.5" transform="matrix(0.906308 0.422618 0.422618 -0.906308 -60.1387 421.923)" stroke="black"/>
<line y1="-0.5" x2="215.688" y2="-0.5" transform="matrix(0.906308 0.422618 0.422618 -0.906308 -60.1387 537.618)" stroke="black"/>
<line y1="-0.5" x2="215.688" y2="-0.5" transform="matrix(0.906308 0.422618 0.422618 -0.906308 -60.1387 306.229)" stroke="black"/>
<line y1="-0.5" x2="215.688" y2="-0.5" transform="matrix(0.906308 0.422618 0.422618 -0.906308 -60.1387 636.784)" stroke="black"/>
<line y1="-0.5" x2="215.688" y2="-0.5" transform="matrix(0.906308 0.422618 0.422618 -0.906308 -60.1387 405.396)" stroke="black"/>
<line y1="-0.5" x2="215.688" y2="-0.5" transform="matrix(0.906308 0.422618 0.422618 -0.906308 -60.1387 521.09)" stroke="black"/>
<line y1="-0.5" x2="215.688" y2="-0.5" transform="matrix(0.906308 0.422618 0.422618 -0.906308 -60.1387 289.701)" stroke="black"/>
<line y1="-0.5" x2="215.688" y2="-0.5" transform="matrix(0.906308 0.422618 0.422618 -0.906308 -60.1387 620.256)" stroke="black"/>
<line y1="-0.5" x2="215.688" y2="-0.5" transform="matrix(0.906308 0.422618 0.422618 -0.906308 -60.1387 388.868)" stroke="black"/>
<line y1="-0.5" x2="215.688" y2="-0.5" transform="matrix(0.906308 0.422618 0.422618 -0.906308 -60.1387 504.562)" stroke="black"/>
</g>
</g>
<defs>
<clipPath id="clip0_2048_2539">
<path d="M0 385H119V0H0V385Z" fill="white"/>
</clipPath>
<clipPath id="clip1_2048_2539">
<path d="M0 765H119V380H0V765Z" fill="white"/>
</clipPath>
</defs>
</svg>
