<svg width="153" height="23" viewBox="0 0 153 23" fill="none" xmlns="http://www.w3.org/2000/svg">
<path d="M46.0143 17.7631C45.6102 18.3381 45.074 18.7655 44.4057 19.0453C43.7374 19.3095 42.9914 19.4416 42.1676 19.4416C41.5149 19.4416 40.9165 19.3639 40.3725 19.2085C39.8441 19.0531 39.3778 18.8199 38.9738 18.5091C38.5697 18.1827 38.2511 17.7864 38.0179 17.3201C37.7848 16.8383 37.6682 16.2943 37.6682 15.6882C37.6682 15.0199 37.8003 14.4526 38.0645 13.9864C38.3288 13.5045 38.6862 13.116 39.1369 12.8207C39.6032 12.5254 40.1472 12.3078 40.7689 12.1679C41.3905 12.0125 42.0433 11.9348 42.7272 11.9348H45.8744C45.8744 11.0334 45.6724 10.334 45.2683 9.83663C44.8642 9.33928 44.157 9.08284 43.1468 9.0673C42.5562 9.0673 42.0433 9.16832 41.6081 9.37037C41.1885 9.57241 40.9087 9.90657 40.7689 10.3728H38.0412C38.1345 9.72006 38.3443 9.16832 38.6707 8.7176C39.0126 8.26688 39.4167 7.89387 39.883 7.59857C40.3648 7.30328 40.8932 7.09346 41.4683 6.96912C42.0589 6.84479 42.6494 6.78262 43.24 6.78262C44.0016 6.78262 44.7088 6.88364 45.3615 7.08569C46.0143 7.28773 46.5816 7.62966 47.0634 8.11146C47.6074 8.67097 47.9726 9.33928 48.1591 10.1164C48.3456 10.8935 48.4389 11.7405 48.4389 12.6575V19.2784H46.1309L46.0143 17.7631ZM45.8744 13.8232H43.31C42.8593 13.8232 42.4085 13.862 41.9578 13.9397C41.5071 14.0019 41.1186 14.1651 40.7922 14.4293C40.4813 14.678 40.3259 15.0432 40.3259 15.525C40.3259 16.1156 40.5357 16.5663 40.9554 16.8772C41.3905 17.1725 41.919 17.3201 42.5407 17.3201C43.0225 17.3201 43.4654 17.258 43.8695 17.1336C44.2891 17.0093 44.6466 16.8072 44.9419 16.5275C45.2372 16.2322 45.4626 15.8669 45.618 15.4318C45.7889 14.981 45.8744 14.4448 45.8744 13.8232Z" fill="#0B101B"/>
<path d="M52.8079 1.88688C53.2897 1.88688 53.686 2.03452 53.9968 2.32982C54.3232 2.62512 54.4864 3.02922 54.4864 3.5421C54.4864 4.03945 54.3232 4.43577 53.9968 4.73107C53.686 5.02637 53.2897 5.17402 52.8079 5.17402C52.295 5.17402 51.8831 5.02637 51.5723 4.73107C51.2614 4.43577 51.106 4.03945 51.106 3.5421C51.106 3.02922 51.2614 2.62512 51.5723 2.32982C51.8831 2.03452 52.295 1.88688 52.8079 1.88688ZM51.4557 19.2784V6.99244H54.1134V19.2784H51.4557Z" fill="#0B101B"/>
<path d="M75.2359 6.78262C76.2151 6.78262 77.0777 6.93804 77.8237 7.24888C78.5697 7.55972 79.1992 7.9949 79.712 8.55441C80.2405 9.09838 80.6368 9.75892 80.901 10.536C81.1652 11.3131 81.2973 12.1757 81.2973 13.1238C81.2973 14.0874 81.1652 14.9577 80.901 15.7348C80.6523 16.4964 80.2716 17.1569 79.7587 17.7164C79.2458 18.276 78.6086 18.7034 77.847 18.9987C77.101 19.294 76.2306 19.4416 75.2359 19.4416C74.2568 19.4416 73.3942 19.294 72.6482 18.9987C71.9022 18.6878 71.2727 18.2604 70.7598 17.7164C70.2625 17.1569 69.8817 16.4886 69.6175 15.7115C69.3688 14.9344 69.2445 14.0718 69.2445 13.1238C69.2445 12.1757 69.3688 11.3131 69.6175 10.536C69.8817 9.75892 70.2702 9.09838 70.7831 8.55441C71.296 7.9949 71.9255 7.55972 72.6715 7.24888C73.4175 6.93804 74.2723 6.78262 75.2359 6.78262ZM75.2359 17.1336C75.8421 17.1336 76.355 17.0326 76.7746 16.8305C77.2098 16.613 77.5595 16.3254 77.8237 15.968C78.1034 15.6105 78.3055 15.1909 78.4298 14.7091C78.5697 14.2273 78.6396 13.7066 78.6396 13.1471C78.6396 12.5876 78.5697 12.0669 78.4298 11.5851C78.3055 11.0878 78.1034 10.6604 77.8237 10.3029C77.5595 9.94542 77.2098 9.66567 76.7746 9.46362C76.355 9.26157 75.8421 9.16055 75.2359 9.16055C74.6453 9.16055 74.1402 9.26157 73.7206 9.46362C73.3009 9.66567 72.9513 9.94542 72.6715 10.3029C72.3917 10.6604 72.1819 11.0878 72.042 11.5851C71.9177 12.0669 71.8555 12.5876 71.8555 13.1471C71.8555 13.7066 71.9177 14.2273 72.042 14.7091C72.1819 15.1909 72.384 15.6105 72.6482 15.968C72.9279 16.3254 73.2776 16.613 73.6973 16.8305C74.1324 17.0326 74.6453 17.1336 75.2359 17.1336Z" fill="#0B101B"/>
<path d="M61.7351 12.0047H59.8234V3.28355H57.189V19.2784H59.8234V14.3127H61.8983L65.1388 19.2784H68.2161L64.0198 12.844L67.8897 6.99243H64.9057L61.7351 12.0047Z" fill="#0B101B"/>
<path d="M35.8711 6.95753H32.7242V3.28355H31.911L28.0867 8.47957V9.15148H30.0505V15.2324C30.0505 16.6678 30.3739 17.701 31.0206 18.3319C31.6831 18.9629 32.7794 19.2784 34.3095 19.2784H35.7765V16.9596H34.5461C33.8363 16.9596 33.3552 16.7861 33.1028 16.4391C32.8504 16.092 32.7242 15.5636 32.7242 14.8538V9.15148H35.8711V6.95753Z" fill="#0B101B"/>
<path d="M24.6023 18.118L20.3664 12.3629C19.9062 11.7376 19.2248 11.3629 18.4992 11.2803C18.334 11.2612 18.1865 11.1653 18.1039 11.0208C18.0198 10.8762 18.011 10.7007 18.0774 10.5473C18.3679 9.87772 18.3856 9.10044 18.0729 8.38954L15.2072 1.84391C14.7824 0.871951 13.8223 0.245117 12.7618 0.245117C11.7013 0.245117 10.7412 0.873426 10.3164 1.84391L7.45067 8.38954C7.13946 9.10044 7.15569 9.87772 7.44625 10.5473C7.51262 10.7007 7.50229 10.8762 7.4197 11.0208C7.33563 11.1653 7.18961 11.2612 7.02442 11.2803C6.29877 11.3629 5.61737 11.7376 5.1572 12.3629L0.921271 18.118C0.292962 18.972 0.22954 20.1165 0.75903 21.0354C1.29 21.9528 2.31358 22.4705 3.36666 22.3539L10.4683 21.5634C11.2397 21.4778 11.9049 21.0752 12.3385 20.4882C12.4373 20.354 12.5951 20.2743 12.7618 20.2743C12.9285 20.2743 13.0848 20.354 13.1851 20.4882C13.6187 21.0752 14.2839 21.4778 15.0553 21.5634L22.1569 22.3539C23.21 22.4719 24.2336 21.9542 24.7646 21.0354C25.2941 20.1165 25.2306 18.972 24.6023 18.118ZM9.30315 9.21106L12.1733 2.65806C12.2766 2.42355 12.5081 2.27163 12.7633 2.27163C13.0184 2.27163 13.25 2.42355 13.3532 2.65806L16.2234 9.21106C16.3134 9.41755 16.2942 9.65648 16.1703 9.84527C16.0464 10.0341 15.837 10.1476 15.6098 10.1476H9.91523C9.68957 10.1476 9.47866 10.0341 9.35477 9.84527C9.23088 9.65648 9.2117 9.41755 9.30167 9.21106H9.30315ZM10.7766 19.1873C10.6748 19.3894 10.4772 19.5251 10.253 19.5501L3.14395 20.3407C2.89026 20.3687 2.64248 20.2448 2.51416 20.0236C2.38585 19.8023 2.40207 19.5265 2.55399 19.3201L6.79434 13.5591C6.92855 13.3777 7.14389 13.2744 7.36955 13.2877C7.59521 13.2995 7.79875 13.4249 7.91231 13.621L7.91674 13.6284L10.7559 18.5457L10.7604 18.5531C10.8739 18.7493 10.8798 18.9882 10.7781 19.1888L10.7766 19.1873ZM13.3459 16.9632C13.2249 17.1711 13.0037 17.3009 12.7618 17.3009C12.5214 17.3009 12.2987 17.1726 12.1777 16.9646L9.99635 13.1874C9.87541 12.9794 9.87541 12.7213 9.99635 12.5134C10.1173 12.3054 10.3385 12.1756 10.5804 12.1756H14.9417C15.1821 12.1756 15.4048 12.3025 15.5258 12.5119C15.6467 12.7213 15.6467 12.978 15.5258 13.1859L13.3459 16.9632ZM23.0109 20.0236C22.8826 20.2448 22.6363 20.3702 22.3811 20.3422L15.2721 19.5516C15.0479 19.5265 14.8503 19.3908 14.7485 19.1888C14.6467 18.9867 14.6526 18.7478 14.7662 18.5531L14.7706 18.5457L17.6098 13.6284L17.6142 13.621C17.7278 13.4249 17.9313 13.2995 18.157 13.2877C18.3827 13.2759 18.598 13.3777 18.7322 13.5591L22.9726 19.3201C23.1245 19.5265 23.1392 19.8023 23.0124 20.0236H23.0109Z" fill="#E81899"/>
<path d="M151.532 17.4823C150.942 18.1968 150.266 18.6938 149.505 18.9733C148.76 19.2529 147.937 19.3927 147.036 19.3927C146.492 19.3927 145.964 19.3306 145.452 19.2063C144.955 19.0665 144.504 18.8491 144.101 18.554C143.697 18.2589 143.371 17.8862 143.122 17.4358C142.889 16.9698 142.773 16.4495 142.773 15.8749C142.773 15.176 142.905 14.5935 143.169 14.1276C143.433 13.6617 143.774 13.2889 144.194 13.0094C144.629 12.7298 145.126 12.5357 145.685 12.4269C146.244 12.3027 146.826 12.2406 147.432 12.2406H151.462C151.462 11.6814 151.4 11.1534 151.276 10.6564C151.167 10.1594 150.981 9.72451 150.717 9.35176C150.453 8.97901 150.103 8.68392 149.669 8.46648C149.249 8.24904 148.729 8.14033 148.108 8.14033C147.813 8.14033 147.51 8.16362 147.199 8.21022C146.904 8.25681 146.617 8.33447 146.337 8.44318C146.073 8.5519 145.825 8.70721 145.592 8.90912C145.374 9.09549 145.196 9.32846 145.056 9.60802H143.378C143.518 9.09549 143.751 8.66839 144.077 8.3267C144.403 7.96948 144.784 7.68215 145.219 7.46472C145.669 7.23175 146.143 7.06867 146.64 6.97548C147.152 6.8823 147.657 6.8357 148.154 6.8357C149.055 6.8357 149.816 6.98325 150.437 7.27834C151.059 7.57344 151.556 7.98501 151.928 8.51307C152.317 9.0256 152.588 9.63132 152.744 10.3302C152.915 11.0291 153 11.7824 153 12.59V19.2529H151.742L151.532 17.4823ZM148.224 13.4753C147.82 13.4753 147.385 13.4908 146.92 13.5219C146.469 13.553 146.05 13.6461 145.661 13.8015C145.273 13.9412 144.947 14.1664 144.683 14.4771C144.435 14.7722 144.31 15.1837 144.31 15.7118C144.31 16.1311 144.388 16.4884 144.543 16.7834C144.714 17.0785 144.932 17.327 145.196 17.5289C145.475 17.7308 145.786 17.8784 146.127 17.9716C146.485 18.0648 146.85 18.1114 147.222 18.1114C147.828 18.1114 148.387 18.0337 148.9 17.8784C149.428 17.7231 149.878 17.4901 150.251 17.1795C150.639 16.8533 150.934 16.4573 151.136 15.9914C151.354 15.5099 151.462 14.9508 151.462 14.314V13.4753H148.224Z" fill="#0B101B"/>
<path d="M138.869 2.54908C139.211 2.54908 139.49 2.65003 139.708 2.85193C139.925 3.05384 140.034 3.32564 140.034 3.66732C140.034 4.02454 139.925 4.3041 139.708 4.50601C139.49 4.70791 139.211 4.80887 138.869 4.80887C138.527 4.80887 138.248 4.70791 138.03 4.50601C137.828 4.3041 137.727 4.02454 137.727 3.66732C137.727 3.3101 137.828 3.03831 138.03 2.85193C138.248 2.65003 138.527 2.54908 138.869 2.54908ZM138.1 6.97547H139.638V19.2529H138.1V6.97547Z" fill="#0B101B"/>
<path d="M123.99 19.253V2.78212H125.528V9.02566C125.745 8.65291 126.002 8.33452 126.297 8.07049C126.607 7.80646 126.957 7.5735 127.345 7.37159C127.733 7.18522 128.153 7.0532 128.603 6.97554C129.069 6.88236 129.535 6.83576 130.001 6.83576C130.653 6.83576 131.236 6.92895 131.748 7.11532C132.261 7.3017 132.696 7.5502 133.053 7.86082C133.643 8.35782 134.055 9.00237 134.288 9.79446C134.521 10.5865 134.637 11.4718 134.637 12.4503V19.253H133.099V13.0094C133.099 12.2795 133.037 11.5805 132.913 10.9127C132.804 10.2293 132.556 9.64691 132.168 9.16544C131.904 8.85482 131.577 8.60632 131.189 8.41995C130.801 8.23357 130.312 8.14038 129.721 8.14038C129.085 8.14038 128.494 8.2724 127.951 8.53643C127.423 8.78493 126.98 9.12662 126.623 9.56149C126.235 10.0274 125.955 10.5633 125.784 11.169C125.613 11.7747 125.528 12.4115 125.528 13.0793V19.253H123.99Z" fill="#0B101B"/>
<path d="M118.094 6.97545H121.518V8.28008H118.094V15.1759C118.094 15.5953 118.132 16.0379 118.21 16.5039C118.303 16.9698 118.544 17.327 118.932 17.5755C119.134 17.6998 119.375 17.7929 119.654 17.8551C119.934 17.9017 120.206 17.925 120.47 17.925H121.402V19.2529H120.33C119.802 19.2529 119.274 19.1908 118.746 19.0665C118.233 18.9423 117.783 18.686 117.395 18.2977C117.1 17.9871 116.882 17.5755 116.742 17.063C116.618 16.5349 116.556 15.937 116.556 15.2691V8.28008H114.482V6.97545H116.556V3.45764H118.094V6.97545Z" fill="#0B101B"/>
<path d="M102.97 13.6151C103.002 14.2674 103.11 14.8653 103.297 15.4089C103.499 15.9525 103.778 16.4262 104.135 16.83C104.493 17.2183 104.927 17.5289 105.44 17.7619C105.968 17.9793 106.581 18.0881 107.28 18.0881C107.607 18.0881 107.933 18.057 108.259 17.9949C108.601 17.9328 108.919 17.8396 109.214 17.7153C109.525 17.5755 109.804 17.3969 110.053 17.1795C110.301 16.9621 110.495 16.6903 110.635 16.3641H112.243C112.072 16.9077 111.808 17.3736 111.45 17.7619C111.109 18.1502 110.713 18.4686 110.262 18.7171C109.812 18.95 109.323 19.1209 108.795 19.2296C108.267 19.3383 107.739 19.3927 107.21 19.3927C106.248 19.3927 105.401 19.2374 104.671 18.9267C103.957 18.6161 103.359 18.189 102.877 17.6454C102.396 17.0863 102.039 16.4262 101.806 15.6652C101.573 14.8886 101.456 14.0422 101.456 13.1258C101.456 12.194 101.58 11.3398 101.829 10.5632C102.077 9.78663 102.442 9.12656 102.924 8.58296C103.421 8.02384 104.027 7.59673 104.741 7.30164C105.471 6.99102 106.302 6.8357 107.234 6.8357C108.212 6.8357 109.035 7.02984 109.703 7.41812C110.387 7.8064 110.938 8.31893 111.357 8.95571C111.777 9.57696 112.072 10.2992 112.243 11.1223C112.429 11.9299 112.507 12.7609 112.476 13.6151H102.97ZM110.915 12.3338C110.899 11.7746 110.806 11.2388 110.635 10.7263C110.48 10.2137 110.239 9.7711 109.913 9.39835C109.602 9.01007 109.206 8.70721 108.725 8.48978C108.243 8.25681 107.684 8.14033 107.047 8.14033C106.411 8.14033 105.844 8.25681 105.347 8.48978C104.865 8.72275 104.454 9.03337 104.112 9.42165C103.77 9.80993 103.506 10.2603 103.32 10.7729C103.134 11.2699 103.025 11.7902 102.994 12.3338H110.915Z" fill="#0B101B"/>
<path d="M97.0306 19.253V2.78212H98.5682V19.253H97.0306Z" fill="#0B101B"/>
<path d="M92.2437 17.4823C91.6535 18.1968 90.9779 18.6938 90.2169 18.9733C89.4714 19.2529 88.6482 19.3927 87.7474 19.3927C87.2038 19.3927 86.6758 19.3306 86.1632 19.2063C85.6662 19.0665 85.2158 18.8491 84.812 18.554C84.4082 18.2589 84.0821 17.8862 83.8336 17.4358C83.6006 16.9698 83.4841 16.4495 83.4841 15.8749C83.4841 15.176 83.6161 14.5935 83.8802 14.1276C84.1442 13.6617 84.4859 13.2889 84.9052 13.0094C85.3401 12.7298 85.8371 12.5357 86.3962 12.4269C86.9553 12.3027 87.5378 12.2406 88.1435 12.2406H92.1738C92.1738 11.6814 92.1117 11.1534 91.9874 10.6564C91.8787 10.1594 91.6924 9.72451 91.4283 9.35176C91.1643 8.97901 90.8148 8.68392 90.38 8.46648C89.9606 8.24904 89.4403 8.14033 88.8191 8.14033C88.524 8.14033 88.2211 8.16362 87.9105 8.21022C87.6154 8.25681 87.3281 8.33447 87.0485 8.44318C86.7845 8.5519 86.536 8.70721 86.303 8.90912C86.0856 9.09549 85.907 9.32846 85.7672 9.60802H84.0898C84.2296 9.09549 84.4626 8.66839 84.7887 8.3267C85.1149 7.96948 85.4954 7.68215 85.9303 7.46472C86.3807 7.23175 86.8544 7.06867 87.3514 6.97548C87.8639 6.8823 88.3687 6.8357 88.8657 6.8357C89.7665 6.8357 90.5275 6.98325 91.1488 7.27834C91.77 7.57344 92.267 7.98501 92.6398 8.51307C93.028 9.0256 93.2998 9.63132 93.4551 10.3302C93.626 11.0291 93.7114 11.7824 93.7114 12.59V19.2529H92.4534L92.2437 17.4823ZM88.9356 13.4753C88.5318 13.4753 88.0969 13.4908 87.6309 13.5219C87.1805 13.553 86.7612 13.6461 86.3729 13.8015C85.9846 13.9412 85.6585 14.1664 85.3944 14.4771C85.1459 14.7722 85.0217 15.1837 85.0217 15.7118C85.0217 16.1311 85.0994 16.4884 85.2547 16.7834C85.4255 17.0785 85.643 17.327 85.907 17.5289C86.1865 17.7308 86.4972 17.8784 86.8389 17.9716C87.1961 18.0648 87.5611 18.1114 87.9338 18.1114C88.5395 18.1114 89.0986 18.0337 89.6112 17.8784C90.1392 17.7231 90.5896 17.4901 90.9624 17.1795C91.3507 16.8533 91.6458 16.4573 91.8477 15.9914C92.0651 15.5099 92.1738 14.9508 92.1738 14.314V13.4753H88.9356Z" fill="#0B101B"/>
</svg>
