<svg width="151" height="42" viewBox="0 0 151 42" fill="none" xmlns="http://www.w3.org/2000/svg">
<path d="M1 11.1323V1H10.599M1 30.8637V40.4627H10.599" stroke="white" stroke-width="1.62176" stroke-linecap="round" stroke-linejoin="round"/>
<path d="M23.2181 32.4058H20.5151V29.865C16.5418 29.3785 14.7849 27.1351 14.7849 24.0808V23.6213H17.65V23.9186C17.65 26.162 18.5961 27.2972 22.3802 27.2972C25.0561 27.2972 26.0291 26.5675 26.0291 24.8916C26.0291 23.2429 25.4885 22.6482 22.7045 22.0806L19.6232 21.4589C16.5148 20.8643 14.839 19.3506 14.839 16.4855C14.839 14.0259 16.5959 11.7284 20.5151 11.377V8.89031H23.2181V11.4311C27.0292 11.9716 28.5969 14.5124 28.5969 17.3505V17.6748H25.7318V17.3775C25.7318 15.1611 24.7587 13.9988 21.5152 13.9988C18.8393 13.9988 17.7582 14.7557 17.7582 16.3504C17.7582 17.9992 18.4879 18.4587 20.9746 18.9993L24.056 19.648C27.4617 20.3507 28.9483 22.0536 28.9483 24.7835C28.9483 27.4324 27.1643 29.6488 23.2181 29.9461V32.4058ZM37.098 29.7029H34.1789V15.9179H30.3677V13.8367H31.0705C32.7733 13.8367 33.7734 13.215 34.5302 11.5932H37.098V29.7029ZM48.546 29.9731C43.6807 29.9731 40.7345 26.3782 40.7345 20.648C40.7345 14.9178 43.6807 11.3229 48.546 11.3229C53.4112 11.3229 56.3845 14.9178 56.3845 20.648C56.3845 26.3782 53.4112 29.9731 48.546 29.9731ZM48.546 27.1621C51.7625 27.1621 53.2761 25.4322 53.2761 20.648C53.2761 15.8639 51.7625 14.134 48.546 14.134C45.3295 14.134 43.8429 15.8639 43.8429 20.648C43.8429 25.4322 45.3295 27.1621 48.546 27.1621ZM67.5245 29.9731C62.6593 29.9731 59.7131 26.3782 59.7131 20.648C59.7131 14.9178 62.6593 11.3229 67.5245 11.3229C72.3898 11.3229 75.363 14.9178 75.363 20.648C75.363 26.3782 72.3898 29.9731 67.5245 29.9731ZM67.5245 27.1621C70.741 27.1621 72.2547 25.4322 72.2547 20.648C72.2547 15.8639 70.741 14.134 67.5245 14.134C64.3081 14.134 62.8214 15.8639 62.8214 20.648C62.8214 25.4322 64.3081 27.1621 67.5245 27.1621ZM78.6747 32.8923H77.7017V30.9732H78.5937C79.0532 30.9732 79.2964 30.8651 79.2964 30.2705V29.7029H77.6476V25.5133H81.3506V30.2164C81.3506 32.0274 80.3776 32.8923 78.6747 32.8923ZM91.4919 29.9731C86.6266 29.9731 83.6804 26.3782 83.6804 20.648C83.6804 14.9178 86.6266 11.3229 91.4919 11.3229C96.3572 11.3229 99.3304 14.9178 99.3304 20.648C99.3304 26.3782 96.3572 29.9731 91.4919 29.9731ZM91.4919 27.1621C94.7084 27.1621 96.222 25.4322 96.222 20.648C96.222 15.8639 94.7084 14.134 91.4919 14.134C88.2754 14.134 86.7888 15.8639 86.7888 20.648C86.7888 25.4322 88.2754 27.1621 91.4919 27.1621ZM110.47 29.9731C105.605 29.9731 102.659 26.3782 102.659 20.648C102.659 14.9178 105.605 11.3229 110.47 11.3229C115.336 11.3229 118.309 14.9178 118.309 20.648C118.309 26.3782 115.336 29.9731 110.47 29.9731ZM110.47 27.1621C113.687 27.1621 115.201 25.4322 115.201 20.648C115.201 15.8639 113.687 14.134 110.47 14.134C107.254 14.134 105.767 15.8639 105.767 20.648C105.767 25.4322 107.254 27.1621 110.47 27.1621ZM129.449 29.9731C124.584 29.9731 121.638 26.3782 121.638 20.648C121.638 14.9178 124.584 11.3229 129.449 11.3229C134.314 11.3229 137.288 14.9178 137.288 20.648C137.288 26.3782 134.314 29.9731 129.449 29.9731ZM129.449 27.1621C132.666 27.1621 134.179 25.4322 134.179 20.648C134.179 15.8639 132.666 14.134 129.449 14.134C126.233 14.134 124.746 15.8639 124.746 20.648C124.746 25.4322 126.233 27.1621 129.449 27.1621Z" fill="white"/>
<path d="M142.093 0.999908H149.559V11.1322M149.559 30.8636V40.4627H142.093" stroke="white" stroke-width="1.62176" stroke-linecap="round" stroke-linejoin="round"/>
</svg>
