<svg width="520" height="692" viewBox="0 0 520 692" fill="none" xmlns="http://www.w3.org/2000/svg">
<g opacity="0.12">
<line x1="40.4639" y1="118.134" x2="478.367" y2="118.134" stroke="black" stroke-width="0.342916"/>
<line x1="-0.000244156" y1="85.2143" x2="519.174" y2="85.2142" stroke="black" stroke-width="0.342916"/>
<line x1="12.6877" y1="27.6049" x2="506.487" y2="27.605" stroke="black" stroke-width="0.342916"/>
<line x1="12.6877" y1="0.171316" x2="506.487" y2="0.171359" stroke="black" stroke-width="0.342916"/>
<line x1="40.4639" y1="603.776" x2="478.367" y2="603.776" stroke="black" stroke-width="0.342916"/>
<line x1="40.4639" y1="574.829" x2="478.367" y2="574.829" stroke="black" stroke-width="0.342916"/>
<line x1="40.4639" y1="691.562" x2="478.367" y2="691.562" stroke="black" stroke-width="0.342916"/>
<line x1="40.4639" y1="661.615" x2="478.367" y2="661.615" stroke="black" stroke-width="0.342916"/>
<line x1="40.6354" y1="346.687" x2="40.6354" y2="27.4329" stroke="black" stroke-width="0.342916"/>
<line x1="478.196" y1="346.687" x2="478.196" y2="27.4329" stroke="black" stroke-width="0.342916"/>
<line x1="120.192" y1="315.825" x2="120.192" y2="271.932" stroke="black" stroke-width="0.342916"/>
<line x1="438.829" y1="661" x2="438.829" y2="85" stroke="black" stroke-width="0.342916"/>
<line x1="80.8285" y1="661" x2="80.8286" y2="85" stroke="black" stroke-width="0.342916"/>
<line x1="398.64" y1="315.825" x2="398.64" y2="271.932" stroke="black" stroke-width="0.342916"/>
<g clip-path="url(#clip0_2063_3257)">
<mask id="path-15-inside-1_2063_3257" fill="white">
<path d="M166 85L166 27L353.647 27L353.647 85L166 85Z"/>
</mask>
<line x1="187.993" y1="114.415" x2="143.566" y2="19.1389" stroke="black" stroke-width="0.487395"/>
<line x1="300.771" y1="114.415" x2="256.343" y2="19.1389" stroke="black" stroke-width="0.487395"/>
<line x1="244.382" y1="114.415" x2="199.954" y2="19.1389" stroke="black" stroke-width="0.487395"/>
<line x1="357.16" y1="114.415" x2="312.732" y2="19.1389" stroke="black" stroke-width="0.487395"/>
<line x1="196.049" y1="114.415" x2="151.621" y2="19.1389" stroke="black" stroke-width="0.487395"/>
<line x1="308.826" y1="114.415" x2="264.399" y2="19.1389" stroke="black" stroke-width="0.487395"/>
<line x1="252.437" y1="114.415" x2="208.01" y2="19.1389" stroke="black" stroke-width="0.487395"/>
<line x1="365.216" y1="114.415" x2="320.788" y2="19.1389" stroke="black" stroke-width="0.487395"/>
<line x1="204.104" y1="114.415" x2="159.677" y2="19.1389" stroke="black" stroke-width="0.487395"/>
<line x1="316.882" y1="114.415" x2="272.454" y2="19.1389" stroke="black" stroke-width="0.487395"/>
<line x1="260.493" y1="114.415" x2="216.066" y2="19.1389" stroke="black" stroke-width="0.487395"/>
<line x1="373.271" y1="114.415" x2="328.843" y2="19.1389" stroke="black" stroke-width="0.487395"/>
<line x1="212.16" y1="114.415" x2="167.732" y2="19.1389" stroke="black" stroke-width="0.487395"/>
<line x1="324.937" y1="114.415" x2="280.51" y2="19.1389" stroke="black" stroke-width="0.487395"/>
<line x1="268.549" y1="114.415" x2="224.121" y2="19.1389" stroke="black" stroke-width="0.487395"/>
<line x1="381.326" y1="114.415" x2="336.899" y2="19.1389" stroke="black" stroke-width="0.487395"/>
<line x1="220.216" y1="114.415" x2="175.788" y2="19.1389" stroke="black" stroke-width="0.487395"/>
<line x1="332.993" y1="114.415" x2="288.566" y2="19.1389" stroke="black" stroke-width="0.487395"/>
<line x1="276.604" y1="114.415" x2="232.177" y2="19.1389" stroke="black" stroke-width="0.487395"/>
<line x1="389.382" y1="114.415" x2="344.954" y2="19.1389" stroke="black" stroke-width="0.487395"/>
<line x1="228.271" y1="114.415" x2="183.843" y2="19.1389" stroke="black" stroke-width="0.487395"/>
<line x1="341.049" y1="114.415" x2="296.621" y2="19.1389" stroke="black" stroke-width="0.487395"/>
<line x1="284.66" y1="114.415" x2="240.232" y2="19.1389" stroke="black" stroke-width="0.487395"/>
<line x1="397.437" y1="114.415" x2="353.01" y2="19.1389" stroke="black" stroke-width="0.487395"/>
<line x1="236.326" y1="114.415" x2="191.899" y2="19.1389" stroke="black" stroke-width="0.487395"/>
<line x1="349.104" y1="114.415" x2="304.677" y2="19.1389" stroke="black" stroke-width="0.487395"/>
<line x1="292.716" y1="114.415" x2="248.288" y2="19.1389" stroke="black" stroke-width="0.487395"/>
</g>
<path d="M166.487 85L166.487 27L165.513 27L165.513 85L166.487 85ZM353.16 27L353.16 85L354.134 85L354.134 27L353.16 27Z" fill="black" mask="url(#path-15-inside-1_2063_3257)"/>
<g clip-path="url(#clip1_2063_3257)">
<mask id="path-44-inside-2_2063_3257" fill="white">
<path d="M478.025 117.963H518.832V249.985H478.025V117.963Z"/>
</mask>
<line x1="457.33" y1="133.436" x2="524.363" y2="102.178" stroke="black" stroke-width="0.342916"/>
<line x1="457.33" y1="212.783" x2="524.363" y2="181.525" stroke="black" stroke-width="0.342916"/>
<line x1="457.33" y1="173.11" x2="524.363" y2="141.852" stroke="black" stroke-width="0.342916"/>
<line x1="457.33" y1="252.457" x2="524.363" y2="221.199" stroke="black" stroke-width="0.342916"/>
<line x1="457.33" y1="139.104" x2="524.363" y2="107.846" stroke="black" stroke-width="0.342916"/>
<line x1="457.33" y1="218.451" x2="524.363" y2="187.193" stroke="black" stroke-width="0.342916"/>
<line x1="457.33" y1="178.777" x2="524.363" y2="147.519" stroke="black" stroke-width="0.342916"/>
<line x1="457.33" y1="258.125" x2="524.363" y2="226.867" stroke="black" stroke-width="0.342916"/>
<line x1="457.33" y1="144.772" x2="524.363" y2="113.514" stroke="black" stroke-width="0.342916"/>
<line x1="457.33" y1="224.119" x2="524.363" y2="192.861" stroke="black" stroke-width="0.342916"/>
<line x1="457.33" y1="184.445" x2="524.363" y2="153.187" stroke="black" stroke-width="0.342916"/>
<line x1="457.33" y1="263.792" x2="524.363" y2="232.534" stroke="black" stroke-width="0.342916"/>
<line x1="457.33" y1="150.439" x2="524.363" y2="119.181" stroke="black" stroke-width="0.342916"/>
<line x1="457.33" y1="229.786" x2="524.363" y2="198.528" stroke="black" stroke-width="0.342916"/>
<line x1="457.33" y1="190.113" x2="524.363" y2="158.855" stroke="black" stroke-width="0.342916"/>
<line x1="457.33" y1="269.46" x2="524.363" y2="238.202" stroke="black" stroke-width="0.342916"/>
<line x1="457.33" y1="156.107" x2="524.363" y2="124.849" stroke="black" stroke-width="0.342916"/>
<line x1="457.33" y1="235.454" x2="524.363" y2="204.196" stroke="black" stroke-width="0.342916"/>
<line x1="457.33" y1="195.78" x2="524.363" y2="164.522" stroke="black" stroke-width="0.342916"/>
<line x1="457.33" y1="275.128" x2="524.363" y2="243.87" stroke="black" stroke-width="0.342916"/>
<line x1="457.33" y1="161.774" x2="524.363" y2="130.516" stroke="black" stroke-width="0.342916"/>
<line x1="457.33" y1="241.122" x2="524.363" y2="209.864" stroke="black" stroke-width="0.342916"/>
<line x1="457.33" y1="201.448" x2="524.363" y2="170.19" stroke="black" stroke-width="0.342916"/>
<line x1="457.33" y1="280.795" x2="524.363" y2="249.537" stroke="black" stroke-width="0.342916"/>
<line x1="457.33" y1="167.442" x2="524.363" y2="136.184" stroke="black" stroke-width="0.342916"/>
<line x1="457.33" y1="246.789" x2="524.363" y2="215.531" stroke="black" stroke-width="0.342916"/>
<line x1="457.33" y1="207.116" x2="524.363" y2="175.858" stroke="black" stroke-width="0.342916"/>
</g>
<path d="M478.025 118.306H518.832V117.62H478.025V118.306ZM518.832 249.643H478.025V250.328H518.832V249.643Z" fill="black" mask="url(#path-44-inside-2_2063_3257)"/>
<g clip-path="url(#clip2_2063_3257)">
<mask id="path-73-inside-3_2063_3257" fill="white">
<path d="M0 117.963H40.807V249.985H0V117.963Z"/>
</mask>
<line x1="-20.695" y1="133.436" x2="46.3379" y2="102.178" stroke="black" stroke-width="0.342916"/>
<line x1="-20.695" y1="212.783" x2="46.3379" y2="181.525" stroke="black" stroke-width="0.342916"/>
<line x1="-20.695" y1="173.11" x2="46.3379" y2="141.852" stroke="black" stroke-width="0.342916"/>
<line x1="-20.695" y1="252.457" x2="46.3379" y2="221.199" stroke="black" stroke-width="0.342916"/>
<line x1="-20.695" y1="139.104" x2="46.3379" y2="107.846" stroke="black" stroke-width="0.342916"/>
<line x1="-20.695" y1="218.451" x2="46.3379" y2="187.193" stroke="black" stroke-width="0.342916"/>
<line x1="-20.695" y1="178.777" x2="46.3379" y2="147.519" stroke="black" stroke-width="0.342916"/>
<line x1="-20.695" y1="258.125" x2="46.3379" y2="226.867" stroke="black" stroke-width="0.342916"/>
<line x1="-20.695" y1="144.772" x2="46.3379" y2="113.514" stroke="black" stroke-width="0.342916"/>
<line x1="-20.695" y1="224.119" x2="46.3379" y2="192.861" stroke="black" stroke-width="0.342916"/>
<line x1="-20.695" y1="184.445" x2="46.3379" y2="153.187" stroke="black" stroke-width="0.342916"/>
<line x1="-20.695" y1="263.792" x2="46.3379" y2="232.534" stroke="black" stroke-width="0.342916"/>
<line x1="-20.695" y1="150.439" x2="46.3379" y2="119.181" stroke="black" stroke-width="0.342916"/>
<line x1="-20.695" y1="229.786" x2="46.3379" y2="198.528" stroke="black" stroke-width="0.342916"/>
<line x1="-20.695" y1="190.113" x2="46.3379" y2="158.855" stroke="black" stroke-width="0.342916"/>
<line x1="-20.695" y1="269.46" x2="46.3379" y2="238.202" stroke="black" stroke-width="0.342916"/>
<line x1="-20.695" y1="156.107" x2="46.3379" y2="124.849" stroke="black" stroke-width="0.342916"/>
<line x1="-20.695" y1="235.454" x2="46.3379" y2="204.196" stroke="black" stroke-width="0.342916"/>
<line x1="-20.695" y1="195.78" x2="46.3379" y2="164.522" stroke="black" stroke-width="0.342916"/>
<line x1="-20.695" y1="275.128" x2="46.3379" y2="243.87" stroke="black" stroke-width="0.342916"/>
<line x1="-20.695" y1="161.774" x2="46.3379" y2="130.516" stroke="black" stroke-width="0.342916"/>
<line x1="-20.695" y1="241.122" x2="46.3379" y2="209.864" stroke="black" stroke-width="0.342916"/>
<line x1="-20.695" y1="201.448" x2="46.3379" y2="170.19" stroke="black" stroke-width="0.342916"/>
<line x1="-20.695" y1="280.795" x2="46.3379" y2="249.537" stroke="black" stroke-width="0.342916"/>
<line x1="-20.695" y1="167.442" x2="46.3379" y2="136.184" stroke="black" stroke-width="0.342916"/>
<line x1="-20.695" y1="246.789" x2="46.3379" y2="215.531" stroke="black" stroke-width="0.342916"/>
<line x1="-20.695" y1="207.116" x2="46.3379" y2="175.858" stroke="black" stroke-width="0.342916"/>
</g>
<path d="M0 118.306H40.807V117.62H0V118.306ZM40.807 249.643H0V250.328H40.807V249.643Z" fill="black" mask="url(#path-73-inside-3_2063_3257)"/>
<g clip-path="url(#clip3_2063_3257)">
<mask id="path-102-inside-4_2063_3257" fill="white">
<path d="M166 662L166 604L353.647 604L353.647 662L166 662Z"/>
</mask>
<line x1="187.993" y1="691.415" x2="143.566" y2="596.139" stroke="black" stroke-width="0.487395"/>
<line x1="300.771" y1="691.415" x2="256.343" y2="596.139" stroke="black" stroke-width="0.487395"/>
<line x1="244.382" y1="691.415" x2="199.954" y2="596.139" stroke="black" stroke-width="0.487395"/>
<line x1="357.16" y1="691.415" x2="312.732" y2="596.139" stroke="black" stroke-width="0.487395"/>
<line x1="196.049" y1="691.415" x2="151.621" y2="596.139" stroke="black" stroke-width="0.487395"/>
<line x1="308.826" y1="691.415" x2="264.399" y2="596.139" stroke="black" stroke-width="0.487395"/>
<line x1="252.437" y1="691.415" x2="208.01" y2="596.139" stroke="black" stroke-width="0.487395"/>
<line x1="365.216" y1="691.415" x2="320.788" y2="596.139" stroke="black" stroke-width="0.487395"/>
<line x1="204.104" y1="691.415" x2="159.677" y2="596.139" stroke="black" stroke-width="0.487395"/>
<line x1="316.882" y1="691.415" x2="272.454" y2="596.139" stroke="black" stroke-width="0.487395"/>
<line x1="260.493" y1="691.415" x2="216.066" y2="596.139" stroke="black" stroke-width="0.487395"/>
<line x1="373.271" y1="691.415" x2="328.843" y2="596.139" stroke="black" stroke-width="0.487395"/>
<line x1="212.16" y1="691.415" x2="167.732" y2="596.139" stroke="black" stroke-width="0.487395"/>
<line x1="324.937" y1="691.415" x2="280.51" y2="596.139" stroke="black" stroke-width="0.487395"/>
<line x1="268.549" y1="691.415" x2="224.121" y2="596.139" stroke="black" stroke-width="0.487395"/>
<line x1="381.326" y1="691.415" x2="336.899" y2="596.139" stroke="black" stroke-width="0.487395"/>
<line x1="220.216" y1="691.415" x2="175.788" y2="596.139" stroke="black" stroke-width="0.487395"/>
<line x1="332.993" y1="691.415" x2="288.566" y2="596.139" stroke="black" stroke-width="0.487395"/>
<line x1="276.604" y1="691.415" x2="232.177" y2="596.139" stroke="black" stroke-width="0.487395"/>
<line x1="389.382" y1="691.415" x2="344.954" y2="596.139" stroke="black" stroke-width="0.487395"/>
<line x1="228.271" y1="691.415" x2="183.843" y2="596.139" stroke="black" stroke-width="0.487395"/>
<line x1="341.049" y1="691.415" x2="296.621" y2="596.139" stroke="black" stroke-width="0.487395"/>
<line x1="284.66" y1="691.415" x2="240.232" y2="596.139" stroke="black" stroke-width="0.487395"/>
<line x1="397.437" y1="691.415" x2="353.01" y2="596.139" stroke="black" stroke-width="0.487395"/>
<line x1="236.326" y1="691.415" x2="191.899" y2="596.139" stroke="black" stroke-width="0.487395"/>
<line x1="349.104" y1="691.415" x2="304.677" y2="596.139" stroke="black" stroke-width="0.487395"/>
<line x1="292.716" y1="691.415" x2="248.288" y2="596.139" stroke="black" stroke-width="0.487395"/>
</g>
<path d="M166.487 662L166.487 604L165.513 604L165.513 662L166.487 662ZM353.16 604L353.16 662L354.134 662L354.134 604L353.16 604Z" fill="black" mask="url(#path-102-inside-4_2063_3257)"/>
</g>
<defs>
<clipPath id="clip0_2063_3257">
<path d="M166 85L166 27L353.647 27L353.647 85L166 85Z" fill="white"/>
</clipPath>
<clipPath id="clip1_2063_3257">
<path d="M478.025 117.963H518.832V249.985H478.025V117.963Z" fill="white"/>
</clipPath>
<clipPath id="clip2_2063_3257">
<path d="M0 117.963H40.807V249.985H0V117.963Z" fill="white"/>
</clipPath>
<clipPath id="clip3_2063_3257">
<path d="M166 662L166 604L353.647 604L353.647 662L166 662Z" fill="white"/>
</clipPath>
</defs>
</svg>
