<svg width="1512" height="459" viewBox="0 0 1512 459" fill="none" xmlns="http://www.w3.org/2000/svg">
<g opacity="0.1">
<circle cx="386.511" cy="2.65122" r="1.93784" fill="#0B101B"/>
<circle cx="438.833" cy="2.65122" r="1.93784" fill="#0B101B"/>
<circle cx="491.155" cy="2.65122" r="1.93784" fill="#0B101B"/>
<circle cx="543.476" cy="2.65122" r="1.93784" fill="#0B101B"/>
<circle cx="595.798" cy="2.65122" r="1.93784" fill="#0B101B"/>
<circle cx="648.12" cy="2.65122" r="1.93784" fill="#0B101B"/>
<circle cx="700.441" cy="2.65122" r="1.93784" fill="#0B101B"/>
<circle cx="752.763" cy="2.65122" r="1.93784" fill="#0B101B"/>
<circle cx="805.085" cy="2.65122" r="1.93784" fill="#0B101B"/>
<circle cx="857.406" cy="2.65122" r="1.93784" fill="#0B101B"/>
<circle cx="909.728" cy="2.65122" r="1.93784" fill="#0B101B"/>
<circle cx="962.05" cy="2.65122" r="1.93784" fill="#0B101B"/>
<circle cx="1014.37" cy="2.65122" r="1.93784" fill="#0B101B"/>
<circle cx="1066.69" cy="2.65122" r="1.93784" fill="#0B101B"/>
<circle cx="1119.01" cy="2.65122" r="1.93784" fill="#0B101B"/>
<circle cx="1171.34" cy="2.65122" r="1.93784" fill="#0B101B"/>
<path d="M762.452 2.65137H794.427" stroke="#0B101B" stroke-width="0.96892"/>
<path d="M730.478 2.65137L742.105 2.65137" stroke="#0B101B" stroke-width="0.96892"/>
<path d="M814.774 2.65137H846.748" stroke="#0B101B" stroke-width="0.96892"/>
<path d="M867.096 2.65137H899.07" stroke="#0B101B" stroke-width="0.96892"/>
<path d="M919.417 2.65137H951.392" stroke="#0B101B" stroke-width="0.96892"/>
<path d="M971.739 2.65137H1003.71" stroke="#0B101B" stroke-width="0.96892"/>
<path d="M1024.06 2.65137H1056.03" stroke="#0B101B" stroke-width="0.96892"/>
<path d="M1076.38 2.65137H1108.36" stroke="#0B101B" stroke-width="0.96892"/>
<path d="M1128.7 2.65137H1160.68" stroke="#0B101B" stroke-width="0.96892"/>
<path d="M1181.03 2.65137H1213" stroke="#0B101B" stroke-width="0.96892"/>
</g>
<g opacity="0.1">
<circle cx="386.511" cy="456.117" r="1.93784" fill="#0B101B"/>
<circle cx="438.833" cy="456.117" r="1.93784" fill="#0B101B"/>
<circle cx="491.155" cy="456.117" r="1.93784" fill="#0B101B"/>
<circle cx="543.476" cy="456.117" r="1.93784" fill="#0B101B"/>
<circle cx="595.798" cy="456.117" r="1.93784" fill="#0B101B"/>
<circle cx="648.12" cy="456.117" r="1.93784" fill="#0B101B"/>
<circle cx="700.441" cy="456.117" r="1.93784" fill="#0B101B"/>
<circle cx="752.763" cy="456.117" r="1.93784" fill="#0B101B"/>
<circle cx="805.085" cy="456.117" r="1.93784" fill="#0B101B"/>
<circle cx="857.406" cy="456.117" r="1.93784" fill="#0B101B"/>
<circle cx="909.728" cy="456.117" r="1.93784" fill="#0B101B"/>
<circle cx="962.05" cy="456.117" r="1.93784" fill="#0B101B"/>
<circle cx="1014.37" cy="456.117" r="1.93784" fill="#0B101B"/>
<circle cx="1066.69" cy="456.117" r="1.93784" fill="#0B101B"/>
<circle cx="1119.01" cy="456.117" r="1.93784" fill="#0B101B"/>
<circle cx="1171.34" cy="456.117" r="1.93784" fill="#0B101B"/>
<path d="M762.452 456.116H794.427" stroke="#0B101B" stroke-width="0.96892"/>
<path d="M710.13 456.116H742.105" stroke="#0B101B" stroke-width="0.96892"/>
<path d="M814.774 456.116H846.748" stroke="#0B101B" stroke-width="0.96892"/>
<path d="M867.096 456.116H899.07" stroke="#0B101B" stroke-width="0.96892"/>
<path d="M919.417 456.116H951.392" stroke="#0B101B" stroke-width="0.96892"/>
<path d="M971.739 456.116H1003.71" stroke="#0B101B" stroke-width="0.96892"/>
<path d="M1024.06 456.116H1056.03" stroke="#0B101B" stroke-width="0.96892"/>
<path d="M1076.38 456.116H1108.36" stroke="#0B101B" stroke-width="0.96892"/>
<path d="M1128.7 456.116H1160.68" stroke="#0B101B" stroke-width="0.96892"/>
<path d="M1181.03 456.116H1213" stroke="#0B101B" stroke-width="0.96892"/>
</g>
<g opacity="0.1">
<circle cx="386.511" cy="405.733" r="1.93784" fill="#0B101B"/>
<circle cx="438.833" cy="405.733" r="1.93784" fill="#0B101B"/>
<circle cx="491.155" cy="405.733" r="1.93784" fill="#0B101B"/>
<circle cx="543.476" cy="405.733" r="1.93784" fill="#0B101B"/>
<circle cx="595.798" cy="405.733" r="1.93784" fill="#0B101B"/>
<circle cx="648.12" cy="405.733" r="1.93784" fill="#0B101B"/>
<circle cx="700.441" cy="405.733" r="1.93784" fill="#0B101B"/>
<circle cx="752.763" cy="405.733" r="1.93784" fill="#0B101B"/>
<circle cx="805.085" cy="405.733" r="1.93784" fill="#0B101B"/>
<circle cx="857.406" cy="405.733" r="1.93784" fill="#0B101B"/>
<circle cx="909.728" cy="405.733" r="1.93784" fill="#0B101B"/>
<circle cx="962.05" cy="405.733" r="1.93784" fill="#0B101B"/>
<circle cx="1014.37" cy="405.733" r="1.93784" fill="#0B101B"/>
<circle cx="1066.69" cy="405.733" r="1.93784" fill="#0B101B"/>
<circle cx="1119.01" cy="405.733" r="1.93784" fill="#0B101B"/>
<circle cx="1171.34" cy="405.733" r="1.93784" fill="#0B101B"/>
<path d="M762.452 405.732H794.427" stroke="#0B101B" stroke-width="0.96892"/>
<path d="M730.478 405.732L742.105 405.732" stroke="#0B101B" stroke-width="0.96892"/>
<path d="M814.774 405.732H846.748" stroke="#0B101B" stroke-width="0.96892"/>
<path d="M867.096 405.732H899.07" stroke="#0B101B" stroke-width="0.96892"/>
<path d="M919.417 405.732H951.392" stroke="#0B101B" stroke-width="0.96892"/>
<path d="M971.739 405.732H1003.71" stroke="#0B101B" stroke-width="0.96892"/>
<path d="M1024.06 405.732H1056.03" stroke="#0B101B" stroke-width="0.96892"/>
<path d="M1076.38 405.732H1108.36" stroke="#0B101B" stroke-width="0.96892"/>
<path d="M1128.7 405.732H1160.68" stroke="#0B101B" stroke-width="0.96892"/>
<path d="M1181.03 405.732H1213" stroke="#0B101B" stroke-width="0.96892"/>
</g>
<g opacity="0.1">
<circle cx="386.511" cy="204.197" r="1.93784" fill="#0B101B"/>
<circle cx="438.833" cy="204.197" r="1.93784" fill="#0B101B"/>
<circle cx="491.155" cy="204.197" r="1.93784" fill="#0B101B"/>
<circle cx="543.476" cy="204.197" r="1.93784" fill="#0B101B"/>
<circle cx="595.798" cy="204.197" r="1.93784" fill="#0B101B"/>
<circle cx="648.12" cy="204.197" r="1.93784" fill="#0B101B"/>
<circle cx="700.441" cy="204.197" r="1.93784" fill="#0B101B"/>
<circle cx="752.763" cy="204.197" r="1.93784" fill="#0B101B"/>
<circle cx="805.085" cy="204.197" r="1.93784" fill="#0B101B"/>
<circle cx="857.406" cy="204.197" r="1.93784" fill="#0B101B"/>
<circle cx="962.05" cy="204.197" r="1.93784" fill="#0B101B"/>
<circle cx="1013.94" cy="204.197" r="1.93784" fill="#0B101B"/>
<circle cx="909.938" cy="204.197" r="1.93784" fill="#0B101B"/>
<circle cx="1119.01" cy="204.197" r="1.93784" fill="#0B101B"/>
<circle cx="1171.34" cy="204.197" r="1.93784" fill="#0B101B"/>
<path d="M935 204L951 204" stroke="#0B101B" stroke-width="0.96892"/>
<path d="M971.739 204.197H1003.71" stroke="#0B101B" stroke-width="0.96892"/>
<path d="M1024.06 204.197H1056.03" stroke="#0B101B" stroke-width="0.96892"/>
<path d="M1076.38 204.197H1108.36" stroke="#0B101B" stroke-width="0.96892"/>
<path d="M1128.7 204.197H1160.68" stroke="#0B101B" stroke-width="0.96892"/>
<path d="M1181.03 204.197H1213" stroke="#0B101B" stroke-width="0.96892"/>
</g>
<g opacity="0.1">
<circle cx="386.511" cy="53.035" r="1.93784" fill="#0B101B"/>
<circle cx="438.833" cy="53.035" r="1.93784" fill="#0B101B"/>
<circle cx="491.155" cy="53.035" r="1.93784" fill="#0B101B"/>
<circle cx="543.476" cy="53.035" r="1.93784" fill="#0B101B"/>
<circle cx="595.798" cy="53.035" r="1.93784" fill="#0B101B"/>
<circle cx="648.12" cy="53.035" r="1.93784" fill="#0B101B"/>
<circle cx="700.441" cy="53.035" r="1.93784" fill="#0B101B"/>
<circle cx="752.763" cy="53.035" r="1.93784" fill="#0B101B"/>
<circle cx="805.085" cy="53.035" r="1.93784" fill="#0B101B"/>
<circle cx="857.406" cy="53.035" r="1.93784" fill="#0B101B"/>
<circle cx="962.05" cy="53.035" r="1.93784" fill="#0B101B"/>
<circle cx="1014.37" cy="53.035" r="1.93784" fill="#0B101B"/>
<circle cx="909.938" cy="53.035" r="1.93784" fill="#0B101B"/>
<circle cx="1066.69" cy="53.035" r="1.93784" fill="#0B101B"/>
<circle cx="1119.01" cy="53.035" r="1.93784" fill="#0B101B"/>
<circle cx="1171.34" cy="53.035" r="1.93784" fill="#0B101B"/>
<path d="M762.452 53.0352H794.427" stroke="#0B101B" stroke-width="0.96892"/>
<path d="M814.774 53.0352H846.748" stroke="#0B101B" stroke-width="0.96892"/>
<path d="M919.417 53.0352H951.392" stroke="#0B101B" stroke-width="0.96892"/>
<path d="M971.739 53.0352H1003.71" stroke="#0B101B" stroke-width="0.96892"/>
<path d="M867 53.0352H898.974" stroke="#0B101B" stroke-width="0.96892"/>
<path d="M1024.06 53.0352H1056.03" stroke="#0B101B" stroke-width="0.96892"/>
<path d="M1076.38 53.0352H1108.36" stroke="#0B101B" stroke-width="0.96892"/>
<path d="M1128.7 53.0352H1160.68" stroke="#0B101B" stroke-width="0.96892"/>
<path d="M1181.03 53.0352H1213" stroke="#0B101B" stroke-width="0.96892"/>
</g>
<path opacity="0.1" d="M805.085 42.8613L805.085 10.887" stroke="#0B101B" stroke-width="0.96892"/>
<path opacity="0.1" d="M805.085 398.95L805.085 366.976" stroke="#0B101B" stroke-width="0.96892"/>
<path opacity="0.1" d="M805.085 449.334L805.085 417.36" stroke="#0B101B" stroke-width="0.96892"/>
<path opacity="0.1" d="M752.763 449.334L752.763 417.36" stroke="#0B101B" stroke-width="0.96892"/>
<path opacity="0.1" d="M857.406 42.8613L857.406 10.887" stroke="#0B101B" stroke-width="0.96892"/>
<path opacity="0.1" d="M857.406 93.7402L857.406 61.7659" stroke="#0B101B" stroke-width="0.96892"/>
<path opacity="0.1" d="M857.406 297.214L857.406 265.24" stroke="#0B101B" stroke-width="0.96892"/>
<path opacity="0.1" d="M857.406 348.082L857.406 316.108" stroke="#0B101B" stroke-width="0.96892"/>
<path opacity="0.1" d="M857.406 398.95L857.406 366.976" stroke="#0B101B" stroke-width="0.96892"/>
<path opacity="0.1" d="M857.406 449.334L857.406 417.36" stroke="#0B101B" stroke-width="0.96892"/>
<path opacity="0.1" d="M909.728 42.8613L909.728 10.887" stroke="#0B101B" stroke-width="0.96892"/>
<path opacity="0.1" d="M909.728 144.609L909.728 112.635" stroke="#0B101B" stroke-width="0.96892"/>
<path opacity="0.1" d="M909.728 297.214L909.728 265.24" stroke="#0B101B" stroke-width="0.96892"/>
<path opacity="0.1" d="M909.728 348.082L909.728 316.108" stroke="#0B101B" stroke-width="0.96892"/>
<path opacity="0.1" d="M909.728 398.95L909.728 366.976" stroke="#0B101B" stroke-width="0.96892"/>
<path opacity="0.1" d="M909.728 449.334L909.728 417.36" stroke="#0B101B" stroke-width="0.96892"/>
<path opacity="0.1" d="M962.05 42.8613L962.05 10.887" stroke="#0B101B" stroke-width="0.96892"/>
<path opacity="0.1" d="M962.05 93.7402L962.05 61.7659" stroke="#0B101B" stroke-width="0.96892"/>
<path opacity="0.1" d="M962.05 144.609L962.05 112.635" stroke="#0B101B" stroke-width="0.96892"/>
<path opacity="0.1" d="M962.05 195.477L962.05 163.503" stroke="#0B101B" stroke-width="0.96892"/>
<path opacity="0.1" d="M962.05 297.214L962.05 265.24" stroke="#0B101B" stroke-width="0.96892"/>
<path opacity="0.1" d="M1014.05 195.477L1014.05 163.503" stroke="#0B101B" stroke-width="0.96892"/>
<path opacity="0.1" d="M1014.05 297.214L1014.05 265.24" stroke="#0B101B" stroke-width="0.96892"/>
<path opacity="0.1" d="M962.05 348.082L962.05 316.108" stroke="#0B101B" stroke-width="0.96892"/>
<path opacity="0.1" d="M962.05 398.95L962.05 366.976" stroke="#0B101B" stroke-width="0.96892"/>
<path opacity="0.1" d="M962.05 449.334L962.05 417.36" stroke="#0B101B" stroke-width="0.96892"/>
<path opacity="0.1" d="M1014.37 42.8613L1014.37 10.887" stroke="#0B101B" stroke-width="0.96892"/>
<path opacity="0.1" d="M1014.37 93.7402L1014.37 61.7659" stroke="#0B101B" stroke-width="0.96892"/>
<path opacity="0.1" d="M909.633 93.7402L909.633 61.7659" stroke="#0B101B" stroke-width="0.96892"/>
<path opacity="0.1" d="M1014.37 144.609L1014.37 112.635" stroke="#0B101B" stroke-width="0.96892"/>
<path opacity="0.1" d="M1014.37 348.082L1014.37 316.108" stroke="#0B101B" stroke-width="0.96892"/>
<path opacity="0.1" d="M1014.37 398.95L1014.37 366.976" stroke="#0B101B" stroke-width="0.96892"/>
<path opacity="0.1" d="M1014.37 449.334L1014.37 417.36" stroke="#0B101B" stroke-width="0.96892"/>
<path opacity="0.1" d="M1066.69 42.8613L1066.69 10.887" stroke="#0B101B" stroke-width="0.96892"/>
<path opacity="0.1" d="M1066.69 93.7402L1066.69 61.7659" stroke="#0B101B" stroke-width="0.96892"/>
<path opacity="0.1" d="M1066.69 144.609L1066.69 112.635" stroke="#0B101B" stroke-width="0.96892"/>
<path opacity="0.1" d="M1066.69 348.082L1066.69 316.108" stroke="#0B101B" stroke-width="0.96892"/>
<path opacity="0.1" d="M1066.69 398.95L1066.69 366.976" stroke="#0B101B" stroke-width="0.96892"/>
<path opacity="0.1" d="M1066.69 449.334L1066.69 417.36" stroke="#0B101B" stroke-width="0.96892"/>
<path opacity="0.1" d="M1119.01 42.8613L1119.01 10.887" stroke="#0B101B" stroke-width="0.96892"/>
<path opacity="0.1" d="M1119.01 93.7402L1119.01 61.7659" stroke="#0B101B" stroke-width="0.96892"/>
<path opacity="0.1" d="M1124 94L1124 62" stroke="#0B101B" stroke-width="0.96892"/>
<path opacity="0.1" d="M1129.2 94L1129.2 62" stroke="#0B101B" stroke-width="0.96892"/>
<path opacity="0.1" d="M1134.4 94L1134.4 62" stroke="#0B101B" stroke-width="0.96892"/>
<path opacity="0.1" d="M1139.6 94L1139.6 62" stroke="#0B101B" stroke-width="0.96892"/>
<path opacity="0.1" d="M1144.8 94L1144.8 62" stroke="#0B101B" stroke-width="0.96892"/>
<path opacity="0.1" d="M1150 94L1150 62" stroke="#0B101B" stroke-width="0.96892"/>
<path opacity="0.1" d="M1155.2 94L1155.2 62" stroke="#0B101B" stroke-width="0.96892"/>
<path opacity="0.1" d="M1160.4 94L1160.4 62" stroke="#0B101B" stroke-width="0.96892"/>
<path opacity="0.1" d="M1165.6 94L1165.6 62" stroke="#0B101B" stroke-width="0.96892"/>
<path opacity="0.1" d="M1229 348L1229 316" stroke="#0B101B" stroke-width="0.96892"/>
<path opacity="0.1" d="M1234.2 348L1234.2 316" stroke="#0B101B" stroke-width="0.96892"/>
<path opacity="0.1" d="M1239.4 348L1239.4 316" stroke="#0B101B" stroke-width="0.96892"/>
<path opacity="0.1" d="M1244.6 348L1244.6 316" stroke="#0B101B" stroke-width="0.96892"/>
<path opacity="0.1" d="M1249.8 348L1249.8 316" stroke="#0B101B" stroke-width="0.96892"/>
<path opacity="0.1" d="M1255 348L1255 316" stroke="#0B101B" stroke-width="0.96892"/>
<path opacity="0.1" d="M1260.2 348L1260.2 316" stroke="#0B101B" stroke-width="0.96892"/>
<path opacity="0.1" d="M1265.4 348L1265.4 316" stroke="#0B101B" stroke-width="0.96892"/>
<path opacity="0.1" d="M1270.6 348L1270.6 316" stroke="#0B101B" stroke-width="0.96892"/>
<path opacity="0.1" d="M1119.01 144.609L1119.01 112.635" stroke="#0B101B" stroke-width="0.96892"/>
<path opacity="0.1" d="M1119.01 195.477L1119.01 163.503" stroke="#0B101B" stroke-width="0.96892"/>
<path opacity="0.1" d="M1119.01 246.345L1119.01 214.371" stroke="#0B101B" stroke-width="0.96892"/>
<path opacity="0.1" d="M1119.01 297.214L1119.01 265.24" stroke="#0B101B" stroke-width="0.96892"/>
<path opacity="0.1" d="M1119.01 348.082L1119.01 316.108" stroke="#0B101B" stroke-width="0.96892"/>
<path opacity="0.1" d="M1119.01 398.95L1119.01 366.976" stroke="#0B101B" stroke-width="0.96892"/>
<path opacity="0.1" d="M1119.01 449.334L1119.01 417.36" stroke="#0B101B" stroke-width="0.96892"/>
<path opacity="0.1" d="M1171.34 42.8613L1171.34 10.887" stroke="#0B101B" stroke-width="0.96892"/>
<path opacity="0.1" d="M1171.34 93.7402L1171.34 61.7659" stroke="#0B101B" stroke-width="0.96892"/>
<path opacity="0.1" d="M1171.34 144.609L1171.34 112.635" stroke="#0B101B" stroke-width="0.96892"/>
<path opacity="0.1" d="M1171.34 195.477L1171.34 163.503" stroke="#0B101B" stroke-width="0.96892"/>
<path opacity="0.1" d="M1171.34 246.345L1171.34 214.371" stroke="#0B101B" stroke-width="0.96892"/>
<path opacity="0.1" d="M1171.34 297.214L1171.34 265.24" stroke="#0B101B" stroke-width="0.96892"/>
<path opacity="0.1" d="M1171.34 348.082L1171.34 316.108" stroke="#0B101B" stroke-width="0.96892"/>
<path opacity="0.1" d="M1171.34 398.95L1171.34 366.976" stroke="#0B101B" stroke-width="0.96892"/>
<path opacity="0.1" d="M1171.34 449.334L1171.34 417.36" stroke="#0B101B" stroke-width="0.96892"/>
<g opacity="0.1">
<circle cx="386.511" cy="355.346" r="1.93784" fill="#0B101B"/>
<circle cx="438.833" cy="355.346" r="1.93784" fill="#0B101B"/>
<circle cx="491.155" cy="355.346" r="1.93784" fill="#0B101B"/>
<circle cx="543.476" cy="355.346" r="1.93784" fill="#0B101B"/>
<circle cx="595.798" cy="355.346" r="1.93784" fill="#0B101B"/>
<circle cx="648.12" cy="355.346" r="1.93784" fill="#0B101B"/>
<circle cx="700.441" cy="355.346" r="1.93784" fill="#0B101B"/>
<circle cx="752.763" cy="355.346" r="1.93784" fill="#0B101B"/>
<circle cx="805.085" cy="355.346" r="1.93784" fill="#0B101B"/>
<circle cx="857.406" cy="355.346" r="1.93784" fill="#0B101B"/>
<circle cx="909.728" cy="355.346" r="1.93784" fill="#0B101B"/>
<circle cx="962.05" cy="355.346" r="1.93784" fill="#0B101B"/>
<circle cx="1014.37" cy="355.346" r="1.93784" fill="#0B101B"/>
<circle cx="1066.69" cy="355.346" r="1.93784" fill="#0B101B"/>
<circle cx="1119.01" cy="355.346" r="1.93784" fill="#0B101B"/>
<circle cx="1171.34" cy="355.346" r="1.93784" fill="#0B101B"/>
<path d="M762.452 355.346H794.427" stroke="#0B101B" stroke-width="0.96892"/>
<path d="M814.774 355.346H846.748" stroke="#0B101B" stroke-width="0.96892"/>
<path d="M867.096 355.346H899.07" stroke="#0B101B" stroke-width="0.96892"/>
<path d="M919.417 355.346H951.392" stroke="#0B101B" stroke-width="0.96892"/>
<path d="M971.739 355.346H1003.71" stroke="#0B101B" stroke-width="0.96892"/>
<path d="M1024.06 355.346H1056.03" stroke="#0B101B" stroke-width="0.96892"/>
<path d="M1076.38 355.346H1108.36" stroke="#0B101B" stroke-width="0.96892"/>
<path d="M1128.7 355.346H1160.68" stroke="#0B101B" stroke-width="0.96892"/>
<path d="M1181.03 355.346H1213" stroke="#0B101B" stroke-width="0.96892"/>
</g>
<g opacity="0.1">
<circle cx="386.511" cy="254.581" r="1.93784" fill="#0B101B"/>
<circle cx="438.833" cy="254.581" r="1.93784" fill="#0B101B"/>
<circle cx="491.155" cy="254.581" r="1.93784" fill="#0B101B"/>
<circle cx="543.476" cy="254.581" r="1.93784" fill="#0B101B"/>
<circle cx="595.798" cy="254.581" r="1.93784" fill="#0B101B"/>
<circle cx="648.12" cy="254.581" r="1.93784" fill="#0B101B"/>
<circle cx="700.441" cy="254.581" r="1.93784" fill="#0B101B"/>
<circle cx="752.763" cy="254.581" r="1.93784" fill="#0B101B"/>
<circle cx="805.085" cy="254.581" r="1.93784" fill="#0B101B"/>
<circle cx="857.406" cy="254.581" r="1.93784" fill="#0B101B"/>
<circle cx="909.728" cy="254.581" r="1.93784" fill="#0B101B"/>
<circle cx="962.05" cy="254.581" r="1.93784" fill="#0B101B"/>
<circle cx="1013.94" cy="254.581" r="1.93784" fill="#0B101B"/>
<circle cx="1119.01" cy="254.581" r="1.93784" fill="#0B101B"/>
<circle cx="1171.34" cy="254.581" r="1.93784" fill="#0B101B"/>
<path d="M882 255H899" stroke="#0B101B" stroke-width="0.96892"/>
<path d="M919.417 254.582H951.392" stroke="#0B101B" stroke-width="0.96892"/>
<path d="M971.739 254.582H1003.71" stroke="#0B101B" stroke-width="0.96892"/>
<path d="M1024.06 254.582H1056.03" stroke="#0B101B" stroke-width="0.96892"/>
<path d="M1076.38 254.582H1108.36" stroke="#0B101B" stroke-width="0.96892"/>
<path d="M1128.7 254.582H1160.68" stroke="#0B101B" stroke-width="0.96892"/>
<path d="M1181.03 254.582H1213" stroke="#0B101B" stroke-width="0.96892"/>
</g>
<g opacity="0.1">
<circle cx="386.511" cy="103.43" r="1.93784" fill="#0B101B"/>
<circle cx="438.833" cy="103.43" r="1.93784" fill="#0B101B"/>
<circle cx="491.155" cy="103.43" r="1.93784" fill="#0B101B"/>
<circle cx="543.476" cy="103.43" r="1.93784" fill="#0B101B"/>
<circle cx="595.798" cy="103.43" r="1.93784" fill="#0B101B"/>
<circle cx="648.12" cy="103.43" r="1.93784" fill="#0B101B"/>
<circle cx="700.441" cy="103.43" r="1.93784" fill="#0B101B"/>
<circle cx="752.763" cy="103.43" r="1.93784" fill="#0B101B"/>
<circle cx="805.085" cy="103.43" r="1.93784" fill="#0B101B"/>
<circle cx="857.406" cy="103.43" r="1.93784" fill="#0B101B"/>
<circle cx="909.728" cy="103.43" r="1.93784" fill="#0B101B"/>
<circle cx="962.05" cy="103.43" r="1.93784" fill="#0B101B"/>
<circle cx="1014.37" cy="103.43" r="1.93784" fill="#0B101B"/>
<circle cx="1066.69" cy="103.43" r="1.93784" fill="#0B101B"/>
<circle cx="1119.01" cy="103.43" r="1.93784" fill="#0B101B"/>
<circle cx="1171.34" cy="103.43" r="1.93784" fill="#0B101B"/>
<path d="M814.774 103.43H846.748" stroke="#0B101B" stroke-width="0.96892"/>
<path d="M867.096 103.43H899.07" stroke="#0B101B" stroke-width="0.96892"/>
<path d="M919.417 103.43H951.392" stroke="#0B101B" stroke-width="0.96892"/>
<path d="M971.739 103.43H1003.71" stroke="#0B101B" stroke-width="0.96892"/>
<path d="M1024.06 103.43H1056.03" stroke="#0B101B" stroke-width="0.96892"/>
<path d="M1076.38 103.43H1108.36" stroke="#0B101B" stroke-width="0.96892"/>
<path d="M1128.7 103.43H1160.68" stroke="#0B101B" stroke-width="0.96892"/>
<path d="M1181.03 103.43H1213" stroke="#0B101B" stroke-width="0.96892"/>
</g>
<g opacity="0.1">
<circle cx="386.511" cy="304.965" r="1.93784" fill="#0B101B"/>
<circle cx="438.833" cy="304.965" r="1.93784" fill="#0B101B"/>
<circle cx="491.155" cy="304.965" r="1.93784" fill="#0B101B"/>
<circle cx="543.476" cy="304.965" r="1.93784" fill="#0B101B"/>
<circle cx="595.798" cy="304.965" r="1.93784" fill="#0B101B"/>
<circle cx="648.12" cy="304.965" r="1.93784" fill="#0B101B"/>
<circle cx="700.441" cy="304.965" r="1.93784" fill="#0B101B"/>
<circle cx="752.763" cy="304.965" r="1.93784" fill="#0B101B"/>
<circle cx="805.085" cy="304.965" r="1.93784" fill="#0B101B"/>
<circle cx="857.406" cy="304.965" r="1.93784" fill="#0B101B"/>
<circle cx="909.728" cy="304.965" r="1.93784" fill="#0B101B"/>
<circle cx="962.05" cy="304.965" r="1.93784" fill="#0B101B"/>
<circle cx="1014.37" cy="304.965" r="1.93784" fill="#0B101B"/>
<circle cx="1066.69" cy="304.965" r="1.93784" fill="#0B101B"/>
<circle cx="1119.01" cy="304.965" r="1.93784" fill="#0B101B"/>
<circle cx="1171.34" cy="304.965" r="1.93784" fill="#0B101B"/>
<path d="M814.774 304.965H846.748" stroke="#0B101B" stroke-width="0.96892"/>
<path d="M867.096 304.965H899.07" stroke="#0B101B" stroke-width="0.96892"/>
<path d="M919.417 304.965H951.392" stroke="#0B101B" stroke-width="0.96892"/>
<path d="M971.739 304.965H1003.71" stroke="#0B101B" stroke-width="0.96892"/>
<path d="M1024.06 304.965H1056.03" stroke="#0B101B" stroke-width="0.96892"/>
<path d="M1076.38 304.965H1108.36" stroke="#0B101B" stroke-width="0.96892"/>
<path d="M1128.7 304.965H1160.68" stroke="#0B101B" stroke-width="0.96892"/>
<path d="M1181.03 304.965H1213" stroke="#0B101B" stroke-width="0.96892"/>
</g>
<g opacity="0.1">
<circle cx="386.511" cy="153.813" r="1.93784" fill="#0B101B"/>
<circle cx="438.833" cy="153.813" r="1.93784" fill="#0B101B"/>
<circle cx="491.155" cy="153.813" r="1.93784" fill="#0B101B"/>
<circle cx="543.476" cy="153.813" r="1.93784" fill="#0B101B"/>
<circle cx="595.798" cy="153.813" r="1.93784" fill="#0B101B"/>
<circle cx="648.12" cy="153.813" r="1.93784" fill="#0B101B"/>
<circle cx="700.441" cy="153.813" r="1.93784" fill="#0B101B"/>
<circle cx="752.763" cy="153.813" r="1.93784" fill="#0B101B"/>
<circle cx="805.085" cy="153.813" r="1.93784" fill="#0B101B"/>
<circle cx="857.406" cy="153.813" r="1.93784" fill="#0B101B"/>
<circle cx="909.728" cy="153.813" r="1.93784" fill="#0B101B"/>
<circle cx="962.05" cy="153.813" r="1.93784" fill="#0B101B"/>
<circle cx="1014.37" cy="153.813" r="1.93784" fill="#0B101B"/>
<circle cx="1066.69" cy="153.813" r="1.93784" fill="#0B101B"/>
<circle cx="1119.01" cy="153.813" r="1.93784" fill="#0B101B"/>
<circle cx="1171.34" cy="153.813" r="1.93784" fill="#0B101B"/>
<path d="M882 154H899" stroke="#0B101B" stroke-width="0.96892"/>
<path d="M919.417 153.813H951.392" stroke="#0B101B" stroke-width="0.96892"/>
<path d="M971.739 153.813H1003.71" stroke="#0B101B" stroke-width="0.96892"/>
<path d="M1024.06 153.813H1056.03" stroke="#0B101B" stroke-width="0.96892"/>
<path d="M1076.38 153.813H1108.36" stroke="#0B101B" stroke-width="0.96892"/>
<path d="M1128.7 153.813H1160.68" stroke="#0B101B" stroke-width="0.96892"/>
<path d="M1181.03 153.813H1213" stroke="#0B101B" stroke-width="0.96892"/>
</g>
<circle opacity="0.1" cx="1223.34" cy="2.65122" r="1.93784" fill="#0B101B"/>
<circle opacity="0.1" cx="1274.94" cy="2.65122" r="1.93784" fill="#0B101B"/>
<circle opacity="0.1" cx="1326.54" cy="2.65122" r="1.93784" fill="#0B101B"/>
<circle opacity="0.1" cx="1378.14" cy="2.65122" r="1.93784" fill="#0B101B"/>
<circle opacity="0.1" cx="1429.74" cy="2.65122" r="1.93784" fill="#0B101B"/>
<circle opacity="0.1" cx="1481.34" cy="2.65122" r="1.93784" fill="#0B101B"/>
<path opacity="0.1" d="M1233.03 2.65137H1265" stroke="#0B101B" stroke-width="0.96892"/>
<path opacity="0.1" d="M1284.63 2.65137H1316.6" stroke="#0B101B" stroke-width="0.96892"/>
<path opacity="0.1" d="M1336.23 2.65137H1368.2" stroke="#0B101B" stroke-width="0.96892"/>
<path opacity="0.1" d="M1387.83 2.65137H1419.8" stroke="#0B101B" stroke-width="0.96892"/>
<path opacity="0.1" d="M1439.43 2.65137H1471.41" stroke="#0B101B" stroke-width="0.96892"/>
<path opacity="0.1" d="M1491.03 2.65137H1523.01" stroke="#0B101B" stroke-width="0.96892"/>
<circle opacity="0.1" cx="1223.34" cy="456.115" r="1.93784" fill="#0B101B"/>
<circle opacity="0.1" cx="1274.94" cy="456.108" r="1.93784" fill="#0B101B"/>
<circle opacity="0.1" cx="1326.54" cy="456.108" r="1.93784" fill="#0B101B"/>
<circle opacity="0.1" cx="1378.14" cy="456.107" r="1.93784" fill="#0B101B"/>
<circle opacity="0.1" cx="1429.74" cy="456.107" r="1.93784" fill="#0B101B"/>
<circle opacity="0.1" cx="1481.34" cy="456.107" r="1.93784" fill="#0B101B"/>
<path opacity="0.1" d="M1233.03 456.114H1265" stroke="#0B101B" stroke-width="0.96892"/>
<path opacity="0.1" d="M1284.63 456.107H1316.6" stroke="#0B101B" stroke-width="0.96892"/>
<path opacity="0.1" d="M1336.23 456.107H1368.2" stroke="#0B101B" stroke-width="0.96892"/>
<path opacity="0.1" d="M1387.83 456.107H1419.8" stroke="#0B101B" stroke-width="0.96892"/>
<path opacity="0.1" d="M1439.43 456.107H1471.41" stroke="#0B101B" stroke-width="0.96892"/>
<path opacity="0.1" d="M1491.03 456.106H1523.01" stroke="#0B101B" stroke-width="0.96892"/>
<circle opacity="0.1" cx="1223.34" cy="405.731" r="1.93784" fill="#0B101B"/>
<circle opacity="0.1" cx="1274.94" cy="405.724" r="1.93784" fill="#0B101B"/>
<circle opacity="0.1" cx="1326.54" cy="405.724" r="1.93784" fill="#0B101B"/>
<circle opacity="0.1" cx="1378.14" cy="405.723" r="1.93784" fill="#0B101B"/>
<circle opacity="0.1" cx="1429.74" cy="405.723" r="1.93784" fill="#0B101B"/>
<circle opacity="0.1" cx="1481.34" cy="405.723" r="1.93784" fill="#0B101B"/>
<path opacity="0.1" d="M1233.03 405.73H1265" stroke="#0B101B" stroke-width="0.96892"/>
<path opacity="0.1" d="M1284.63 405.724H1316.6" stroke="#0B101B" stroke-width="0.96892"/>
<path opacity="0.1" d="M1336.23 405.724H1368.2" stroke="#0B101B" stroke-width="0.96892"/>
<path opacity="0.1" d="M1387.83 405.723H1419.8" stroke="#0B101B" stroke-width="0.96892"/>
<path opacity="0.1" d="M1439.43 405.723H1471.41" stroke="#0B101B" stroke-width="0.96892"/>
<path opacity="0.1" d="M1491.03 405.723H1523.01" stroke="#0B101B" stroke-width="0.96892"/>
<circle opacity="0.1" cx="1223.34" cy="204.196" r="1.93784" fill="#0B101B"/>
<circle opacity="0.1" cx="1274.94" cy="204.189" r="1.93784" fill="#0B101B"/>
<circle opacity="0.1" cx="1326.54" cy="204.189" r="1.93784" fill="#0B101B"/>
<circle opacity="0.1" cx="1378.14" cy="204.188" r="1.93784" fill="#0B101B"/>
<circle opacity="0.1" cx="1429.74" cy="204.188" r="1.93784" fill="#0B101B"/>
<circle opacity="0.1" cx="1481.34" cy="204.188" r="1.93784" fill="#0B101B"/>
<path opacity="0.1" d="M1233.03 204.195H1265" stroke="#0B101B" stroke-width="0.96892"/>
<path opacity="0.1" d="M1284.63 204.188H1316.6" stroke="#0B101B" stroke-width="0.96892"/>
<path opacity="0.1" d="M1336.23 204.188H1368.2" stroke="#0B101B" stroke-width="0.96892"/>
<path opacity="0.1" d="M1387.83 204.188H1419.8" stroke="#0B101B" stroke-width="0.96892"/>
<path opacity="0.1" d="M1439.43 204.188H1471.41" stroke="#0B101B" stroke-width="0.96892"/>
<path opacity="0.1" d="M1491.03 204.188H1523.01" stroke="#0B101B" stroke-width="0.96892"/>
<circle opacity="0.1" cx="1223.34" cy="53.035" r="1.93784" fill="#0B101B"/>
<circle opacity="0.1" cx="1274.94" cy="53.035" r="1.93784" fill="#0B101B"/>
<circle opacity="0.1" cx="1326.54" cy="53.035" r="1.93784" fill="#0B101B"/>
<circle opacity="0.1" cx="1378.14" cy="53.035" r="1.93784" fill="#0B101B"/>
<circle opacity="0.1" cx="1429.74" cy="53.035" r="1.93784" fill="#0B101B"/>
<circle opacity="0.1" cx="1481.34" cy="53.035" r="1.93784" fill="#0B101B"/>
<path opacity="0.1" d="M1233.03 53.0352H1265" stroke="#0B101B" stroke-width="0.96892"/>
<path opacity="0.1" d="M1284.63 53.0352H1316.6" stroke="#0B101B" stroke-width="0.96892"/>
<path opacity="0.1" d="M1336.23 53.0352H1368.2" stroke="#0B101B" stroke-width="0.96892"/>
<path opacity="0.1" d="M1387.83 53.0352H1419.8" stroke="#0B101B" stroke-width="0.96892"/>
<path opacity="0.1" d="M1439.43 53.0352H1471.41" stroke="#0B101B" stroke-width="0.96892"/>
<path opacity="0.1" d="M1491.03 53.0352H1523.01" stroke="#0B101B" stroke-width="0.96892"/>
<path opacity="0.1" d="M1223.34 42.8613L1223.34 10.887" stroke="#0B101B" stroke-width="0.96892"/>
<path opacity="0.1" d="M1274.94 42.8613L1274.94 10.887" stroke="#0B101B" stroke-width="0.96892"/>
<path opacity="0.1" d="M1326.54 42.8613L1326.54 10.887" stroke="#0B101B" stroke-width="0.96892"/>
<path opacity="0.1" d="M1378.14 42.8613L1378.14 10.887" stroke="#0B101B" stroke-width="0.96892"/>
<path opacity="0.1" d="M1429.74 42.8613L1429.74 10.887" stroke="#0B101B" stroke-width="0.96892"/>
<path opacity="0.1" d="M1481.34 42.8613L1481.34 10.887" stroke="#0B101B" stroke-width="0.96892"/>
<path opacity="0.1" d="M1223.34 93.7383L1223.34 61.7639" stroke="#0B101B" stroke-width="0.96892"/>
<path opacity="0.1" d="M1274.94 93.7314L1274.94 61.7571" stroke="#0B101B" stroke-width="0.96892"/>
<path opacity="0.1" d="M1326.54 93.7314L1326.54 61.7571" stroke="#0B101B" stroke-width="0.96892"/>
<path opacity="0.1" d="M1378.14 93.731L1378.14 61.7566" stroke="#0B101B" stroke-width="0.96892"/>
<path opacity="0.1" d="M1429.74 93.731L1429.74 61.7566" stroke="#0B101B" stroke-width="0.96892"/>
<path opacity="0.1" d="M1481.34 93.7305L1481.34 61.7561" stroke="#0B101B" stroke-width="0.96892"/>
<path opacity="0.1" d="M1223.34 144.606L1223.34 112.632" stroke="#0B101B" stroke-width="0.96892"/>
<path opacity="0.1" d="M1274.94 144.6L1274.94 112.625" stroke="#0B101B" stroke-width="0.96892"/>
<path opacity="0.1" d="M1326.54 144.6L1326.54 112.625" stroke="#0B101B" stroke-width="0.96892"/>
<path opacity="0.1" d="M1378.14 144.599L1378.14 112.625" stroke="#0B101B" stroke-width="0.96892"/>
<path opacity="0.1" d="M1429.74 144.599L1429.74 112.625" stroke="#0B101B" stroke-width="0.96892"/>
<path opacity="0.1" d="M1481.34 144.599L1481.34 112.624" stroke="#0B101B" stroke-width="0.96892"/>
<path opacity="0.1" d="M1223.34 195.476L1223.34 163.501" stroke="#0B101B" stroke-width="0.96892"/>
<path opacity="0.1" d="M1274.94 195.469L1274.94 163.494" stroke="#0B101B" stroke-width="0.96892"/>
<path opacity="0.1" d="M1326.54 195.469L1326.54 163.494" stroke="#0B101B" stroke-width="0.96892"/>
<path opacity="0.1" d="M1378.14 195.468L1378.14 163.494" stroke="#0B101B" stroke-width="0.96892"/>
<path opacity="0.1" d="M1429.74 195.468L1429.74 163.494" stroke="#0B101B" stroke-width="0.96892"/>
<path opacity="0.1" d="M1481.34 195.468L1481.34 163.493" stroke="#0B101B" stroke-width="0.96892"/>
<path opacity="0.1" d="M1223.34 246.344L1223.34 214.369" stroke="#0B101B" stroke-width="0.96892"/>
<path opacity="0.1" d="M1274.94 246.337L1274.94 214.363" stroke="#0B101B" stroke-width="0.96892"/>
<path opacity="0.1" d="M1326.54 246.337L1326.54 214.363" stroke="#0B101B" stroke-width="0.96892"/>
<path opacity="0.1" d="M1378.14 246.336L1378.14 214.362" stroke="#0B101B" stroke-width="0.96892"/>
<path opacity="0.1" d="M1429.74 246.336L1429.74 214.362" stroke="#0B101B" stroke-width="0.96892"/>
<path opacity="0.1" d="M1481.34 246.336L1481.34 214.362" stroke="#0B101B" stroke-width="0.96892"/>
<path opacity="0.1" d="M1223.34 297.212L1223.34 265.238" stroke="#0B101B" stroke-width="0.96892"/>
<path opacity="0.1" d="M1274.94 297.205L1274.94 265.231" stroke="#0B101B" stroke-width="0.96892"/>
<path opacity="0.1" d="M1326.54 297.205L1326.54 265.231" stroke="#0B101B" stroke-width="0.96892"/>
<path opacity="0.1" d="M1378.14 297.205L1378.14 265.23" stroke="#0B101B" stroke-width="0.96892"/>
<path opacity="0.1" d="M1429.74 297.205L1429.74 265.23" stroke="#0B101B" stroke-width="0.96892"/>
<path opacity="0.1" d="M1481.34 297.204L1481.34 265.23" stroke="#0B101B" stroke-width="0.96892"/>
<path opacity="0.1" d="M1223.34 348.08L1223.34 316.106" stroke="#0B101B" stroke-width="0.96892"/>
<path opacity="0.1" d="M1274.94 348.073L1274.94 316.099" stroke="#0B101B" stroke-width="0.96892"/>
<path opacity="0.1" d="M1326.54 348.073L1326.54 316.099" stroke="#0B101B" stroke-width="0.96892"/>
<path opacity="0.1" d="M1378.14 348.073L1378.14 316.098" stroke="#0B101B" stroke-width="0.96892"/>
<path opacity="0.1" d="M1429.74 348.073L1429.74 316.098" stroke="#0B101B" stroke-width="0.96892"/>
<path opacity="0.1" d="M1481.34 348.072L1481.34 316.098" stroke="#0B101B" stroke-width="0.96892"/>
<path opacity="0.1" d="M1223.34 398.948L1223.34 366.974" stroke="#0B101B" stroke-width="0.96892"/>
<path opacity="0.1" d="M1274.94 398.941L1274.94 366.967" stroke="#0B101B" stroke-width="0.96892"/>
<path opacity="0.1" d="M1326.54 398.941L1326.54 366.967" stroke="#0B101B" stroke-width="0.96892"/>
<path opacity="0.1" d="M1378.14 398.941L1378.14 366.967" stroke="#0B101B" stroke-width="0.96892"/>
<path opacity="0.1" d="M1429.74 398.941L1429.74 366.967" stroke="#0B101B" stroke-width="0.96892"/>
<path opacity="0.1" d="M1481.34 398.94L1481.34 366.966" stroke="#0B101B" stroke-width="0.96892"/>
<path opacity="0.1" d="M1223.34 449.332L1223.34 417.358" stroke="#0B101B" stroke-width="0.96892"/>
<path opacity="0.1" d="M1274.94 449.325L1274.94 417.351" stroke="#0B101B" stroke-width="0.96892"/>
<path opacity="0.1" d="M1326.54 449.325L1326.54 417.351" stroke="#0B101B" stroke-width="0.96892"/>
<path opacity="0.1" d="M1378.14 449.325L1378.14 417.35" stroke="#0B101B" stroke-width="0.96892"/>
<path opacity="0.1" d="M1429.74 449.325L1429.74 417.35" stroke="#0B101B" stroke-width="0.96892"/>
<path opacity="0.1" d="M1481.34 449.324L1481.34 417.35" stroke="#0B101B" stroke-width="0.96892"/>
<circle opacity="0.1" cx="1223.34" cy="355.346" r="1.93784" fill="#0B101B"/>
<circle opacity="0.1" cx="1274.94" cy="355.339" r="1.93784" fill="#0B101B"/>
<circle opacity="0.1" cx="1326.54" cy="355.339" r="1.93784" fill="#0B101B"/>
<circle opacity="0.1" cx="1378.14" cy="355.339" r="1.93784" fill="#0B101B"/>
<circle opacity="0.1" cx="1429.74" cy="355.339" r="1.93784" fill="#0B101B"/>
<circle opacity="0.1" cx="1481.34" cy="355.338" r="1.93784" fill="#0B101B"/>
<path opacity="0.1" d="M1233.03 355.346H1265" stroke="#0B101B" stroke-width="0.96892"/>
<path opacity="0.1" d="M1284.63 355.339H1316.6" stroke="#0B101B" stroke-width="0.96892"/>
<path opacity="0.1" d="M1336.23 355.339H1368.2" stroke="#0B101B" stroke-width="0.96892"/>
<path opacity="0.1" d="M1387.83 355.338H1419.8" stroke="#0B101B" stroke-width="0.96892"/>
<path opacity="0.1" d="M1439.43 355.338H1471.41" stroke="#0B101B" stroke-width="0.96892"/>
<path opacity="0.1" d="M1491.03 355.338H1523.01" stroke="#0B101B" stroke-width="0.96892"/>
<circle opacity="0.1" cx="1223.34" cy="254.579" r="1.93784" fill="#0B101B"/>
<circle opacity="0.1" cx="1274.94" cy="254.573" r="1.93784" fill="#0B101B"/>
<circle opacity="0.1" cx="1326.54" cy="254.573" r="1.93784" fill="#0B101B"/>
<circle opacity="0.1" cx="1378.14" cy="254.572" r="1.93784" fill="#0B101B"/>
<circle opacity="0.1" cx="1429.74" cy="254.572" r="1.93784" fill="#0B101B"/>
<circle opacity="0.1" cx="1481.34" cy="254.572" r="1.93784" fill="#0B101B"/>
<path opacity="0.1" d="M1233.03 254.579H1265" stroke="#0B101B" stroke-width="0.96892"/>
<path opacity="0.1" d="M1284.63 254.572H1316.6" stroke="#0B101B" stroke-width="0.96892"/>
<path opacity="0.1" d="M1336.23 254.572H1368.2" stroke="#0B101B" stroke-width="0.96892"/>
<path opacity="0.1" d="M1387.83 254.572H1419.8" stroke="#0B101B" stroke-width="0.96892"/>
<path opacity="0.1" d="M1439.43 254.572H1471.41" stroke="#0B101B" stroke-width="0.96892"/>
<path opacity="0.1" d="M1491.03 254.571H1523.01" stroke="#0B101B" stroke-width="0.96892"/>
<circle opacity="0.1" cx="1223.34" cy="103.428" r="1.93784" fill="#0B101B"/>
<circle opacity="0.1" cx="1274.94" cy="103.421" r="1.93784" fill="#0B101B"/>
<circle opacity="0.1" cx="1326.54" cy="103.421" r="1.93784" fill="#0B101B"/>
<circle opacity="0.1" cx="1378.14" cy="103.421" r="1.93784" fill="#0B101B"/>
<circle opacity="0.1" cx="1429.74" cy="103.421" r="1.93784" fill="#0B101B"/>
<circle opacity="0.1" cx="1481.34" cy="103.42" r="1.93784" fill="#0B101B"/>
<path opacity="0.1" d="M1233.03 103.428H1265" stroke="#0B101B" stroke-width="0.96892"/>
<path opacity="0.1" d="M1284.63 103.421H1316.6" stroke="#0B101B" stroke-width="0.96892"/>
<path opacity="0.1" d="M1336.23 103.421H1368.2" stroke="#0B101B" stroke-width="0.96892"/>
<path opacity="0.1" d="M1387.83 103.42H1419.8" stroke="#0B101B" stroke-width="0.96892"/>
<path opacity="0.1" d="M1439.43 103.42H1471.41" stroke="#0B101B" stroke-width="0.96892"/>
<path opacity="0.1" d="M1491.03 103.42H1523.01" stroke="#0B101B" stroke-width="0.96892"/>
<circle opacity="0.1" cx="1223.34" cy="304.963" r="1.93784" fill="#0B101B"/>
<circle opacity="0.1" cx="1274.94" cy="304.956" r="1.93784" fill="#0B101B"/>
<circle opacity="0.1" cx="1326.54" cy="304.956" r="1.93784" fill="#0B101B"/>
<circle opacity="0.1" cx="1378.14" cy="304.956" r="1.93784" fill="#0B101B"/>
<circle opacity="0.1" cx="1429.74" cy="304.956" r="1.93784" fill="#0B101B"/>
<circle opacity="0.1" cx="1481.34" cy="304.955" r="1.93784" fill="#0B101B"/>
<path opacity="0.1" d="M1233.03 304.963H1265" stroke="#0B101B" stroke-width="0.96892"/>
<path opacity="0.1" d="M1284.63 304.956H1316.6" stroke="#0B101B" stroke-width="0.96892"/>
<path opacity="0.1" d="M1336.23 304.956H1368.2" stroke="#0B101B" stroke-width="0.96892"/>
<path opacity="0.1" d="M1387.83 304.956H1419.8" stroke="#0B101B" stroke-width="0.96892"/>
<path opacity="0.1" d="M1439.43 304.956H1471.41" stroke="#0B101B" stroke-width="0.96892"/>
<path opacity="0.1" d="M1491.03 304.955H1523.01" stroke="#0B101B" stroke-width="0.96892"/>
<circle opacity="0.1" cx="1223.34" cy="153.812" r="1.93784" fill="#0B101B"/>
<circle opacity="0.1" cx="1274.94" cy="153.805" r="1.93784" fill="#0B101B"/>
<circle opacity="0.1" cx="1326.54" cy="153.805" r="1.93784" fill="#0B101B"/>
<circle opacity="0.1" cx="1378.14" cy="153.805" r="1.93784" fill="#0B101B"/>
<circle opacity="0.1" cx="1429.74" cy="153.805" r="1.93784" fill="#0B101B"/>
<circle opacity="0.1" cx="1481.34" cy="153.804" r="1.93784" fill="#0B101B"/>
<path opacity="0.1" d="M1233.03 153.812H1265" stroke="#0B101B" stroke-width="0.96892"/>
<path opacity="0.1" d="M1284.63 153.805H1316.6" stroke="#0B101B" stroke-width="0.96892"/>
<path opacity="0.1" d="M1336.23 153.805H1368.2" stroke="#0B101B" stroke-width="0.96892"/>
<path opacity="0.1" d="M1387.83 153.804H1419.8" stroke="#0B101B" stroke-width="0.96892"/>
<path opacity="0.1" d="M1439.43 153.804H1471.41" stroke="#0B101B" stroke-width="0.96892"/>
<path opacity="0.1" d="M1491.03 153.804H1523.01" stroke="#0B101B" stroke-width="0.96892"/>
<circle opacity="0.1" cx="334.19" cy="2.65122" r="1.93784" fill="#0B101B"/>
<circle opacity="0.1" cx="281.868" cy="2.65122" r="1.93784" fill="#0B101B"/>
<circle opacity="0.1" cx="229.546" cy="2.65122" r="1.93784" fill="#0B101B"/>
<circle opacity="0.1" cx="177.225" cy="2.65122" r="1.93784" fill="#0B101B"/>
<circle opacity="0.1" cx="124.903" cy="2.65122" r="1.93784" fill="#0B101B"/>
<circle opacity="0.1" cx="72.5812" cy="2.65122" r="1.93784" fill="#0B101B"/>
<circle opacity="0.1" cx="20.2595" cy="2.65122" r="1.93784" fill="#0B101B"/>
<circle opacity="0.1" cx="334.19" cy="456.117" r="1.93784" fill="#0B101B"/>
<circle opacity="0.1" cx="281.868" cy="456.117" r="1.93784" fill="#0B101B"/>
<circle opacity="0.1" cx="229.546" cy="456.117" r="1.93784" fill="#0B101B"/>
<circle opacity="0.1" cx="177.225" cy="456.117" r="1.93784" fill="#0B101B"/>
<circle opacity="0.1" cx="124.903" cy="456.117" r="1.93784" fill="#0B101B"/>
<circle opacity="0.1" cx="72.5812" cy="456.117" r="1.93784" fill="#0B101B"/>
<circle opacity="0.1" cx="20.2595" cy="456.117" r="1.93784" fill="#0B101B"/>
<circle opacity="0.1" cx="334.19" cy="405.733" r="1.93784" fill="#0B101B"/>
<circle opacity="0.1" cx="281.868" cy="405.733" r="1.93784" fill="#0B101B"/>
<circle opacity="0.1" cx="229.546" cy="405.733" r="1.93784" fill="#0B101B"/>
<circle opacity="0.1" cx="177.225" cy="405.733" r="1.93784" fill="#0B101B"/>
<circle opacity="0.1" cx="124.903" cy="405.733" r="1.93784" fill="#0B101B"/>
<circle opacity="0.1" cx="72.5812" cy="405.733" r="1.93784" fill="#0B101B"/>
<circle opacity="0.1" cx="20.2595" cy="405.733" r="1.93784" fill="#0B101B"/>
<circle opacity="0.1" cx="334.19" cy="204.197" r="1.93784" fill="#0B101B"/>
<circle opacity="0.1" cx="281.868" cy="204.197" r="1.93784" fill="#0B101B"/>
<circle opacity="0.1" cx="229.546" cy="204.197" r="1.93784" fill="#0B101B"/>
<circle opacity="0.1" cx="177.225" cy="204.197" r="1.93784" fill="#0B101B"/>
<circle opacity="0.1" cx="124.903" cy="204.197" r="1.93784" fill="#0B101B"/>
<circle opacity="0.1" cx="72.5812" cy="204.197" r="1.93784" fill="#0B101B"/>
<circle opacity="0.1" cx="20.2595" cy="204.197" r="1.93784" fill="#0B101B"/>
<circle opacity="0.1" cx="334.19" cy="53.035" r="1.93784" fill="#0B101B"/>
<circle opacity="0.1" cx="281.868" cy="53.035" r="1.93784" fill="#0B101B"/>
<circle opacity="0.1" cx="229.546" cy="53.035" r="1.93784" fill="#0B101B"/>
<circle opacity="0.1" cx="177.225" cy="53.035" r="1.93784" fill="#0B101B"/>
<circle opacity="0.1" cx="124.903" cy="53.035" r="1.93784" fill="#0B101B"/>
<circle opacity="0.1" cx="72.5812" cy="53.035" r="1.93784" fill="#0B101B"/>
<circle opacity="0.1" cx="20.2595" cy="53.035" r="1.93784" fill="#0B101B"/>
<circle opacity="0.1" cx="334.19" cy="355.349" r="1.93784" fill="#0B101B"/>
<circle opacity="0.1" cx="281.868" cy="355.349" r="1.93784" fill="#0B101B"/>
<circle opacity="0.1" cx="229.546" cy="355.349" r="1.93784" fill="#0B101B"/>
<circle opacity="0.1" cx="177.225" cy="355.349" r="1.93784" fill="#0B101B"/>
<circle opacity="0.1" cx="124.903" cy="355.349" r="1.93784" fill="#0B101B"/>
<circle opacity="0.1" cx="72.5812" cy="355.349" r="1.93784" fill="#0B101B"/>
<circle opacity="0.1" cx="20.2595" cy="355.349" r="1.93784" fill="#0B101B"/>
<circle opacity="0.1" cx="334.19" cy="254.581" r="1.93784" fill="#0B101B"/>
<circle opacity="0.1" cx="281.868" cy="254.581" r="1.93784" fill="#0B101B"/>
<circle opacity="0.1" cx="229.546" cy="254.581" r="1.93784" fill="#0B101B"/>
<circle opacity="0.1" cx="177.225" cy="254.581" r="1.93784" fill="#0B101B"/>
<circle opacity="0.1" cx="124.903" cy="254.581" r="1.93784" fill="#0B101B"/>
<circle opacity="0.1" cx="72.5812" cy="254.581" r="1.93784" fill="#0B101B"/>
<circle opacity="0.1" cx="20.2595" cy="254.581" r="1.93784" fill="#0B101B"/>
<circle opacity="0.1" cx="334.19" cy="103.43" r="1.93784" fill="#0B101B"/>
<circle opacity="0.1" cx="281.868" cy="103.43" r="1.93784" fill="#0B101B"/>
<circle opacity="0.1" cx="229.546" cy="103.43" r="1.93784" fill="#0B101B"/>
<circle opacity="0.1" cx="177.225" cy="103.43" r="1.93784" fill="#0B101B"/>
<circle opacity="0.1" cx="124.903" cy="103.43" r="1.93784" fill="#0B101B"/>
<circle opacity="0.1" cx="72.5812" cy="103.43" r="1.93784" fill="#0B101B"/>
<circle opacity="0.1" cx="20.2595" cy="103.43" r="1.93784" fill="#0B101B"/>
<circle opacity="0.1" cx="334.19" cy="304.965" r="1.93784" fill="#0B101B"/>
<circle opacity="0.1" cx="281.868" cy="304.965" r="1.93784" fill="#0B101B"/>
<circle opacity="0.1" cx="229.546" cy="304.965" r="1.93784" fill="#0B101B"/>
<circle opacity="0.1" cx="177.225" cy="304.965" r="1.93784" fill="#0B101B"/>
<circle opacity="0.1" cx="124.903" cy="304.965" r="1.93784" fill="#0B101B"/>
<circle opacity="0.1" cx="72.5812" cy="304.965" r="1.93784" fill="#0B101B"/>
<circle opacity="0.1" cx="20.2595" cy="304.965" r="1.93784" fill="#0B101B"/>
<circle opacity="0.1" cx="334.19" cy="153.813" r="1.93784" fill="#0B101B"/>
<circle opacity="0.1" cx="281.868" cy="153.813" r="1.93784" fill="#0B101B"/>
<circle opacity="0.1" cx="229.546" cy="153.813" r="1.93784" fill="#0B101B"/>
<circle opacity="0.1" cx="177.225" cy="153.813" r="1.93784" fill="#0B101B"/>
<circle opacity="0.1" cx="124.903" cy="153.813" r="1.93784" fill="#0B101B"/>
<circle opacity="0.1" cx="72.5812" cy="153.813" r="1.93784" fill="#0B101B"/>
<circle opacity="0.1" cx="20.2595" cy="153.813" r="1.93784" fill="#0B101B"/>
</svg>
