<svg width="343" height="461" viewBox="0 0 343 461" fill="none" xmlns="http://www.w3.org/2000/svg">
<g clip-path="url(#clip0_2049_2314)">
<g clip-path="url(#clip1_2049_2314)">
<g opacity="0.2">
<path d="M0.019043 459.403H31.9934" stroke="#0B101B" stroke-width="0.96892"/>
</g>
<g opacity="0.2">
<path d="M0.019043 5.9375H31.9934" stroke="#0B101B" stroke-width="0.96892"/>
</g>
<g opacity="0.2">
<path d="M0.019043 56.3223H31.9934" stroke="#0B101B" stroke-width="0.96892"/>
</g>
<g opacity="0.2">
<path d="M0.019043 257.857H31.9934" stroke="#0B101B" stroke-width="0.96892"/>
</g>
<g opacity="0.2">
<path d="M0.019043 409.02H31.9934" stroke="#0B101B" stroke-width="0.96892"/>
</g>
<g opacity="0.2">
<path opacity="0.1" d="M201.4 216L201.4 248" stroke="#0B101B" stroke-width="0.96892"/>
<path opacity="0.1" d="M206.6 216L206.6 248" stroke="#0B101B" stroke-width="0.96892"/>
<path opacity="0.1" d="M211.8 216L211.8 248" stroke="#0B101B" stroke-width="0.96892"/>
<path opacity="0.1" d="M217 216L217 248" stroke="#0B101B" stroke-width="0.96892"/>
<path opacity="0.1" d="M222.2 216L222.2 248" stroke="#0B101B" stroke-width="0.96892"/>
<path opacity="0.1" d="M227.4 216L227.4 248" stroke="#0B101B" stroke-width="0.96892"/>
<path opacity="0.1" d="M232.6 216L232.6 248" stroke="#0B101B" stroke-width="0.96892"/>
<path opacity="0.1" d="M237.8 216L237.8 248" stroke="#0B101B" stroke-width="0.96892"/>
<path opacity="0.1" d="M243 216L243 248" stroke="#0B101B" stroke-width="0.96892"/>
</g>
<g opacity="0.2">
<path d="M0.019043 106.709H31.9934" stroke="#0B101B" stroke-width="0.96892"/>
</g>
<g opacity="0.2">
<path d="M0.019043 207.473H31.9934" stroke="#0B101B" stroke-width="0.96892"/>
</g>
<g opacity="0.2">
<path d="M0.019043 358.625H31.9934" stroke="#0B101B" stroke-width="0.96892"/>
</g>
<g opacity="0.2">
<path d="M0.019043 157.089H31.9934" stroke="#0B101B" stroke-width="0.96892"/>
</g>
<g opacity="0.2">
<path d="M0.019043 308.241H31.9934" stroke="#0B101B" stroke-width="0.96892"/>
</g>
<circle opacity="0.2" cx="1.93784" cy="1.93784" r="1.93784" transform="matrix(1 0 0 -1 40.3921 461.341)" fill="#0B101B"/>
<circle opacity="0.2" cx="1.93784" cy="1.93784" r="1.93784" transform="matrix(1 0 0 -1 91.9934 461.341)" fill="#0B101B"/>
<circle opacity="0.2" cx="1.93784" cy="1.93784" r="1.93784" transform="matrix(1 0 0 -1 143.595 461.341)" fill="#0B101B"/>
<circle opacity="0.2" cx="1.93784" cy="1.93784" r="1.93784" transform="matrix(1 0 0 -1 195.196 461.341)" fill="#0B101B"/>
<circle opacity="0.2" cx="1.93784" cy="1.93784" r="1.93784" transform="matrix(1 0 0 -1 246.797 461.341)" fill="#0B101B"/>
<circle opacity="0.2" cx="1.93784" cy="1.93784" r="1.93784" transform="matrix(1 0 0 -1 298.399 461.341)" fill="#0B101B"/>
<path opacity="0.2" d="M52.019 459.402H83.9934" stroke="#0B101B" stroke-width="0.96892"/>
<path opacity="0.2" d="M103.62 459.402H135.595" stroke="#0B101B" stroke-width="0.96892"/>
<path opacity="0.2" d="M155.222 459.402H187.196" stroke="#0B101B" stroke-width="0.96892"/>
<path opacity="0.2" d="M206.823 459.402H238.797" stroke="#0B101B" stroke-width="0.96892"/>
<path opacity="0.2" d="M258.424 459.402H290.399" stroke="#0B101B" stroke-width="0.96892"/>
<path opacity="0.2" d="M310.026 459.402H342" stroke="#0B101B" stroke-width="0.96892"/>
<circle opacity="0.2" cx="1.93784" cy="1.93784" r="1.93784" transform="matrix(1 0 0 -1 40.3921 7.87695)" fill="#0B101B"/>
<circle opacity="0.2" cx="1.93784" cy="1.93784" r="1.93784" transform="matrix(1 0 0 -1 91.9934 7.88379)" fill="#0B101B"/>
<circle opacity="0.2" cx="1.93784" cy="1.93784" r="1.93784" transform="matrix(1 0 0 -1 143.595 7.88477)" fill="#0B101B"/>
<circle opacity="0.2" cx="1.93784" cy="1.93784" r="1.93784" transform="matrix(1 0 0 -1 195.196 7.88477)" fill="#0B101B"/>
<circle opacity="0.2" cx="1.93784" cy="1.93784" r="1.93784" transform="matrix(1 0 0 -1 246.797 7.88477)" fill="#0B101B"/>
<circle opacity="0.2" cx="1.93784" cy="1.93784" r="1.93784" transform="matrix(1 0 0 -1 298.399 7.88477)" fill="#0B101B"/>
<path opacity="0.2" d="M52.019 5.93945H83.9934" stroke="#0B101B" stroke-width="0.96892"/>
<path opacity="0.2" d="M103.62 5.94629H135.595" stroke="#0B101B" stroke-width="0.96892"/>
<path opacity="0.2" d="M155.222 5.94727H187.196" stroke="#0B101B" stroke-width="0.96892"/>
<path opacity="0.2" d="M206.823 5.94727H238.797" stroke="#0B101B" stroke-width="0.96892"/>
<path opacity="0.2" d="M258.424 5.94727H290.399" stroke="#0B101B" stroke-width="0.96892"/>
<path opacity="0.2" d="M310.026 5.94727H342" stroke="#0B101B" stroke-width="0.96892"/>
<circle opacity="0.2" cx="1.93784" cy="1.93784" r="1.93784" transform="matrix(1 0 0 -1 40.3921 58.2607)" fill="#0B101B"/>
<circle opacity="0.2" cx="1.93784" cy="1.93784" r="1.93784" transform="matrix(1 0 0 -1 91.9934 58.2676)" fill="#0B101B"/>
<circle opacity="0.2" cx="1.93784" cy="1.93784" r="1.93784" transform="matrix(1 0 0 -1 143.595 58.2686)" fill="#0B101B"/>
<circle opacity="0.2" cx="1.93784" cy="1.93784" r="1.93784" transform="matrix(1 0 0 -1 195.196 58.2686)" fill="#0B101B"/>
<circle opacity="0.2" cx="1.93784" cy="1.93784" r="1.93784" transform="matrix(1 0 0 -1 246.797 58.2686)" fill="#0B101B"/>
<circle opacity="0.2" cx="1.93784" cy="1.93784" r="1.93784" transform="matrix(1 0 0 -1 298.399 58.2686)" fill="#0B101B"/>
<path opacity="0.2" d="M52.019 56.3232H83.9934" stroke="#0B101B" stroke-width="0.96892"/>
<path opacity="0.2" d="M103.62 56.3301H135.595" stroke="#0B101B" stroke-width="0.96892"/>
<path opacity="0.2" d="M155.222 56.3311H187.196" stroke="#0B101B" stroke-width="0.96892"/>
<path opacity="0.2" d="M206.823 56.3311H238.797" stroke="#0B101B" stroke-width="0.96892"/>
<path opacity="0.2" d="M258.424 56.3311H290.399" stroke="#0B101B" stroke-width="0.96892"/>
<path opacity="0.2" d="M310.026 56.3311H342" stroke="#0B101B" stroke-width="0.96892"/>
<circle opacity="0.2" cx="1.93784" cy="1.93784" r="1.93784" transform="matrix(1 0 0 -1 40.3921 259.796)" fill="#0B101B"/>
<circle opacity="0.2" cx="1.93784" cy="1.93784" r="1.93784" transform="matrix(1 0 0 -1 91.9934 259.803)" fill="#0B101B"/>
<circle opacity="0.2" cx="1.93784" cy="1.93784" r="1.93784" transform="matrix(1 0 0 -1 143.595 259.804)" fill="#0B101B"/>
<circle opacity="0.2" cx="1.93784" cy="1.93784" r="1.93784" transform="matrix(1 0 0 -1 195.196 259.804)" fill="#0B101B"/>
<circle opacity="0.2" cx="1.93784" cy="1.93784" r="1.93784" transform="matrix(1 0 0 -1 246.797 259.804)" fill="#0B101B"/>
<circle opacity="0.2" cx="1.93784" cy="1.93784" r="1.93784" transform="matrix(1 0 0 -1 298.399 259.804)" fill="#0B101B"/>
<path opacity="0.2" d="M52.019 257.858H83.9934" stroke="#0B101B" stroke-width="0.96892"/>
<path opacity="0.2" d="M103.62 257.865H135.595" stroke="#0B101B" stroke-width="0.96892"/>
<path opacity="0.2" d="M155.222 257.866H187.196" stroke="#0B101B" stroke-width="0.96892"/>
<path opacity="0.2" d="M206.823 257.866H238.797" stroke="#0B101B" stroke-width="0.96892"/>
<path opacity="0.2" d="M258.424 257.866H290.399" stroke="#0B101B" stroke-width="0.96892"/>
<path opacity="0.2" d="M310.026 257.866H342" stroke="#0B101B" stroke-width="0.96892"/>
<circle opacity="0.2" cx="1.93784" cy="1.93784" r="1.93784" transform="matrix(1 0 0 -1 40.3921 410.957)" fill="#0B101B"/>
<circle opacity="0.2" cx="1.93784" cy="1.93784" r="1.93784" transform="matrix(1 0 0 -1 91.9934 410.957)" fill="#0B101B"/>
<circle opacity="0.2" cx="1.93784" cy="1.93784" r="1.93784" transform="matrix(1 0 0 -1 143.595 410.957)" fill="#0B101B"/>
<circle opacity="0.2" cx="1.93784" cy="1.93784" r="1.93784" transform="matrix(1 0 0 -1 195.196 410.957)" fill="#0B101B"/>
<circle opacity="0.2" cx="1.93784" cy="1.93784" r="1.93784" transform="matrix(1 0 0 -1 246.797 410.957)" fill="#0B101B"/>
<circle opacity="0.2" cx="1.93784" cy="1.93784" r="1.93784" transform="matrix(1 0 0 -1 298.399 410.957)" fill="#0B101B"/>
<path opacity="0.2" d="M52.019 409.019H83.9934" stroke="#0B101B" stroke-width="0.96892"/>
<path opacity="0.2" d="M103.62 409.019H135.595" stroke="#0B101B" stroke-width="0.96892"/>
<path opacity="0.2" d="M155.222 409.019H187.196" stroke="#0B101B" stroke-width="0.96892"/>
<path opacity="0.2" d="M206.823 409.019H238.797" stroke="#0B101B" stroke-width="0.96892"/>
<path opacity="0.2" d="M258.424 409.019H290.399" stroke="#0B101B" stroke-width="0.96892"/>
<path opacity="0.2" d="M310.026 409.019H342" stroke="#0B101B" stroke-width="0.96892"/>
<path opacity="0.2" d="M42.3298 419.192L42.3298 451.167" stroke="#0B101B" stroke-width="0.96892"/>
<path opacity="0.2" d="M93.9312 419.192L93.9312 451.167" stroke="#0B101B" stroke-width="0.96892"/>
<path opacity="0.2" d="M145.532 419.192L145.532 451.167" stroke="#0B101B" stroke-width="0.96892"/>
<path opacity="0.2" d="M197.134 419.192L197.134 451.167" stroke="#0B101B" stroke-width="0.96892"/>
<path opacity="0.2" d="M248.735 419.192L248.735 451.167" stroke="#0B101B" stroke-width="0.96892"/>
<path opacity="0.2" d="M300.336 419.192L300.336 451.167" stroke="#0B101B" stroke-width="0.96892"/>
<path opacity="0.2" d="M42.3298 368.315L42.3298 400.29" stroke="#0B101B" stroke-width="0.96892"/>
<path opacity="0.2" d="M93.9312 368.322L93.9312 400.297" stroke="#0B101B" stroke-width="0.96892"/>
<path opacity="0.2" d="M145.532 368.323L145.532 400.298" stroke="#0B101B" stroke-width="0.96892"/>
<path opacity="0.2" d="M197.134 368.323L197.134 400.298" stroke="#0B101B" stroke-width="0.96892"/>
<path opacity="0.2" d="M248.735 368.323L248.735 400.298" stroke="#0B101B" stroke-width="0.96892"/>
<path opacity="0.2" d="M300.336 368.323L300.336 400.298" stroke="#0B101B" stroke-width="0.96892"/>
<path opacity="0.2" d="M42.3298 317.447L42.3298 349.422" stroke="#0B101B" stroke-width="0.96892"/>
<path opacity="0.2" d="M93.9312 317.454L93.9312 349.428" stroke="#0B101B" stroke-width="0.96892"/>
<path opacity="0.2" d="M145.532 317.455L145.532 349.429" stroke="#0B101B" stroke-width="0.96892"/>
<path opacity="0.2" d="M197.134 317.455L197.134 349.429" stroke="#0B101B" stroke-width="0.96892"/>
<path opacity="0.2" d="M248.735 317.455L248.735 349.429" stroke="#0B101B" stroke-width="0.96892"/>
<path opacity="0.2" d="M300.336 317.455L300.336 349.429" stroke="#0B101B" stroke-width="0.96892"/>
<path opacity="0.2" d="M42.3298 266.578L42.3298 298.552" stroke="#0B101B" stroke-width="0.96892"/>
<path opacity="0.2" d="M93.9312 266.585L93.9312 298.559" stroke="#0B101B" stroke-width="0.96892"/>
<path opacity="0.2" d="M145.532 266.586L145.532 298.56" stroke="#0B101B" stroke-width="0.96892"/>
<path opacity="0.2" d="M197.134 266.586L197.134 298.56" stroke="#0B101B" stroke-width="0.96892"/>
<path opacity="0.2" d="M248.735 266.586L248.735 298.56" stroke="#0B101B" stroke-width="0.96892"/>
<path opacity="0.2" d="M300.336 266.586L300.336 298.56" stroke="#0B101B" stroke-width="0.96892"/>
<path opacity="0.2" d="M42.3298 215.71L42.3298 247.684" stroke="#0B101B" stroke-width="0.96892"/>
<path opacity="0.2" d="M93.9312 215.717L93.9312 247.691" stroke="#0B101B" stroke-width="0.96892"/>
<path opacity="0.2" d="M145.532 215.718L145.532 247.692" stroke="#0B101B" stroke-width="0.96892"/>
<path opacity="0.2" d="M197.134 215.718L197.134 247.692" stroke="#0B101B" stroke-width="0.96892"/>
<path opacity="0.2" d="M248.735 215.718L248.735 247.692" stroke="#0B101B" stroke-width="0.96892"/>
<path opacity="0.2" d="M300.336 215.718L300.336 247.692" stroke="#0B101B" stroke-width="0.96892"/>
<path opacity="0.2" d="M42.3298 164.842L42.3298 196.816" stroke="#0B101B" stroke-width="0.96892"/>
<path opacity="0.2" d="M93.9312 164.849L93.9312 196.823" stroke="#0B101B" stroke-width="0.96892"/>
<path opacity="0.2" d="M145.532 164.85L145.532 196.824" stroke="#0B101B" stroke-width="0.96892"/>
<path opacity="0.2" d="M197.134 164.85L197.134 196.824" stroke="#0B101B" stroke-width="0.96892"/>
<path opacity="0.2" d="M248.735 164.85L248.735 196.824" stroke="#0B101B" stroke-width="0.96892"/>
<path opacity="0.2" d="M300.336 164.85L300.336 196.824" stroke="#0B101B" stroke-width="0.96892"/>
<path opacity="0.2" d="M42.3298 113.974L42.3298 145.948" stroke="#0B101B" stroke-width="0.96892"/>
<path opacity="0.2" d="M93.9312 113.98L93.9312 145.955" stroke="#0B101B" stroke-width="0.96892"/>
<path opacity="0.2" d="M145.532 113.981L145.532 145.956" stroke="#0B101B" stroke-width="0.96892"/>
<path opacity="0.2" d="M197.134 113.981L197.134 145.956" stroke="#0B101B" stroke-width="0.96892"/>
<path opacity="0.2" d="M248.735 113.981L248.735 145.956" stroke="#0B101B" stroke-width="0.96892"/>
<path opacity="0.2" d="M300.336 113.981L300.336 145.956" stroke="#0B101B" stroke-width="0.96892"/>
<path opacity="0.2" d="M42.3298 63.1055L42.3298 95.0798" stroke="#0B101B" stroke-width="0.96892"/>
<path opacity="0.2" d="M93.9312 63.1123L93.9312 95.0867" stroke="#0B101B" stroke-width="0.96892"/>
<path opacity="0.2" d="M145.532 63.1133L145.532 95.0876" stroke="#0B101B" stroke-width="0.96892"/>
<path opacity="0.2" d="M197.134 63.1133L197.134 95.0876" stroke="#0B101B" stroke-width="0.96892"/>
<path opacity="0.2" d="M248.735 63.1133L248.735 95.0876" stroke="#0B101B" stroke-width="0.96892"/>
<path opacity="0.2" d="M300.336 63.1133L300.336 95.0876" stroke="#0B101B" stroke-width="0.96892"/>
<path opacity="0.2" d="M42.3298 12.7217L42.3298 44.696" stroke="#0B101B" stroke-width="0.96892"/>
<path opacity="0.2" d="M93.9312 12.7285L93.9312 44.7029" stroke="#0B101B" stroke-width="0.96892"/>
<path opacity="0.2" d="M145.532 12.7295L145.532 44.7039" stroke="#0B101B" stroke-width="0.96892"/>
<path opacity="0.2" d="M197.134 12.7295L197.134 44.7039" stroke="#0B101B" stroke-width="0.96892"/>
<path opacity="0.2" d="M248.735 12.7295L248.735 44.7039" stroke="#0B101B" stroke-width="0.96892"/>
<path opacity="0.2" d="M300.336 12.7295L300.336 44.7039" stroke="#0B101B" stroke-width="0.96892"/>
<circle opacity="0.2" cx="1.93784" cy="1.93784" r="1.93784" transform="matrix(1 0 0 -1 40.3921 108.646)" fill="#0B101B"/>
<circle opacity="0.2" cx="1.93784" cy="1.93784" r="1.93784" transform="matrix(1 0 0 -1 91.9934 108.652)" fill="#0B101B"/>
<circle opacity="0.2" cx="1.93784" cy="1.93784" r="1.93784" transform="matrix(1 0 0 -1 143.595 108.653)" fill="#0B101B"/>
<circle opacity="0.2" cx="1.93784" cy="1.93784" r="1.93784" transform="matrix(1 0 0 -1 195.196 108.653)" fill="#0B101B"/>
<circle opacity="0.2" cx="1.93784" cy="1.93784" r="1.93784" transform="matrix(1 0 0 -1 246.797 108.653)" fill="#0B101B"/>
<circle opacity="0.2" cx="1.93784" cy="1.93784" r="1.93784" transform="matrix(1 0 0 -1 298.399 108.653)" fill="#0B101B"/>
<path opacity="0.2" d="M52.019 106.708H83.9934" stroke="#0B101B" stroke-width="0.96892"/>
<path opacity="0.2" d="M103.62 106.715H135.595" stroke="#0B101B" stroke-width="0.96892"/>
<path opacity="0.2" d="M155.222 106.716H187.196" stroke="#0B101B" stroke-width="0.96892"/>
<path opacity="0.2" d="M206.823 106.716H238.797" stroke="#0B101B" stroke-width="0.96892"/>
<path opacity="0.2" d="M258.424 106.716H290.399" stroke="#0B101B" stroke-width="0.96892"/>
<path opacity="0.2" d="M310.026 106.716H342" stroke="#0B101B" stroke-width="0.96892"/>
<circle opacity="0.2" cx="1.93784" cy="1.93784" r="1.93784" transform="matrix(1 0 0 -1 40.3921 209.412)" fill="#0B101B"/>
<circle opacity="0.2" cx="1.93784" cy="1.93784" r="1.93784" transform="matrix(1 0 0 -1 91.9934 209.419)" fill="#0B101B"/>
<circle opacity="0.2" cx="1.93784" cy="1.93784" r="1.93784" transform="matrix(1 0 0 -1 143.595 209.42)" fill="#0B101B"/>
<circle opacity="0.2" cx="1.93784" cy="1.93784" r="1.93784" transform="matrix(1 0 0 -1 195.196 209.42)" fill="#0B101B"/>
<circle opacity="0.2" cx="1.93784" cy="1.93784" r="1.93784" transform="matrix(1 0 0 -1 246.797 209.42)" fill="#0B101B"/>
<circle opacity="0.2" cx="1.93784" cy="1.93784" r="1.93784" transform="matrix(1 0 0 -1 298.399 209.42)" fill="#0B101B"/>
<path opacity="0.2" d="M52.019 207.475H83.9934" stroke="#0B101B" stroke-width="0.96892"/>
<path opacity="0.2" d="M103.62 207.481H135.595" stroke="#0B101B" stroke-width="0.96892"/>
<path opacity="0.2" d="M155.222 207.482H187.196" stroke="#0B101B" stroke-width="0.96892"/>
<path opacity="0.2" d="M206.823 207.482H238.797" stroke="#0B101B" stroke-width="0.96892"/>
<path opacity="0.2" d="M258.424 207.482H290.399" stroke="#0B101B" stroke-width="0.96892"/>
<path opacity="0.2" d="M310.026 207.482H342" stroke="#0B101B" stroke-width="0.96892"/>
<circle opacity="0.2" cx="1.93784" cy="1.93784" r="1.93784" transform="matrix(1 0 0 -1 40.3921 360.563)" fill="#0B101B"/>
<circle opacity="0.2" cx="1.93784" cy="1.93784" r="1.93784" transform="matrix(1 0 0 -1 91.9934 360.57)" fill="#0B101B"/>
<circle opacity="0.2" cx="1.93784" cy="1.93784" r="1.93784" transform="matrix(1 0 0 -1 143.595 360.571)" fill="#0B101B"/>
<circle opacity="0.2" cx="1.93784" cy="1.93784" r="1.93784" transform="matrix(1 0 0 -1 195.196 360.571)" fill="#0B101B"/>
<circle opacity="0.2" cx="1.93784" cy="1.93784" r="1.93784" transform="matrix(1 0 0 -1 246.797 360.571)" fill="#0B101B"/>
<circle opacity="0.2" cx="1.93784" cy="1.93784" r="1.93784" transform="matrix(1 0 0 -1 298.399 360.571)" fill="#0B101B"/>
<path opacity="0.2" d="M52.019 358.626H83.9934" stroke="#0B101B" stroke-width="0.96892"/>
<path opacity="0.2" d="M103.62 358.633H135.595" stroke="#0B101B" stroke-width="0.96892"/>
<path opacity="0.2" d="M155.222 358.634H187.196" stroke="#0B101B" stroke-width="0.96892"/>
<path opacity="0.2" d="M206.823 358.634H238.797" stroke="#0B101B" stroke-width="0.96892"/>
<path opacity="0.2" d="M258.424 358.634H290.399" stroke="#0B101B" stroke-width="0.96892"/>
<path opacity="0.2" d="M310.026 358.634H342" stroke="#0B101B" stroke-width="0.96892"/>
<circle opacity="0.2" cx="1.93784" cy="1.93784" r="1.93784" transform="matrix(1 0 0 -1 40.3921 159.028)" fill="#0B101B"/>
<circle opacity="0.2" cx="1.93784" cy="1.93784" r="1.93784" transform="matrix(1 0 0 -1 91.9934 159.035)" fill="#0B101B"/>
<circle opacity="0.2" cx="1.93784" cy="1.93784" r="1.93784" transform="matrix(1 0 0 -1 143.595 159.036)" fill="#0B101B"/>
<circle opacity="0.2" cx="1.93784" cy="1.93784" r="1.93784" transform="matrix(1 0 0 -1 195.196 159.036)" fill="#0B101B"/>
<circle opacity="0.2" cx="1.93784" cy="1.93784" r="1.93784" transform="matrix(1 0 0 -1 246.797 159.036)" fill="#0B101B"/>
<circle opacity="0.2" cx="1.93784" cy="1.93784" r="1.93784" transform="matrix(1 0 0 -1 298.399 159.036)" fill="#0B101B"/>
<path opacity="0.2" d="M52.019 157.091H83.9934" stroke="#0B101B" stroke-width="0.96892"/>
<path opacity="0.2" d="M103.62 157.098H135.595" stroke="#0B101B" stroke-width="0.96892"/>
<path opacity="0.2" d="M155.222 157.099H187.196" stroke="#0B101B" stroke-width="0.96892"/>
<path opacity="0.2" d="M206.823 157.099H238.797" stroke="#0B101B" stroke-width="0.96892"/>
<path opacity="0.2" d="M258.424 157.099H290.399" stroke="#0B101B" stroke-width="0.96892"/>
<path opacity="0.2" d="M310.026 157.099H342" stroke="#0B101B" stroke-width="0.96892"/>
<circle opacity="0.2" cx="1.93784" cy="1.93784" r="1.93784" transform="matrix(1 0 0 -1 40.3921 310.18)" fill="#0B101B"/>
<circle opacity="0.2" cx="1.93784" cy="1.93784" r="1.93784" transform="matrix(1 0 0 -1 91.9934 310.187)" fill="#0B101B"/>
<circle opacity="0.2" cx="1.93784" cy="1.93784" r="1.93784" transform="matrix(1 0 0 -1 143.595 310.188)" fill="#0B101B"/>
<circle opacity="0.2" cx="1.93784" cy="1.93784" r="1.93784" transform="matrix(1 0 0 -1 195.196 310.188)" fill="#0B101B"/>
<circle opacity="0.2" cx="1.93784" cy="1.93784" r="1.93784" transform="matrix(1 0 0 -1 246.797 310.188)" fill="#0B101B"/>
<circle opacity="0.2" cx="1.93784" cy="1.93784" r="1.93784" transform="matrix(1 0 0 -1 298.399 310.188)" fill="#0B101B"/>
<path opacity="0.2" d="M52.019 308.242H83.9934" stroke="#0B101B" stroke-width="0.96892"/>
<path opacity="0.2" d="M103.62 308.249H135.595" stroke="#0B101B" stroke-width="0.96892"/>
<path opacity="0.2" d="M155.222 308.25H187.196" stroke="#0B101B" stroke-width="0.96892"/>
<path opacity="0.2" d="M206.823 308.25H238.797" stroke="#0B101B" stroke-width="0.96892"/>
<path opacity="0.2" d="M258.424 308.25H290.399" stroke="#0B101B" stroke-width="0.96892"/>
<path opacity="0.2" d="M310.026 308.25H342" stroke="#0B101B" stroke-width="0.96892"/>
<path opacity="0.1" d="M202 299L202 267" stroke="#0B101B" stroke-width="0.96892"/>
<path opacity="0.1" d="M207.2 299L207.2 267" stroke="#0B101B" stroke-width="0.96892"/>
<path opacity="0.1" d="M212.4 299L212.4 267" stroke="#0B101B" stroke-width="0.96892"/>
<path opacity="0.1" d="M217.6 299L217.6 267" stroke="#0B101B" stroke-width="0.96892"/>
<path opacity="0.1" d="M222.8 299L222.8 267" stroke="#0B101B" stroke-width="0.96892"/>
<path opacity="0.1" d="M228 299L228 267" stroke="#0B101B" stroke-width="0.96892"/>
<path opacity="0.1" d="M233.2 299L233.2 267" stroke="#0B101B" stroke-width="0.96892"/>
<path opacity="0.1" d="M238.4 299L238.4 267" stroke="#0B101B" stroke-width="0.96892"/>
<path opacity="0.1" d="M243.6 299L243.6 267" stroke="#0B101B" stroke-width="0.96892"/>
</g>
<path d="M146.001 103V112.29" stroke="#C8047D" stroke-width="1.5" stroke-linecap="round" stroke-linejoin="round"/>
<path d="M150.29 107.645L141 107.645" stroke="#C8047D" stroke-width="1.5" stroke-linecap="round" stroke-linejoin="round"/>
<path d="M197.001 304V313.29" stroke="#C8047D" stroke-width="1.5" stroke-linecap="round" stroke-linejoin="round"/>
<path d="M201.29 308.645L192 308.645" stroke="#C8047D" stroke-width="1.5" stroke-linecap="round" stroke-linejoin="round"/>
<path d="M93.0012 354V363.29" stroke="#C8047D" stroke-width="1.5" stroke-linecap="round" stroke-linejoin="round"/>
<path d="M97.2903 358.645L88 358.645" stroke="#C8047D" stroke-width="1.5" stroke-linecap="round" stroke-linejoin="round"/>
</g>
<defs>
<clipPath id="clip0_2049_2314">
<rect width="756" height="850" fill="white" transform="matrix(-1 0 0 1 756 -194)"/>
</clipPath>
<clipPath id="clip1_2049_2314">
<rect width="756" height="850" fill="white" transform="matrix(-1 0 0 1 756 -194)"/>
</clipPath>
</defs>
</svg>
