<svg width="36" height="36" viewBox="0 0 36 36" fill="none" xmlns="http://www.w3.org/2000/svg">
<rect width="36" height="36" fill="#F9F9F9"/>
<g clip-path="url(#clip0_2007_2977)">
<path d="M13.5 19.11C13.5 20.9002 14.2112 22.6171 15.477 23.883C16.7429 25.1488 18.4598 25.86 20.25 25.86C22.0402 25.86 23.7571 25.1488 25.023 23.883C26.2888 22.6171 27 20.9002 27 19.11L13.5 19.11Z" fill="#E81899"/>
<path d="M9 17.75C9 15.9598 9.71116 14.2429 10.977 12.977C12.2429 11.7112 13.9598 11 15.75 11C17.5402 11 19.2571 11.7112 20.523 12.977C21.7888 14.2429 22.5 15.9598 22.5 17.75L9 17.75Z" fill="#E81899"/>
</g>
<defs>
<clipPath id="clip0_2007_2977">
<rect width="18" height="18" fill="white" transform="translate(9 9)"/>
</clipPath>
</defs>
</svg>
