<svg width="36" height="36" viewBox="0 0 36 36" fill="none" xmlns="http://www.w3.org/2000/svg">
<rect width="36" height="36" fill="#F9F9F9"/>
<g clip-path="url(#clip0_2007_3480)">
<path d="M24.4001 13.2C24.4001 11.4327 21.5347 10 18.0001 10C14.4655 10 11.6001 11.4327 11.6001 13.2C11.6001 14.1558 12.4381 15.0136 13.7668 15.6C12.4381 16.1864 11.6001 17.0442 11.6001 18C11.6001 18.9558 12.4381 19.8136 13.7668 20.4C12.4381 20.9864 11.6001 21.8442 11.6001 22.8C11.6001 24.5673 14.4655 26 18.0001 26C21.5347 26 24.4001 24.5673 24.4001 22.8C24.4001 21.8442 23.5621 20.9864 22.2334 20.4C23.5621 19.8136 24.4001 18.9558 24.4001 18C24.4001 17.0442 23.5621 16.1864 22.2334 15.6C23.5621 15.0136 24.4001 14.1558 24.4001 13.2Z" fill="#E81899"/>
</g>
<defs>
<clipPath id="clip0_2007_3480">
<rect width="16" height="16" fill="white" transform="translate(10 10)"/>
</clipPath>
</defs>
</svg>
