<svg width="36" height="36" viewBox="0 0 36 36" fill="none" xmlns="http://www.w3.org/2000/svg">
<rect width="36" height="36" fill="#F9F9F9"/>
<g clip-path="url(#clip0_2007_3484)">
<path d="M26 12.4C26 13.7255 24.9255 14.8 23.6 14.8C22.2745 14.8 21.2 13.7255 21.2 12.4C21.2 11.0745 22.2745 10 23.6 10C24.9255 10 26 11.0745 26 12.4Z" fill="#E81899"/>
<path d="M26 23.6C26 24.9255 24.9255 26 23.6 26C22.2745 26 21.2 24.9255 21.2 23.6C21.2 22.2745 22.2745 21.2 23.6 21.2C24.9255 21.2 26 22.2745 26 23.6Z" fill="#E81899"/>
<path d="M22.08 18C22.08 20.2533 20.2533 22.08 18 22.08C15.7467 22.08 13.92 20.2533 13.92 18C13.92 15.7467 15.7467 13.92 18 13.92C20.2533 13.92 22.08 15.7467 22.08 18Z" fill="#E81899"/>
<path d="M14.8 12.4C14.8 13.7255 13.7255 14.8 12.4 14.8C11.0745 14.8 10 13.7255 10 12.4C10 11.0745 11.0745 10 12.4 10C13.7255 10 14.8 11.0745 14.8 12.4Z" fill="#E81899"/>
<path d="M14.8 23.6C14.8 24.9255 13.7255 26 12.4 26C11.0745 26 10 24.9255 10 23.6C10 22.2745 11.0745 21.2 12.4 21.2C13.7255 21.2 14.8 22.2745 14.8 23.6Z" fill="#E81899"/>
</g>
<defs>
<clipPath id="clip0_2007_3484">
<rect width="16" height="16" fill="white" transform="translate(10 10)"/>
</clipPath>
</defs>
</svg>
