<svg width="36" height="36" viewBox="0 0 36 36" fill="none" xmlns="http://www.w3.org/2000/svg">
<rect width="36" height="36" fill="#F9F9F9"/>
<g clip-path="url(#clip0_2007_3488)">
<path fill-rule="evenodd" clip-rule="evenodd" d="M19.0038 16.9961C19.7367 16.6825 20.8074 16.4848 22 16.4848C24.2091 16.4848 26 17.1632 26 18C26 18.8368 24.2091 19.5151 22 19.5151C20.8074 19.5151 19.7367 19.3174 19.0038 19.0038C19.3174 19.7367 19.5151 20.8074 19.5151 22C19.5151 24.2091 18.8368 26 18 26C17.1632 26 16.4848 24.2091 16.4848 22C16.4848 20.8074 16.6825 19.7367 16.9961 19.0038C16.2633 19.3174 15.1926 19.5151 14 19.5151C11.7909 19.5151 10 18.8368 10 18C10 17.1632 11.7909 16.4848 14 16.4848C15.1926 16.4848 16.2633 16.6825 16.9961 16.9961C16.6825 16.2633 16.4848 15.1926 16.4848 14C16.4848 11.7909 17.1632 10 18 10C18.8368 10 19.5151 11.7909 19.5151 14C19.5151 15.1926 19.3174 16.2633 19.0038 16.9961Z" fill="#E81899"/>
</g>
<defs>
<clipPath id="clip0_2007_3488">
<rect width="16" height="16" fill="white" transform="translate(10 10)"/>
</clipPath>
</defs>
</svg>
