<svg width="36" height="36" viewBox="0 0 36 36" fill="none" xmlns="http://www.w3.org/2000/svg">
<rect width="36" height="36" fill="#F9F9F9"/>
<g clip-path="url(#clip0_2007_2973)">
<path d="M17.1945 10.4903C17.5326 9.83657 18.4674 9.83657 18.8054 10.4903L20.9578 14.6532C21.0441 14.82 21.18 14.9559 21.3469 15.0421L25.5097 17.1945C26.1634 17.5326 26.1634 18.4674 25.5097 18.8054L21.3469 20.9578C21.18 21.0441 21.0441 21.18 20.9578 21.3469L18.8054 25.5097C18.4674 26.1634 17.5326 26.1634 17.1945 25.5097L15.0421 21.3469C14.9559 21.18 14.82 21.0441 14.6532 20.9578L10.4903 18.8054C9.83657 18.4674 9.83657 17.5326 10.4903 17.1945L14.6532 15.0421C14.82 14.9559 14.9559 14.82 15.0421 14.6532L17.1945 10.4903Z" fill="#E81899"/>
</g>
<defs>
<clipPath id="clip0_2007_2973">
<rect width="16" height="16" fill="white" transform="translate(10 10)"/>
</clipPath>
</defs>
</svg>
