<svg width="36" height="36" viewBox="0 0 36 36" fill="none" xmlns="http://www.w3.org/2000/svg">
<rect width="36" height="36" fill="#F9F9F9"/>
<g clip-path="url(#clip0_2007_3710)">
<path d="M21.3577 10.0024H14.6503C11.7369 10.0024 10 11.7393 10 14.6528V21.3521C10 24.2736 11.7369 26.0104 14.6503 26.0104H21.3497C24.2631 26.0104 26 24.2736 26 21.3601V14.6528C26.008 11.7393 24.2711 10.0024 21.3577 10.0024ZM16.5793 25.21H14.7304C12.5613 25.21 10.8004 23.4491 10.8004 21.2801V19.4311C10.8004 19.103 11.0725 18.8308 11.4007 18.8308C11.7289 18.8308 12.001 19.103 12.001 19.4311V21.2801C12.001 22.7848 13.2256 24.0094 14.7304 24.0094H16.5793C16.9074 24.0094 17.1796 24.2816 17.1796 24.6097C17.1796 24.9379 16.9154 25.21 16.5793 25.21ZM16.5793 12.0034H14.7304C13.2256 12.0034 12.001 13.228 12.001 14.7328V16.5817C12.001 16.9099 11.7289 17.182 11.4007 17.182C11.0725 17.182 10.8004 16.9179 10.8004 16.5817V14.7328C10.8004 12.5637 12.5613 10.8028 14.7304 10.8028H16.5793C16.9074 10.8028 17.1796 11.075 17.1796 11.4031C17.1796 11.7313 16.9154 12.0034 16.5793 12.0034ZM25.2076 21.2801C25.2076 23.4491 23.4467 25.21 21.2776 25.21H20.1651C19.8369 25.21 19.5648 24.9379 19.5648 24.6097C19.5648 24.2816 19.8369 24.0094 20.1651 24.0094H21.2776C22.7824 24.0094 24.007 22.7848 24.007 21.2801V20.1675C24.007 19.8393 24.2791 19.5672 24.6073 19.5672C24.9354 19.5672 25.2076 19.8393 25.2076 20.1675V21.2801ZM25.2076 16.5817C25.2076 16.9099 24.9354 17.182 24.6073 17.182C24.2791 17.182 24.007 16.9099 24.007 16.5817V14.7328C24.007 13.228 22.7824 12.0034 21.2776 12.0034H19.4287C19.1005 12.0034 18.8284 11.7313 18.8284 11.4031C18.8284 11.075 19.0925 10.8028 19.4287 10.8028H21.2776C23.4467 10.8028 25.2076 12.5637 25.2076 14.7328V16.5817Z" fill="#EE42AD"/>
</g>
<defs>
<clipPath id="clip0_2007_3710">
<rect width="16" height="16" fill="white" transform="translate(10 10)"/>
</clipPath>
</defs>
</svg>
