<svg width="36" height="36" viewBox="0 0 36 36" fill="none" xmlns="http://www.w3.org/2000/svg">
<rect width="36" height="36" fill="#F9F9F9"/>
<g clip-path="url(#clip0_2007_3719)">
<path d="M21.3577 10.002H14.6503C11.7369 10.002 10 11.7388 10 14.6523V21.3516C10 24.2731 11.7369 26.0099 14.6503 26.0099H21.3497C24.2631 26.0099 26 24.2731 26 21.3596V14.6523C26.008 11.7388 24.2711 10.002 21.3577 10.002ZM16.5793 25.2095H14.7304C12.5613 25.2095 10.8004 23.4487 10.8004 21.2796V19.4307C10.8004 19.1025 11.0725 18.8304 11.4007 18.8304C11.7289 18.8304 12.001 19.1025 12.001 19.4307V21.2796C12.001 22.7843 13.2256 24.0089 14.7304 24.0089H16.5793C16.9074 24.0089 17.1796 24.2811 17.1796 24.6092C17.1796 24.9374 16.9154 25.2095 16.5793 25.2095ZM16.5793 12.003H14.7304C13.2256 12.003 12.001 13.2276 12.001 14.7323V16.5812C12.001 16.9094 11.7289 17.1815 11.4007 17.1815C11.0725 17.1815 10.8004 16.9174 10.8004 16.5812V14.7323C10.8004 12.5632 12.5613 10.8024 14.7304 10.8024H16.5793C16.9074 10.8024 17.1796 11.0745 17.1796 11.4027C17.1796 11.7308 16.9154 12.003 16.5793 12.003ZM25.2076 21.2796C25.2076 23.4487 23.4467 25.2095 21.2776 25.2095H20.1651C19.8369 25.2095 19.5648 24.9374 19.5648 24.6092C19.5648 24.2811 19.8369 24.0089 20.1651 24.0089H21.2776C22.7824 24.0089 24.007 22.7843 24.007 21.2796V20.167C24.007 19.8389 24.2791 19.5667 24.6073 19.5667C24.9354 19.5667 25.2076 19.8389 25.2076 20.167V21.2796ZM25.2076 16.5812C25.2076 16.9094 24.9354 17.1815 24.6073 17.1815C24.2791 17.1815 24.007 16.9094 24.007 16.5812V14.7323C24.007 13.2276 22.7824 12.003 21.2776 12.003H19.4287C19.1005 12.003 18.8284 11.7308 18.8284 11.4027C18.8284 11.0745 19.0925 10.8024 19.4287 10.8024H21.2776C23.4467 10.8024 25.2076 12.5632 25.2076 14.7323V16.5812Z" fill="#EE42AD"/>
<rect x="13.4287" y="15.9521" width="3.80952" height="3.80952" fill="white"/>
<rect x="14.9526" y="15.9521" width="2.28571" height="2.28571" fill="#EE42AD"/>
<rect x="19.1431" y="15.9521" width="3.80952" height="3.80952" fill="white"/>
<rect x="20.667" y="15.9521" width="2.28571" height="2.28571" fill="#EE42AD"/>
</g>
<defs>
<clipPath id="clip0_2007_3719">
<rect width="16" height="16" fill="white" transform="translate(10 10)"/>
</clipPath>
</defs>
</svg>
