<svg width="36" height="36" viewBox="0 0 36 36" fill="none" xmlns="http://www.w3.org/2000/svg">
<rect width="36" height="36" fill="#F9F9F9"/>
<path d="M26 18C26 22.4183 22.4183 26 18 26C21.0044 26 23.44 23.5644 23.44 20.56C23.44 17.5556 21.0044 15.12 18 15.12C14.9956 15.12 12.56 17.5556 12.56 20.56C12.56 23.5644 14.9956 26 18 26C13.5817 26 10 22.4183 10 18C10 13.5817 13.5817 10 18 10C22.4183 10 26 13.5817 26 18Z" fill="#E81899"/>
<path d="M18 26C15.8792 26 14.16 24.2808 14.16 22.16C14.16 20.0392 15.8792 18.32 18 18.32C20.1208 18.32 21.84 20.0392 21.84 22.16C21.84 24.2808 20.1208 26 18 26Z" fill="#E81899"/>
</svg>
